<svg xmlns="http://www.w3.org/2000/svg" xmlns:xlink="http://www.w3.org/1999/xlink" width="1920" zoomAndPan="magnify" viewBox="0 0 1440 809.999993" height="1080" preserveAspectRatio="xMidYMid meet" version="1.2"><defs><clipPath id="d31cfb8c84"><path d="M 144 0.75 L 1294 0.75 L 1294 809 L 144 809 Z M 144 0.75 "/></clipPath><clipPath id="b8aedf095e"><path d="M 160.820312 318.246094 L 162.371094 318.246094 L 162.371094 319.796875 L 160.820312 319.796875 Z M 160.820312 318.246094 "/></clipPath><clipPath id="cfe0d8a083"><path d="M 161.59375 318.246094 C 161.167969 318.246094 160.820312 318.59375 160.820312 319.019531 C 160.820312 319.449219 161.167969 319.796875 161.59375 319.796875 C 162.023438 319.796875 162.371094 319.449219 162.371094 319.019531 C 162.371094 318.59375 162.023438 318.246094 161.59375 318.246094 Z M 161.59375 318.246094 "/></clipPath></defs><g id="22f7c4d162"><g clip-rule="nonzero" clip-path="url(#d31cfb8c84)"><path style=" stroke:none;fill-rule:nonzero;fill:#ffffff;fill-opacity:1;" d="M 1129.765625 394.820312 C 1121.394531 394.820312 1114.617188 401.597656 1114.617188 409.964844 L 1114.617188 424.835938 C 1114.617188 440.492188 1101.871094 453.234375 1086.214844 453.234375 C 1070.554688 453.234375 1057.808594 440.492188 1057.808594 424.835938 L 1057.808594 409.964844 C 1057.808594 401.597656 1051.035156 394.820312 1042.667969 394.820312 L 928.4375 394.820312 C 927.980469 392.976562 927.15625 391.199219 925.964844 389.582031 C 947.644531 362.855469 948.199219 306.933594 947.308594 217.957031 C 947.1875 205.523438 947.046875 191.433594 947.046875 178.246094 C 947.046875 131.792969 1005.066406 88.550781 1058.816406 75.117188 L 1071.71875 71.90625 C 1079.199219 70.035156 1084.078125 62.84375 1083.058594 55.203125 L 1081.152344 40.984375 C 1081.152344 40.945312 1081.144531 40.914062 1081.144531 40.875 C 1081.105469 40.671875 1081.082031 40.453125 1081.042969 40.238281 C 1081.320312 35.265625 1085.386719 31.246094 1090.398438 31.070312 C 1090.613281 31.078125 1090.84375 31.078125 1091.058594 31.078125 L 1091.480469 31.078125 C 1096.476562 31.246094 1100.550781 35.289062 1100.828125 40.238281 C 1100.796875 40.429688 1100.773438 40.636719 1100.746094 40.828125 L 1100.734375 40.914062 C 1100.734375 40.9375 1100.722656 40.960938 1100.722656 40.996094 L 1098.828125 55.21875 C 1097.808594 62.851562 1102.6875 70.035156 1110.171875 71.90625 L 1123.0625 75.117188 C 1176.8125 88.550781 1234.832031 131.792969 1234.832031 178.246094 C 1234.832031 191.089844 1234.699219 204.527344 1234.570312 217.523438 L 1234.554688 217.96875 C 1233.667969 307.042969 1234.230469 363 1255.984375 389.679688 C 1257.335938 391.355469 1258.8125 393.070312 1260.371094 394.820312 Z M 1020.355469 778.695312 L 260.941406 778.695312 C 213.191406 778.695312 174.34375 739.847656 174.34375 692.089844 L 174.34375 318.984375 C 174.34375 271.238281 213.191406 232.394531 260.941406 232.394531 L 917.15625 232.394531 C 917.679688 302.796875 916.304688 353.515625 902.417969 370.554688 C 900.585938 372.792969 898.496094 375.167969 896.195312 377.589844 C 890.71875 383.382812 888.101562 390.863281 888.628906 398.441406 L 640.753906 584.609375 L 247.613281 282.378906 C 240.984375 277.28125 231.476562 278.519531 226.378906 285.148438 C 221.285156 291.78125 222.523438 301.289062 229.15625 306.386719 L 631.417969 615.644531 C 634.132812 617.730469 637.390625 618.773438 640.644531 618.773438 C 643.84375 618.773438 647.046875 617.765625 649.742188 615.738281 L 906.304688 423.042969 C 909.46875 424.34375 913.078125 425.109375 917.105469 425.109375 L 1027.519531 425.109375 C 1027.679688 457.339844 1053.949219 483.523438 1086.214844 483.523438 C 1093.515625 483.523438 1100.496094 482.179688 1106.945312 479.734375 L 1106.945312 692.089844 C 1106.945312 739.847656 1068.097656 778.695312 1020.355469 778.695312 Z M 1285.667969 377.589844 C 1283.367188 375.144531 1281.269531 372.769531 1279.457031 370.554688 C 1264.660156 352.402344 1264.074219 295.988281 1264.84375 218.269531 L 1264.84375 217.824219 C 1264.976562 204.753906 1265.117188 191.230469 1265.117188 178.246094 C 1265.117188 162.589844 1260.871094 146.925781 1252.503906 131.699219 C 1245.058594 118.140625 1234.507812 105.222656 1221.152344 93.296875 C 1196.632812 71.390625 1163.644531 54.089844 1130.636719 45.804688 L 1130.746094 44.972656 C 1130.972656 43.3125 1131.125 42.121094 1131.125 40.769531 C 1131.125 30.230469 1127.050781 20.277344 1119.65625 12.746094 C 1112.269531 5.230469 1102.402344 0.984375 1091.886719 0.792969 C 1091.75 0.792969 1091.621094 0.78125 1091.488281 0.792969 L 1090.925781 0.792969 C 1090.699219 0.78125 1090.46875 0.78125 1090.253906 0.78125 C 1068.46875 1.046875 1050.746094 18.980469 1050.746094 40.769531 C 1050.746094 42.144531 1050.914062 43.417969 1051.144531 45.050781 L 1051.238281 45.804688 C 1018.226562 54.089844 985.246094 71.390625 960.726562 93.296875 C 947.371094 105.222656 936.816406 118.140625 929.371094 131.699219 C 921 146.925781 916.757812 162.589844 916.757812 178.246094 C 916.757812 186.085938 916.804688 194.203125 916.878906 202.105469 L 260.941406 202.105469 C 196.492188 202.105469 144.054688 254.539062 144.054688 318.984375 L 144.054688 692.089844 C 144.054688 756.550781 196.492188 808.984375 260.941406 808.984375 L 1020.355469 808.984375 C 1084.800781 808.984375 1137.230469 756.550781 1137.230469 692.089844 L 1137.230469 457.050781 C 1137.230469 456.101562 1137.148438 455.167969 1136.980469 454.269531 C 1141.96875 445.683594 1144.859375 435.71875 1144.90625 425.109375 L 1264.769531 425.109375 C 1278.570312 425.109375 1287.347656 416.164062 1290.945312 407.808594 C 1290.957031 407.796875 1290.957031 407.796875 1290.957031 407.796875 C 1295.441406 397.351562 1293.429688 385.78125 1285.667969 377.589844 "/></g><g clip-rule="nonzero" clip-path="url(#b8aedf095e)"><g clip-rule="nonzero" clip-path="url(#cfe0d8a083)"><path style=" stroke:none;fill-rule:nonzero;fill:#ffffff;fill-opacity:1;" d="M 160.820312 318.246094 L 162.371094 318.246094 L 162.371094 319.796875 L 160.820312 319.796875 Z M 160.820312 318.246094 "/></g></g></g></svg>