<svg xmlns="http://www.w3.org/2000/svg" xmlns:xlink="http://www.w3.org/1999/xlink" width="1920" zoomAndPan="magnify" viewBox="0 0 1440 809.999993" height="1080" preserveAspectRatio="xMidYMid meet" version="1.0"><defs><clipPath id="ecb8fbba72"><path d="M 322.347656 7.820312 L 576 7.820312 L 576 261 L 322.347656 261 Z M 322.347656 7.820312 " clip-rule="nonzero"/></clipPath><clipPath id="5915c213ff"><path d="M 322.347656 278 L 576 278 L 576 532 L 322.347656 532 Z M 322.347656 278 " clip-rule="nonzero"/></clipPath><clipPath id="77ed97863d"><path d="M 322.347656 549 L 576 549 L 576 801.9375 L 322.347656 801.9375 Z M 322.347656 549 " clip-rule="nonzero"/></clipPath><clipPath id="ea40798d31"><path d="M 593 7.820312 L 846 7.820312 L 846 261 L 593 261 Z M 593 7.820312 " clip-rule="nonzero"/></clipPath><clipPath id="3eeef554e1"><path d="M 593 549 L 846 549 L 846 801.9375 L 593 801.9375 Z M 593 549 " clip-rule="nonzero"/></clipPath><clipPath id="ad31e94d27"><path d="M 863 7.820312 L 1116.464844 7.820312 L 1116.464844 261 L 863 261 Z M 863 7.820312 " clip-rule="nonzero"/></clipPath><clipPath id="77cc7b644c"><path d="M 863 278 L 1116.464844 278 L 1116.464844 532 L 863 532 Z M 863 278 " clip-rule="nonzero"/></clipPath><clipPath id="dea5eb5229"><path d="M 863 549 L 1116.464844 549 L 1116.464844 801.9375 L 863 801.9375 Z M 863 549 " clip-rule="nonzero"/></clipPath><clipPath id="27cf0efbb3"><path d="M 346.179688 19.4375 L 347.449219 19.4375 L 347.449219 20.707031 L 346.179688 20.707031 Z M 346.179688 19.4375 " clip-rule="nonzero"/></clipPath></defs><g clip-path="url(#ecb8fbba72)"><path fill="#ffffff" d="M 322.347656 43.917969 C 322.347656 23.980469 338.507812 7.820312 358.441406 7.820312 L 538.925781 7.820312 C 558.859375 7.820312 575.019531 23.980469 575.019531 43.917969 L 575.019531 224.398438 C 575.019531 244.332031 558.859375 260.496094 538.925781 260.496094 L 358.441406 260.496094 C 338.507812 260.496094 322.347656 244.332031 322.347656 224.398438 Z M 394.539062 80.011719 L 394.539062 188.300781 L 502.828125 188.300781 L 502.828125 80.011719 Z M 394.539062 80.011719 " fill-opacity="1" fill-rule="evenodd"/></g><g clip-path="url(#5915c213ff)"><path fill="#ffffff" d="M 322.347656 314.640625 C 322.347656 294.703125 338.507812 278.542969 358.441406 278.542969 L 538.925781 278.542969 C 558.859375 278.542969 575.019531 294.703125 575.019531 314.640625 L 575.019531 495.121094 C 575.019531 515.054688 558.859375 531.214844 538.925781 531.214844 L 358.441406 531.214844 C 338.507812 531.214844 322.347656 515.054688 322.347656 495.121094 Z M 394.539062 350.734375 L 394.539062 459.023438 L 502.828125 459.023438 L 502.828125 350.734375 Z M 394.539062 350.734375 " fill-opacity="1" fill-rule="evenodd"/></g><g clip-path="url(#77ed97863d)"><path fill="#ffffff" d="M 322.347656 585.359375 C 322.347656 565.425781 338.507812 549.265625 358.441406 549.265625 L 538.925781 549.265625 C 558.859375 549.265625 575.019531 565.425781 575.019531 585.359375 L 575.019531 765.84375 C 575.019531 785.777344 558.859375 801.9375 538.925781 801.9375 L 358.441406 801.9375 C 338.507812 801.9375 322.347656 785.777344 322.347656 765.84375 Z M 394.539062 621.457031 L 394.539062 729.746094 L 502.828125 729.746094 L 502.828125 621.457031 Z M 394.539062 621.457031 " fill-opacity="1" fill-rule="evenodd"/></g><g clip-path="url(#ea40798d31)"><path fill="#ffffff" d="M 593.070312 43.917969 C 593.070312 23.980469 609.230469 7.820312 629.164062 7.820312 L 809.644531 7.820312 C 829.582031 7.820312 845.742188 23.980469 845.742188 43.917969 L 845.742188 224.398438 C 845.742188 244.332031 829.582031 260.496094 809.644531 260.496094 L 629.164062 260.496094 C 609.230469 260.496094 593.070312 244.332031 593.070312 224.398438 Z M 665.261719 80.011719 L 665.261719 188.300781 L 773.550781 188.300781 L 773.550781 80.011719 Z M 665.261719 80.011719 " fill-opacity="1" fill-rule="evenodd"/></g><path fill="#ffffff" d="M 593.070312 314.640625 C 593.070312 294.703125 609.230469 278.542969 629.164062 278.542969 L 809.644531 278.542969 C 829.582031 278.542969 845.742188 294.703125 845.742188 314.640625 L 845.742188 495.121094 C 845.742188 515.054688 829.582031 531.214844 809.644531 531.214844 L 629.164062 531.214844 C 609.230469 531.214844 593.070312 515.054688 593.070312 495.121094 Z M 665.261719 350.734375 L 665.261719 459.023438 L 773.550781 459.023438 L 773.550781 350.734375 Z M 665.261719 350.734375 " fill-opacity="1" fill-rule="evenodd"/><g clip-path="url(#3eeef554e1)"><path fill="#ffffff" d="M 593.070312 585.359375 C 593.070312 565.425781 609.230469 549.265625 629.164062 549.265625 L 809.644531 549.265625 C 829.582031 549.265625 845.742188 565.425781 845.742188 585.359375 L 845.742188 765.84375 C 845.742188 785.777344 829.582031 801.9375 809.644531 801.9375 L 629.164062 801.9375 C 609.230469 801.9375 593.070312 785.777344 593.070312 765.84375 Z M 665.261719 621.457031 L 665.261719 729.746094 L 773.550781 729.746094 L 773.550781 621.457031 Z M 665.261719 621.457031 " fill-opacity="1" fill-rule="evenodd"/></g><g clip-path="url(#ad31e94d27)"><path fill="#ffffff" d="M 863.789062 43.917969 C 863.789062 23.980469 879.949219 7.820312 899.886719 7.820312 L 1080.367188 7.820312 C 1100.304688 7.820312 1116.464844 23.980469 1116.464844 43.917969 L 1116.464844 224.398438 C 1116.464844 244.332031 1100.304688 260.496094 1080.367188 260.496094 L 899.886719 260.496094 C 879.949219 260.496094 863.789062 244.332031 863.789062 224.398438 Z M 935.984375 80.011719 L 935.984375 188.300781 L 1044.273438 188.300781 L 1044.273438 80.011719 Z M 935.984375 80.011719 " fill-opacity="1" fill-rule="evenodd"/></g><g clip-path="url(#77cc7b644c)"><path fill="#ffffff" d="M 863.789062 314.640625 C 863.789062 294.703125 879.949219 278.542969 899.886719 278.542969 L 1080.367188 278.542969 C 1100.304688 278.542969 1116.464844 294.703125 1116.464844 314.640625 L 1116.464844 495.121094 C 1116.464844 515.054688 1100.304688 531.214844 1080.367188 531.214844 L 899.886719 531.214844 C 879.949219 531.214844 863.789062 515.054688 863.789062 495.121094 Z M 935.984375 350.734375 L 935.984375 459.023438 L 1044.273438 459.023438 L 1044.273438 350.734375 Z M 935.984375 350.734375 " fill-opacity="1" fill-rule="evenodd"/></g><g clip-path="url(#dea5eb5229)"><path fill="#ffffff" d="M 863.789062 585.359375 C 863.789062 565.425781 879.949219 549.265625 899.886719 549.265625 L 1080.367188 549.265625 C 1100.304688 549.265625 1116.464844 565.425781 1116.464844 585.359375 L 1116.464844 765.84375 C 1116.464844 785.777344 1100.304688 801.9375 1080.367188 801.9375 L 899.886719 801.9375 C 879.949219 801.9375 863.789062 785.777344 863.789062 765.84375 Z M 935.984375 621.457031 L 935.984375 729.746094 L 1044.273438 729.746094 L 1044.273438 621.457031 Z M 935.984375 621.457031 " fill-opacity="1" fill-rule="evenodd"/></g><g clip-path="url(#27cf0efbb3)"><path fill="#ff0000" d="M 347.199219 19.960938 C 347.195312 19.972656 347.183594 19.976562 347.175781 19.980469 C 347.179688 19.988281 347.179688 19.996094 347.175781 20.003906 C 347.175781 20.007812 347.171875 20.015625 347.171875 20.023438 C 347.167969 20.027344 347.167969 20.039062 347.171875 20.042969 C 347.167969 20.042969 347.164062 20.046875 347.160156 20.050781 C 347.160156 20.058594 347.160156 20.0625 347.160156 20.066406 C 347.15625 20.074219 347.15625 20.078125 347.15625 20.082031 C 347.164062 20.085938 347.171875 20.089844 347.175781 20.09375 C 347.175781 20.097656 347.179688 20.097656 347.179688 20.101562 C 347.179688 20.105469 347.179688 20.113281 347.179688 20.117188 C 347.175781 20.121094 347.171875 20.128906 347.167969 20.132812 C 347.171875 20.136719 347.179688 20.140625 347.183594 20.144531 C 347.183594 20.148438 347.183594 20.152344 347.183594 20.15625 C 347.1875 20.171875 347.195312 20.183594 347.191406 20.199219 C 347.191406 20.203125 347.1875 20.203125 347.1875 20.203125 C 347.183594 20.203125 347.179688 20.210938 347.179688 20.214844 C 347.179688 20.21875 347.179688 20.222656 347.179688 20.230469 C 347.175781 20.238281 347.167969 20.246094 347.164062 20.253906 C 347.164062 20.257812 347.167969 20.261719 347.171875 20.265625 C 347.171875 20.273438 347.171875 20.277344 347.171875 20.28125 C 347.167969 20.289062 347.160156 20.292969 347.152344 20.292969 C 347.15625 20.296875 347.160156 20.304688 347.164062 20.308594 C 347.164062 20.316406 347.160156 20.320312 347.164062 20.324219 C 347.164062 20.328125 347.164062 20.332031 347.167969 20.335938 C 347.171875 20.335938 347.171875 20.339844 347.175781 20.34375 C 347.171875 20.351562 347.171875 20.363281 347.175781 20.375 C 347.175781 20.382812 347.179688 20.390625 347.183594 20.402344 C 347.1875 20.414062 347.1875 20.429688 347.183594 20.441406 C 347.167969 20.445312 347.148438 20.445312 347.128906 20.4375 C 347.121094 20.4375 347.117188 20.433594 347.109375 20.429688 C 347.101562 20.429688 347.089844 20.429688 347.085938 20.433594 C 347.082031 20.429688 347.078125 20.425781 347.070312 20.425781 C 347.066406 20.421875 347.058594 20.421875 347.050781 20.421875 C 347.046875 20.417969 347.039062 20.417969 347.035156 20.410156 C 347.035156 20.417969 347.03125 20.425781 347.027344 20.429688 C 347.023438 20.429688 347.023438 20.433594 347.019531 20.433594 C 347.019531 20.433594 347.015625 20.433594 347.015625 20.433594 C 347.007812 20.429688 347 20.425781 346.996094 20.421875 C 346.992188 20.421875 346.988281 20.425781 346.988281 20.425781 C 346.984375 20.429688 346.984375 20.433594 346.980469 20.433594 C 346.972656 20.4375 346.960938 20.433594 346.953125 20.4375 C 346.949219 20.441406 346.941406 20.445312 346.9375 20.453125 C 346.9375 20.449219 346.933594 20.449219 346.929688 20.449219 C 346.925781 20.449219 346.921875 20.449219 346.921875 20.449219 C 346.917969 20.449219 346.914062 20.445312 346.90625 20.445312 C 346.902344 20.441406 346.894531 20.441406 346.890625 20.441406 C 346.882812 20.4375 346.875 20.433594 346.871094 20.429688 C 346.863281 20.433594 346.863281 20.433594 346.855469 20.4375 C 346.851562 20.4375 346.847656 20.4375 346.84375 20.4375 C 346.84375 20.4375 346.839844 20.4375 346.835938 20.433594 C 346.832031 20.429688 346.828125 20.421875 346.824219 20.414062 C 346.816406 20.417969 346.804688 20.414062 346.796875 20.417969 C 346.792969 20.417969 346.785156 20.425781 346.785156 20.429688 C 346.777344 20.425781 346.773438 20.425781 346.765625 20.429688 C 346.761719 20.429688 346.753906 20.433594 346.75 20.4375 C 346.742188 20.4375 346.730469 20.4375 346.722656 20.433594 L 346.726562 20.433594 C 346.722656 20.445312 346.714844 20.453125 346.703125 20.457031 C 346.699219 20.460938 346.699219 20.460938 346.695312 20.460938 C 346.691406 20.460938 346.691406 20.457031 346.6875 20.457031 C 346.679688 20.449219 346.671875 20.445312 346.667969 20.433594 C 346.660156 20.4375 346.648438 20.4375 346.640625 20.433594 C 346.636719 20.433594 346.632812 20.429688 346.628906 20.429688 C 346.621094 20.425781 346.613281 20.425781 346.609375 20.433594 C 346.605469 20.425781 346.601562 20.421875 346.597656 20.421875 C 346.59375 20.417969 346.585938 20.417969 346.582031 20.417969 C 346.574219 20.417969 346.570312 20.414062 346.566406 20.414062 C 346.566406 20.421875 346.5625 20.425781 346.554688 20.433594 C 346.554688 20.433594 346.550781 20.4375 346.546875 20.4375 C 346.546875 20.4375 346.542969 20.4375 346.542969 20.4375 C 346.535156 20.433594 346.527344 20.433594 346.523438 20.429688 C 346.511719 20.429688 346.507812 20.441406 346.496094 20.445312 C 346.492188 20.445312 346.488281 20.445312 346.480469 20.445312 C 346.476562 20.445312 346.476562 20.449219 346.472656 20.449219 C 346.464844 20.449219 346.457031 20.449219 346.453125 20.453125 C 346.449219 20.445312 346.441406 20.441406 346.433594 20.4375 C 346.429688 20.4375 346.425781 20.4375 346.421875 20.4375 C 346.414062 20.433594 346.402344 20.429688 346.398438 20.421875 C 346.394531 20.425781 346.394531 20.425781 346.390625 20.429688 C 346.386719 20.429688 346.378906 20.433594 346.375 20.429688 C 346.371094 20.429688 346.367188 20.429688 346.363281 20.425781 C 346.359375 20.421875 346.359375 20.414062 346.355469 20.410156 C 346.351562 20.417969 346.347656 20.421875 346.339844 20.421875 C 346.335938 20.421875 346.328125 20.421875 346.324219 20.421875 C 346.316406 20.421875 346.308594 20.429688 346.308594 20.433594 C 346.300781 20.429688 346.292969 20.429688 346.285156 20.429688 C 346.273438 20.433594 346.261719 20.4375 346.25 20.441406 C 346.238281 20.445312 346.21875 20.445312 346.207031 20.441406 C 346.203125 20.429688 346.203125 20.414062 346.207031 20.402344 C 346.210938 20.390625 346.214844 20.382812 346.21875 20.375 C 346.21875 20.363281 346.222656 20.351562 346.214844 20.34375 C 346.21875 20.339844 346.222656 20.335938 346.222656 20.335938 C 346.226562 20.332031 346.230469 20.328125 346.230469 20.324219 C 346.230469 20.320312 346.226562 20.316406 346.230469 20.308594 C 346.230469 20.304688 346.234375 20.296875 346.238281 20.292969 C 346.234375 20.292969 346.226562 20.289062 346.222656 20.285156 C 346.21875 20.277344 346.21875 20.273438 346.21875 20.265625 C 346.222656 20.261719 346.226562 20.257812 346.230469 20.253906 C 346.222656 20.246094 346.214844 20.238281 346.214844 20.230469 C 346.210938 20.222656 346.210938 20.21875 346.210938 20.214844 C 346.210938 20.210938 346.207031 20.203125 346.203125 20.203125 C 346.203125 20.203125 346.203125 20.203125 346.199219 20.199219 C 346.199219 20.183594 346.207031 20.171875 346.207031 20.15625 C 346.207031 20.152344 346.207031 20.148438 346.207031 20.144531 C 346.210938 20.140625 346.21875 20.136719 346.222656 20.132812 C 346.21875 20.128906 346.214844 20.121094 346.214844 20.117188 C 346.210938 20.113281 346.210938 20.105469 346.210938 20.101562 C 346.214844 20.097656 346.214844 20.097656 346.214844 20.09375 C 346.222656 20.089844 346.230469 20.085938 346.238281 20.082031 C 346.234375 20.078125 346.234375 20.074219 346.234375 20.066406 C 346.234375 20.0625 346.234375 20.058594 346.230469 20.050781 C 346.226562 20.046875 346.222656 20.042969 346.21875 20.042969 C 346.222656 20.039062 346.222656 20.027344 346.222656 20.023438 C 346.21875 20.015625 346.214844 20.007812 346.214844 20.003906 C 346.210938 19.996094 346.210938 19.988281 346.214844 19.984375 C 346.207031 19.976562 346.199219 19.972656 346.191406 19.964844 C 346.191406 19.960938 346.1875 19.957031 346.1875 19.953125 C 346.191406 19.949219 346.191406 19.945312 346.195312 19.945312 C 346.195312 19.941406 346.199219 19.9375 346.203125 19.933594 C 346.207031 19.929688 346.210938 19.929688 346.210938 19.925781 C 346.214844 19.925781 346.214844 19.921875 346.214844 19.917969 C 346.214844 19.910156 346.214844 19.90625 346.214844 19.902344 C 346.214844 19.894531 346.222656 19.890625 346.222656 19.882812 C 346.222656 19.878906 346.222656 19.871094 346.21875 19.867188 C 346.222656 19.863281 346.226562 19.863281 346.226562 19.859375 C 346.230469 19.859375 346.230469 19.855469 346.230469 19.851562 C 346.234375 19.84375 346.234375 19.835938 346.234375 19.828125 C 346.234375 19.824219 346.234375 19.824219 346.234375 19.824219 C 346.234375 19.824219 346.230469 19.824219 346.230469 19.824219 C 346.222656 19.820312 346.214844 19.8125 346.210938 19.804688 C 346.210938 19.792969 346.214844 19.785156 346.222656 19.777344 C 346.214844 19.773438 346.210938 19.765625 346.207031 19.757812 C 346.207031 19.75 346.203125 19.742188 346.203125 19.734375 C 346.203125 19.726562 346.199219 19.71875 346.195312 19.710938 C 346.203125 19.707031 346.210938 19.699219 346.210938 19.691406 C 346.214844 19.6875 346.214844 19.683594 346.214844 19.675781 C 346.214844 19.667969 346.222656 19.660156 346.230469 19.65625 C 346.226562 19.652344 346.222656 19.648438 346.21875 19.640625 C 346.21875 19.636719 346.21875 19.628906 346.222656 19.625 C 346.226562 19.621094 346.234375 19.617188 346.238281 19.617188 C 346.238281 19.613281 346.238281 19.613281 346.234375 19.609375 C 346.230469 19.605469 346.230469 19.601562 346.230469 19.59375 C 346.226562 19.589844 346.226562 19.585938 346.226562 19.578125 C 346.226562 19.578125 346.226562 19.570312 346.222656 19.570312 C 346.21875 19.570312 346.21875 19.566406 346.214844 19.566406 C 346.214844 19.566406 346.214844 19.5625 346.21875 19.5625 C 346.21875 19.5625 346.21875 19.558594 346.21875 19.558594 C 346.21875 19.542969 346.214844 19.53125 346.210938 19.519531 C 346.207031 19.5 346.203125 19.484375 346.207031 19.464844 C 346.21875 19.460938 346.238281 19.464844 346.25 19.46875 C 346.261719 19.46875 346.273438 19.476562 346.285156 19.476562 C 346.292969 19.476562 346.300781 19.476562 346.308594 19.472656 C 346.308594 19.480469 346.316406 19.484375 346.324219 19.488281 C 346.328125 19.488281 346.335938 19.488281 346.339844 19.488281 C 346.347656 19.488281 346.351562 19.492188 346.355469 19.496094 C 346.359375 19.492188 346.359375 19.488281 346.363281 19.484375 C 346.367188 19.480469 346.371094 19.476562 346.375 19.476562 C 346.378906 19.476562 346.386719 19.476562 346.390625 19.480469 C 346.394531 19.484375 346.394531 19.484375 346.398438 19.488281 C 346.402344 19.480469 346.414062 19.472656 346.421875 19.472656 C 346.425781 19.472656 346.429688 19.46875 346.433594 19.46875 C 346.441406 19.46875 346.449219 19.460938 346.453125 19.453125 C 346.457031 19.457031 346.464844 19.457031 346.472656 19.460938 C 346.476562 19.460938 346.476562 19.460938 346.480469 19.464844 C 346.488281 19.464844 346.492188 19.464844 346.496094 19.464844 C 346.507812 19.464844 346.511719 19.476562 346.523438 19.480469 C 346.527344 19.476562 346.535156 19.472656 346.542969 19.46875 C 346.542969 19.46875 346.546875 19.46875 346.546875 19.46875 C 346.550781 19.46875 346.554688 19.472656 346.554688 19.476562 C 346.5625 19.480469 346.566406 19.488281 346.566406 19.496094 C 346.570312 19.492188 346.578125 19.492188 346.582031 19.492188 C 346.585938 19.492188 346.59375 19.488281 346.597656 19.488281 C 346.601562 19.484375 346.605469 19.480469 346.609375 19.476562 C 346.613281 19.480469 346.621094 19.484375 346.628906 19.480469 C 346.632812 19.476562 346.636719 19.476562 346.640625 19.472656 C 346.648438 19.46875 346.660156 19.472656 346.667969 19.472656 C 346.671875 19.464844 346.679688 19.457031 346.6875 19.453125 C 346.691406 19.449219 346.691406 19.449219 346.695312 19.449219 C 346.699219 19.449219 346.699219 19.449219 346.703125 19.449219 C 346.714844 19.453125 346.722656 19.464844 346.726562 19.476562 L 346.726562 19.472656 C 346.730469 19.46875 346.742188 19.46875 346.75 19.472656 C 346.753906 19.472656 346.761719 19.476562 346.765625 19.480469 C 346.773438 19.480469 346.777344 19.480469 346.785156 19.476562 C 346.785156 19.484375 346.792969 19.488281 346.796875 19.492188 C 346.804688 19.492188 346.816406 19.488281 346.824219 19.496094 C 346.828125 19.488281 346.832031 19.480469 346.839844 19.472656 C 346.839844 19.472656 346.84375 19.46875 346.84375 19.46875 C 346.847656 19.46875 346.851562 19.46875 346.855469 19.472656 C 346.863281 19.472656 346.863281 19.476562 346.871094 19.480469 C 346.875 19.476562 346.882812 19.46875 346.890625 19.46875 C 346.894531 19.464844 346.902344 19.464844 346.90625 19.464844 C 346.914062 19.460938 346.917969 19.460938 346.921875 19.457031 C 346.921875 19.457031 346.925781 19.457031 346.929688 19.457031 C 346.933594 19.457031 346.9375 19.457031 346.9375 19.453125 C 346.941406 19.460938 346.949219 19.46875 346.953125 19.46875 C 346.960938 19.472656 346.972656 19.46875 346.980469 19.472656 C 346.984375 19.476562 346.984375 19.480469 346.988281 19.480469 C 346.988281 19.484375 346.992188 19.484375 346.996094 19.484375 C 347 19.480469 347.007812 19.476562 347.015625 19.476562 C 347.015625 19.476562 347.019531 19.472656 347.019531 19.472656 C 347.023438 19.472656 347.023438 19.476562 347.027344 19.476562 C 347.03125 19.484375 347.035156 19.488281 347.035156 19.496094 C 347.039062 19.492188 347.046875 19.488281 347.050781 19.488281 C 347.058594 19.488281 347.066406 19.488281 347.070312 19.484375 C 347.078125 19.480469 347.082031 19.476562 347.085938 19.472656 C 347.089844 19.476562 347.101562 19.476562 347.109375 19.476562 C 347.117188 19.476562 347.121094 19.472656 347.128906 19.46875 C 347.148438 19.464844 347.167969 19.460938 347.183594 19.464844 C 347.1875 19.484375 347.1875 19.5 347.179688 19.519531 C 347.175781 19.53125 347.171875 19.542969 347.171875 19.558594 C 347.171875 19.558594 347.175781 19.5625 347.175781 19.5625 C 347.175781 19.5625 347.175781 19.566406 347.175781 19.566406 C 347.175781 19.566406 347.171875 19.570312 347.167969 19.570312 C 347.167969 19.570312 347.164062 19.578125 347.164062 19.578125 C 347.164062 19.585938 347.164062 19.589844 347.164062 19.59375 C 347.160156 19.601562 347.160156 19.605469 347.15625 19.609375 C 347.15625 19.613281 347.15625 19.613281 347.152344 19.613281 C 347.160156 19.617188 347.167969 19.621094 347.171875 19.625 C 347.171875 19.628906 347.171875 19.636719 347.171875 19.640625 C 347.171875 19.648438 347.167969 19.652344 347.164062 19.65625 C 347.171875 19.660156 347.175781 19.667969 347.175781 19.675781 C 347.179688 19.683594 347.179688 19.6875 347.179688 19.691406 C 347.183594 19.699219 347.1875 19.707031 347.195312 19.710938 C 347.191406 19.71875 347.191406 19.726562 347.1875 19.734375 C 347.1875 19.742188 347.1875 19.75 347.183594 19.757812 C 347.179688 19.765625 347.175781 19.773438 347.167969 19.777344 C 347.175781 19.785156 347.183594 19.792969 347.179688 19.804688 C 347.179688 19.8125 347.171875 19.820312 347.160156 19.824219 C 347.160156 19.824219 347.15625 19.824219 347.15625 19.824219 C 347.15625 19.824219 347.15625 19.824219 347.15625 19.828125 C 347.15625 19.835938 347.160156 19.84375 347.160156 19.851562 C 347.160156 19.855469 347.164062 19.859375 347.164062 19.859375 C 347.167969 19.863281 347.171875 19.863281 347.171875 19.867188 C 347.167969 19.871094 347.167969 19.878906 347.167969 19.882812 C 347.171875 19.890625 347.175781 19.894531 347.175781 19.902344 C 347.179688 19.90625 347.179688 19.910156 347.179688 19.917969 C 347.175781 19.921875 347.179688 19.925781 347.179688 19.925781 C 347.183594 19.929688 347.183594 19.929688 347.1875 19.933594 C 347.191406 19.9375 347.195312 19.941406 347.199219 19.945312 C 347.199219 19.945312 347.203125 19.949219 347.203125 19.953125 C 347.203125 19.957031 347.203125 19.960938 347.199219 19.960938 Z M 347.199219 19.960938 " fill-opacity="1" fill-rule="nonzero"/><path fill="#ffffff" d="M 346.179688 19.4375 L 347.210938 19.4375 L 347.210938 20.46875 L 346.179688 20.46875 Z M 346.179688 19.4375 " fill-opacity="1" fill-rule="nonzero"/></g></svg>