<svg xmlns="http://www.w3.org/2000/svg" fill="white" viewBox="0 0 24 24"><path d="M19.43 12.98l1.77-1.03-1.23-2.13-2.06.37c-.2-.14-.4-.27-.62-.39L17 6.3V4h-2l-.45 2.07c-.29-.04-.59-.07-.9-.07-.31 0-.61.03-.9.07L11 4H9v2.3l.71 1.49c-.22.12-.42.25-.62.39l-2.06-.37-1.23 2.13 1.77 1.03c-.04.31-.07.61-.07.94s.03.63.07.94l-1.77 1.03 1.23 2.13 2.06-.37c.2.14.4.27.62.39L9 17.7V20h2l.45-2.07c.29.04.59.07.9.07.31 0 .61-.03.9-.07L15 20h2v-2.3l-.71-1.49c.22-.12.42-.25.62-.39l2.06.37 1.23-2.13-1.77-1.03c.04-.31.07-.61.07-.94s-.03-.63-.07-.94zM12 15.5c-1.93 0-3.5-1.57-3.5-3.5s1.57-3.5 3.5-3.5 3.5 1.57 3.5 3.5-1.57 3.5-3.5 3.5z"/></svg>