<svg xmlns="http://www.w3.org/2000/svg" xmlns:xlink="http://www.w3.org/1999/xlink" width="1920" zoomAndPan="magnify" viewBox="0 0 1440 809.999993" height="1080" preserveAspectRatio="xMidYMid meet" version="1.0"><defs><clipPath id="3bcbdaca41"><path d="M 340.417969 15 L 1098.960938 15 L 1098.960938 801.804688 L 340.417969 801.804688 Z M 340.417969 15 " clip-rule="nonzero"/></clipPath><clipPath id="b3e8bb17ea"><path d="M 608.996094 434.796875 L 624.242188 434.796875 L 624.242188 450.042969 L 608.996094 450.042969 Z M 608.996094 434.796875 " clip-rule="nonzero"/></clipPath><clipPath id="5fc83ecca1"><path d="M 616.621094 434.796875 C 612.410156 434.796875 608.996094 438.207031 608.996094 442.417969 C 608.996094 446.628906 612.410156 450.042969 616.621094 450.042969 C 620.832031 450.042969 624.242188 446.628906 624.242188 442.417969 C 624.242188 438.207031 620.832031 434.796875 616.621094 434.796875 Z M 616.621094 434.796875 " clip-rule="nonzero"/></clipPath></defs><g clip-path="url(#3bcbdaca41)"><path fill="#ffffff" d="M 1065.890625 81.503906 L 961.40625 81.503906 C 957.089844 58.078125 936.59375 40.203125 911.9375 40.203125 L 895.757812 40.203125 C 877.878906 7.6875 827.949219 7.6875 809.917969 40.203125 L 793.738281 40.203125 C 769.078125 40.203125 748.429688 58.078125 744.269531 81.503906 L 639.78125 81.503906 C 622.058594 81.503906 607.574219 96.605469 607.574219 115.097656 L 607.574219 422.851562 C 598.019531 417.304688 543.15625 385.710938 532.371094 379.394531 C 528.515625 377.238281 523.894531 377.238281 520.042969 379.394531 L 346.976562 479.257812 C 343.125 481.414062 340.8125 485.574219 340.8125 489.890625 L 340.8125 689.613281 C 340.8125 694.082031 343.125 698.089844 346.976562 700.246094 L 519.886719 800.109375 C 521.734375 801.1875 523.894531 801.804688 526.050781 801.804688 C 528.207031 801.804688 530.367188 801.1875 532.214844 800.109375 L 616.511719 751.410156 C 622.367188 757.730469 630.691406 761.425781 639.628906 761.425781 L 1065.890625 761.425781 C 1083.765625 761.425781 1098.253906 746.480469 1098.253906 727.984375 L 1098.253906 115.097656 C 1098.40625 96.605469 1083.765625 81.503906 1065.890625 81.503906 Z M 793.738281 64.859375 L 817.777344 64.859375 C 823.015625 64.859375 827.640625 61.625 829.335938 56.691406 C 833.035156 46.675781 842.28125 40.046875 852.914062 40.046875 C 863.546875 40.046875 872.792969 46.519531 876.492188 56.691406 C 878.339844 61.625 882.964844 64.859375 888.050781 64.859375 L 912.089844 64.859375 C 926.269531 64.859375 937.671875 76.265625 937.671875 90.441406 L 937.671875 126.8125 L 768.15625 126.8125 C 768.15625 125.269531 768.15625 90.597656 768.15625 90.441406 C 768.15625 76.417969 779.710938 64.859375 793.738281 64.859375 Z M 1031.0625 151.46875 L 1031.0625 691.460938 L 711.289062 691.460938 C 711.75 688.84375 711.289062 492.355469 711.441406 489.890625 C 711.441406 485.421875 709.132812 481.414062 705.277344 479.257812 L 674.917969 461.6875 L 674.917969 151.46875 Z M 632.230469 115.097656 C 632.230469 110.167969 635.621094 106.160156 639.78125 106.160156 L 743.496094 106.160156 L 743.496094 126.8125 L 669.0625 126.8125 C 658.738281 126.8125 650.261719 135.441406 650.261719 146.074219 L 650.261719 447.511719 C 646.5625 445.351562 635.777344 439.1875 632.230469 437.183594 Z M 596.632812 445.042969 C 564.730469 465.386719 487.0625 515.316406 456.085938 535.042969 L 446.53125 529.496094 L 587.078125 439.496094 Z M 526.207031 404.359375 L 563.191406 425.78125 L 422.644531 515.78125 L 377.953125 490.042969 Z M 444.527344 556.925781 L 444.527344 605.46875 L 434.664062 599.769531 L 434.664062 551.222656 Z M 513.875 768.054688 L 365.625 682.523438 L 365.625 511.3125 L 410.164062 537.046875 L 410.164062 607.011719 C 410.164062 611.480469 412.472656 615.488281 416.328125 617.644531 L 450.847656 637.523438 C 458.707031 642.300781 469.648438 635.984375 469.339844 626.890625 C 469.339844 626.890625 469.339844 571.257812 469.339844 571.257812 L 513.875 596.996094 Z M 526.207031 575.574219 C 518.652344 571.257812 487.214844 553.074219 480.28125 549.066406 L 620.671875 459.066406 C 629.304688 464 647.640625 474.632812 656.273438 479.71875 C 656.273438 479.71875 674.304688 490.042969 674.304688 490.042969 Z M 538.535156 768.054688 L 538.535156 596.839844 C 558.722656 585.128906 664.285156 524.253906 686.785156 511.3125 L 686.785156 682.523438 C 649.953125 703.636719 575.980469 746.480469 538.535156 768.054688 Z M 1073.75 727.984375 C 1073.75 732.761719 1070.207031 736.769531 1066.046875 736.769531 L 641.941406 736.769531 L 644.558594 735.230469 L 677.691406 716.121094 L 1036.765625 716.121094 C 1047.089844 716.121094 1055.566406 707.488281 1055.566406 697.011719 L 1055.566406 146.074219 C 1055.566406 135.441406 1047.089844 126.8125 1036.765625 126.8125 L 962.175781 126.8125 L 962.175781 106.160156 L 1065.738281 106.160156 C 1069.898438 106.160156 1073.441406 110.167969 1073.441406 115.097656 L 1073.441406 727.984375 Z M 831.183594 241.777344 L 937.058594 241.777344 C 943.835938 241.777344 949.386719 247.324219 949.386719 254.105469 C 949.386719 260.886719 943.835938 266.433594 937.058594 266.433594 L 831.183594 266.433594 C 824.402344 266.433594 818.855469 260.886719 818.855469 254.105469 C 818.855469 247.324219 824.402344 241.777344 831.183594 241.777344 Z M 831.183594 283.230469 L 980.054688 283.230469 C 986.832031 283.230469 992.382812 288.777344 992.382812 295.558594 C 992.382812 302.339844 986.832031 307.886719 980.054688 307.886719 L 831.183594 307.886719 C 824.402344 307.886719 818.855469 302.339844 818.855469 295.558594 C 818.855469 288.777344 824.402344 283.230469 831.183594 283.230469 Z M 831.183594 388.332031 L 937.058594 388.332031 C 943.835938 388.332031 949.386719 393.878906 949.386719 400.660156 C 949.386719 407.441406 943.835938 412.988281 937.058594 412.988281 L 831.183594 412.988281 C 824.402344 412.988281 818.855469 407.441406 818.855469 400.660156 C 818.855469 393.878906 824.402344 388.332031 831.183594 388.332031 Z M 980.054688 454.597656 L 831.183594 454.597656 C 824.402344 454.597656 818.855469 449.050781 818.855469 442.269531 C 818.855469 435.488281 824.402344 429.941406 831.183594 429.941406 L 980.054688 429.941406 C 996.386719 430.25 996.234375 454.445312 980.054688 454.597656 Z M 700.347656 252.5625 C 700.347656 253.027344 700.191406 253.335938 700.191406 253.796875 L 700.191406 295.867188 C 700.191406 310.664062 712.214844 322.683594 727.007812 322.683594 L 769.078125 322.683594 C 783.875 322.683594 795.894531 310.664062 795.894531 295.867188 L 795.894531 253.796875 C 795.894531 253.179688 795.738281 252.5625 795.738281 251.945312 L 832.417969 215.269531 C 843.667969 203.558594 826.5625 186.605469 815.003906 197.855469 C 815.003906 197.855469 782.179688 230.679688 782.179688 230.679688 C 778.324219 228.523438 773.855469 227.136719 769.078125 227.136719 L 727.007812 227.136719 C 721.613281 227.136719 716.683594 228.675781 712.523438 231.449219 C 699.421875 226.058594 689.25 243.625 700.347656 252.5625 Z M 761.066406 251.640625 L 747.660156 265.046875 L 734.25 251.640625 Z M 724.851562 277.222656 C 731.632812 283.078125 740.105469 295.558594 747.660156 294.941406 C 750.894531 294.941406 754.128906 293.710938 756.441406 291.398438 L 771.238281 276.605469 L 771.238281 296.175781 C 771.238281 297.410156 770.3125 298.332031 769.078125 298.332031 L 727.007812 298.332031 C 725.773438 298.332031 724.851562 297.410156 724.851562 296.175781 Z M 832.570312 360.746094 C 843.820312 349.035156 826.714844 332.082031 815.15625 343.332031 C 815.15625 343.332031 781.714844 376.773438 781.714844 376.773438 C 778.015625 374.769531 773.855469 373.539062 769.234375 373.539062 L 727.160156 373.539062 C 722.230469 373.539062 717.605469 374.925781 713.601562 377.390625 C 700.191406 370.765625 689.097656 388.792969 700.65625 398.195312 C 700.65625 398.964844 700.5 399.582031 700.5 400.351562 L 700.5 442.425781 C 700.5 457.21875 712.523438 469.238281 727.316406 469.238281 L 769.386719 469.238281 C 784.183594 469.238281 796.203125 457.21875 796.203125 442.425781 L 796.203125 400.351562 C 796.203125 399.429688 796.046875 398.503906 795.894531 397.425781 Z M 759.988281 398.347656 L 747.660156 410.679688 L 735.328125 398.347656 Z M 771.238281 442.578125 C 771.238281 443.8125 770.3125 444.734375 769.078125 444.734375 L 727.007812 444.734375 C 725.773438 444.734375 724.851562 443.8125 724.851562 442.578125 L 724.851562 422.851562 C 731.632812 428.707031 740.105469 441.191406 747.660156 440.574219 C 750.894531 440.574219 754.128906 439.34375 756.441406 437.03125 L 771.238281 422.234375 Z M 771.238281 442.578125 " fill-opacity="1" fill-rule="nonzero"/></g><g clip-path="url(#b3e8bb17ea)"><g clip-path="url(#5fc83ecca1)"><path fill="#ffffff" d="M 608.996094 434.796875 L 624.242188 434.796875 L 624.242188 450.042969 L 608.996094 450.042969 Z M 608.996094 434.796875 " fill-opacity="1" fill-rule="nonzero"/></g></g></svg>