<svg xmlns="http://www.w3.org/2000/svg" xmlns:xlink="http://www.w3.org/1999/xlink" width="1920" zoomAndPan="magnify" viewBox="0 0 1440 809.999993" height="1080" preserveAspectRatio="xMidYMid meet" version="1.0"><defs><clipPath id="8878225652"><path d="M 252.746094 7.78125 L 1179 7.78125 L 1179 801.898438 L 252.746094 801.898438 Z M 252.746094 7.78125 " clip-rule="nonzero"/></clipPath><clipPath id="45d04b9ec1"><path d="M 603.75 404.839844 L 618.996094 404.839844 L 618.996094 420.089844 L 603.75 420.089844 Z M 603.75 404.839844 " clip-rule="nonzero"/></clipPath><clipPath id="6e701722a0"><path d="M 611.375 404.839844 C 607.164062 404.839844 603.75 408.253906 603.75 412.464844 C 603.75 416.675781 607.164062 420.089844 611.375 420.089844 C 615.582031 420.089844 618.996094 416.675781 618.996094 412.464844 C 618.996094 408.253906 615.582031 404.839844 611.375 404.839844 Z M 611.375 404.839844 " clip-rule="nonzero"/></clipPath></defs><path fill="#ffffff" d="M 470.441406 288.253906 L 788.546875 288.253906 L 788.546875 320.488281 L 470.441406 320.488281 Z M 470.441406 288.253906 " fill-opacity="1" fill-rule="nonzero"/><path fill="#ffffff" d="M 381.089844 288.253906 L 429.34375 288.253906 L 429.34375 320.488281 L 381.089844 320.488281 Z M 381.089844 288.253906 " fill-opacity="1" fill-rule="nonzero"/><path fill="#ffffff" d="M 514.558594 189.042969 L 788.542969 189.042969 L 788.542969 221.277344 L 514.558594 221.277344 Z M 514.558594 189.042969 " fill-opacity="1" fill-rule="nonzero"/><path fill="#ffffff" d="M 470.441406 391.515625 L 788.546875 391.515625 L 788.546875 423.75 L 470.441406 423.75 Z M 470.441406 391.515625 " fill-opacity="1" fill-rule="nonzero"/><path fill="#ffffff" d="M 381.089844 391.515625 L 429.34375 391.515625 L 429.34375 423.75 L 381.089844 423.75 Z M 381.089844 391.515625 " fill-opacity="1" fill-rule="nonzero"/><path fill="#ffffff" d="M 470.441406 494.777344 L 788.546875 494.777344 L 788.546875 527.011719 L 470.441406 527.011719 Z M 470.441406 494.777344 " fill-opacity="1" fill-rule="nonzero"/><path fill="#ffffff" d="M 381.089844 494.777344 L 429.34375 494.777344 L 429.34375 527.011719 L 381.089844 527.011719 Z M 381.089844 494.777344 " fill-opacity="1" fill-rule="nonzero"/><path fill="#ffffff" d="M 470.441406 598.035156 L 788.546875 598.035156 L 788.546875 630.265625 L 470.441406 630.265625 Z M 470.441406 598.035156 " fill-opacity="1" fill-rule="nonzero"/><path fill="#ffffff" d="M 381.089844 598.035156 L 429.34375 598.035156 L 429.34375 630.265625 L 381.089844 630.265625 Z M 381.089844 598.035156 " fill-opacity="1" fill-rule="nonzero"/><g clip-path="url(#8878225652)"><path fill="#ffffff" d="M 1149.511719 141.257812 C 1119.851562 121.15625 1079.367188 128.933594 1059.269531 158.59375 L 1031.855469 199.039062 L 916.839844 368.746094 L 916.839844 74.519531 C 916.839844 37.71875 886.902344 7.78125 850.097656 7.78125 L 422.109375 7.78125 C 417.835938 7.78125 413.738281 9.476562 410.714844 12.5 L 257.511719 165.703125 C 254.488281 168.726562 252.789062 172.824219 252.789062 177.101562 L 252.789062 735.164062 C 252.789062 771.964844 282.730469 801.90625 319.53125 801.90625 L 850.097656 801.90625 C 886.902344 801.90625 916.839844 771.964844 916.839844 735.164062 L 916.839844 589.472656 L 919.359375 588.25 C 923.410156 587.472656 927.164062 585.152344 929.664062 581.46875 L 1139.433594 271.949219 L 1166.847656 231.5 C 1186.949219 201.839844 1179.171875 161.355469 1149.511719 141.257812 Z M 850.023438 546.960938 L 883.640625 569.746094 L 847.097656 587.46875 Z M 912.210938 549.761719 L 858 513.019531 L 1049.496094 230.464844 L 1076.601562 248.832031 L 1103.710938 267.203125 Z M 413.226562 55.574219 L 413.226562 164.0625 L 304.734375 164.0625 Z M 884.605469 735.160156 C 884.605469 754.1875 869.125 769.667969 850.097656 769.667969 L 319.535156 769.667969 C 300.507812 769.667969 285.027344 754.1875 285.027344 735.160156 L 285.027344 196.296875 L 429.339844 196.296875 C 438.242188 196.296875 445.460938 189.082031 445.460938 180.179688 L 445.460938 40.011719 L 850.101562 40.011719 C 869.128906 40.011719 884.609375 55.492188 884.609375 74.519531 L 884.609375 413.089844 C 884.609375 414.058594 884.699219 415.007812 884.863281 415.929688 L 822.089844 508.554688 C 819.589844 512.246094 818.824219 516.597656 819.605469 520.652344 L 812.945312 612.992188 C 812.53125 618.734375 815.210938 624.265625 819.976562 627.492188 C 822.695312 629.335938 825.847656 630.269531 829.019531 630.269531 C 831.417969 630.269531 833.824219 629.738281 836.054688 628.652344 L 884.609375 605.101562 L 884.609375 735.160156 Z M 1140.164062 213.417969 L 1121.796875 240.523438 L 1067.582031 203.78125 L 1085.953125 176.675781 C 1090.859375 169.4375 1098.292969 164.539062 1106.882812 162.886719 C 1115.46875 161.238281 1124.1875 163.03125 1131.429688 167.9375 C 1138.671875 172.84375 1143.566406 180.28125 1145.21875 188.871094 C 1146.867188 197.457031 1145.070312 206.175781 1140.164062 213.417969 Z M 1140.164062 213.417969 " fill-opacity="1" fill-rule="nonzero"/></g><g clip-path="url(#45d04b9ec1)"><g clip-path="url(#6e701722a0)"><path fill="#ffffff" d="M 603.75 404.839844 L 618.996094 404.839844 L 618.996094 420.089844 L 603.75 420.089844 Z M 603.75 404.839844 " fill-opacity="1" fill-rule="nonzero"/></g></g></svg>