<svg xmlns="http://www.w3.org/2000/svg" xmlns:xlink="http://www.w3.org/1999/xlink" width="1920" zoomAndPan="magnify" viewBox="0 0 1440 809.999993" height="1080" preserveAspectRatio="xMidYMid meet" version="1.0"><defs><clipPath id="aebfd7d9bf"><path d="M 599.25 224.839844 L 614.496094 224.839844 L 614.496094 240.089844 L 599.25 240.089844 Z M 599.25 224.839844 " clip-rule="nonzero"/></clipPath><clipPath id="f0bd1dc263"><path d="M 606.875 224.839844 C 602.664062 224.839844 599.25 228.253906 599.25 232.464844 C 599.25 236.675781 602.664062 240.089844 606.875 240.089844 C 611.082031 240.089844 614.496094 236.675781 614.496094 232.464844 C 614.496094 228.253906 611.082031 224.839844 606.875 224.839844 Z M 606.875 224.839844 " clip-rule="nonzero"/></clipPath><clipPath id="ef5b3253a5"><path d="M 322.679688 19 L 1116.796875 19 L 1116.796875 798 L 322.679688 798 Z M 322.679688 19 " clip-rule="nonzero"/></clipPath><clipPath id="b5a9213ec6"><path d="M 510.28125 157.386719 L 525.527344 157.386719 L 525.527344 172.636719 L 510.28125 172.636719 Z M 510.28125 157.386719 " clip-rule="nonzero"/></clipPath><clipPath id="78b59cdd4d"><path d="M 517.90625 157.386719 C 513.695312 157.386719 510.28125 160.800781 510.28125 165.011719 C 510.28125 169.222656 513.695312 172.636719 517.90625 172.636719 C 522.113281 172.636719 525.527344 169.222656 525.527344 165.011719 C 525.527344 160.800781 522.113281 157.386719 517.90625 157.386719 Z M 517.90625 157.386719 " clip-rule="nonzero"/></clipPath></defs><g clip-path="url(#aebfd7d9bf)"><g clip-path="url(#f0bd1dc263)"><path fill="#ffffff" d="M 599.25 224.839844 L 614.496094 224.839844 L 614.496094 240.089844 L 599.25 240.089844 Z M 599.25 224.839844 " fill-opacity="1" fill-rule="nonzero"/></g></g><g clip-path="url(#ef5b3253a5)"><path fill="#ffffff" d="M 741.761719 105.703125 C 728.425781 96.8125 711.050781 96.8125 697.714844 105.703125 L 419.773438 290.996094 C 408.726562 298.359375 402.089844 310.757812 402.089844 324.035156 L 402.089844 678.59375 C 402.089844 700.523438 419.867188 718.300781 441.796875 718.300781 L 560.914062 718.300781 L 560.914062 559.476562 C 560.914062 493.6875 614.246094 440.359375 680.03125 440.359375 L 759.445312 440.359375 C 825.234375 440.359375 878.5625 493.6875 878.5625 559.476562 L 878.5625 718.300781 L 997.679688 718.300781 C 1019.609375 718.300781 1037.386719 700.523438 1037.386719 678.59375 L 1037.386719 324.035156 C 1037.386719 310.757812 1030.75 298.359375 1019.703125 290.996094 Z M 653.664062 39.628906 C 693.675781 12.953125 745.800781 12.953125 785.8125 39.628906 L 1063.753906 224.921875 C 1096.894531 247.015625 1116.796875 284.207031 1116.796875 324.035156 L 1116.796875 678.59375 C 1116.796875 744.378906 1063.46875 797.710938 997.679688 797.710938 L 838.855469 797.710938 C 816.925781 797.710938 799.148438 779.933594 799.148438 758.003906 L 799.148438 559.476562 C 799.148438 537.546875 781.375 519.769531 759.445312 519.769531 L 680.03125 519.769531 C 658.101562 519.769531 640.328125 537.546875 640.328125 559.476562 L 640.328125 758.003906 C 640.328125 779.933594 622.550781 797.710938 600.621094 797.710938 L 441.796875 797.710938 C 376.011719 797.710938 322.679688 744.378906 322.679688 678.59375 L 322.679688 324.035156 C 322.679688 284.207031 342.585938 247.015625 375.722656 224.921875 Z M 653.664062 39.628906 " fill-opacity="1" fill-rule="evenodd"/></g><g clip-path="url(#b5a9213ec6)"><g clip-path="url(#78b59cdd4d)"><path fill="#ffffff" d="M 510.28125 157.386719 L 525.527344 157.386719 L 525.527344 172.636719 L 510.28125 172.636719 Z M 510.28125 157.386719 " fill-opacity="1" fill-rule="nonzero"/></g></g></svg>