<svg xmlns="http://www.w3.org/2000/svg" xmlns:xlink="http://www.w3.org/1999/xlink" width="1920" zoomAndPan="magnify" viewBox="0 0 1440 809.999993" height="1080" preserveAspectRatio="xMidYMid meet" version="1.2"><defs><clipPath id="05572887db"><path d="M 315.75 0.75 L 1124.390625 0.75 L 1124.390625 809.390625 L 315.75 809.390625 Z M 315.75 0.75 "/></clipPath><clipPath id="8e9cfa03de"><path d="M 314.972656 1.472656 L 315.027344 1.472656 L 315.027344 1.527344 L 314.972656 1.527344 Z M 314.972656 1.472656 "/></clipPath><clipPath id="29f60e386a"><path d="M 315 1.472656 C 314.984375 1.472656 314.972656 1.484375 314.972656 1.5 C 314.972656 1.515625 314.984375 1.527344 315 1.527344 C 315.015625 1.527344 315.027344 1.515625 315.027344 1.5 C 315.027344 1.484375 315.015625 1.472656 315 1.472656 Z M 315 1.472656 "/></clipPath></defs><g id="b6d1d6ffde"><g clip-rule="nonzero" clip-path="url(#05572887db)"><path style=" stroke:none;fill-rule:evenodd;fill:#ffffff;fill-opacity:1;" d="M 719.941406 74.238281 C 537.300781 74.238281 389.238281 222.300781 389.238281 404.941406 C 389.238281 587.585938 537.300781 735.644531 719.941406 735.644531 C 902.585938 735.644531 1050.644531 587.585938 1050.644531 404.941406 C 1050.644531 222.300781 902.585938 74.238281 719.941406 74.238281 Z M 315.75 404.941406 C 315.75 181.710938 496.710938 0.75 719.941406 0.75 C 943.167969 0.75 1124.132812 181.710938 1124.132812 404.941406 C 1124.132812 628.167969 943.167969 809.132812 719.941406 809.132812 C 496.710938 809.132812 315.75 628.167969 315.75 404.941406 Z M 315.75 404.941406 "/></g><path style=" stroke:none;fill-rule:evenodd;fill:#ffffff;fill-opacity:1;" d="M 683.195312 282.460938 L 756.6875 282.460938 L 756.6875 649.90625 L 683.195312 649.90625 Z M 683.195312 282.460938 "/><path style=" stroke:none;fill-rule:evenodd;fill:#ffffff;fill-opacity:1;" d="M 683.195312 159.976562 L 756.6875 159.976562 L 756.6875 241.632812 L 683.195312 241.632812 Z M 683.195312 159.976562 "/><g clip-rule="nonzero" clip-path="url(#8e9cfa03de)"><g clip-rule="nonzero" clip-path="url(#29f60e386a)"><path style=" stroke:none;fill-rule:nonzero;fill:#ffffff;fill-opacity:1;" d="M 314.972656 1.472656 L 315.027344 1.472656 L 315.027344 1.527344 L 314.972656 1.527344 Z M 314.972656 1.472656 "/></g></g></g></svg>