<svg xmlns="http://www.w3.org/2000/svg" xmlns:xlink="http://www.w3.org/1999/xlink" width="1920" zoomAndPan="magnify" viewBox="0 0 1440 809.999993" height="1080" preserveAspectRatio="xMidYMid meet" version="1.0"><defs><clipPath id="bd69f1f746"><path d="M 322.378906 7.34375 L 1116.496094 7.34375 L 1116.496094 801.460938 L 322.378906 801.460938 Z M 322.378906 7.34375 " clip-rule="nonzero"/></clipPath><clipPath id="22766f6f4a"><path d="M 548.5 396.777344 L 563.746094 396.777344 L 563.746094 412.027344 L 548.5 412.027344 Z M 548.5 396.777344 " clip-rule="nonzero"/></clipPath><clipPath id="d53be339eb"><path d="M 556.125 396.777344 C 551.914062 396.777344 548.5 400.191406 548.5 404.402344 C 548.5 408.613281 551.914062 412.027344 556.125 412.027344 C 560.335938 412.027344 563.746094 408.613281 563.746094 404.402344 C 563.746094 400.191406 560.335938 396.777344 556.125 396.777344 Z M 556.125 396.777344 " clip-rule="nonzero"/></clipPath></defs><g clip-path="url(#bd69f1f746)"><path fill="#ffffff" d="M 335.613281 801.460938 L 732.671875 801.460938 C 734.324219 801.4375 735.910156 801.121094 737.441406 800.503906 C 738.972656 799.886719 740.335938 799.015625 741.542969 797.886719 L 900.363281 652.300781 C 901.734375 651.0625 902.796875 649.605469 903.558594 647.925781 C 904.316406 646.246094 904.710938 644.480469 904.734375 642.636719 L 904.734375 457.34375 L 970.910156 457.34375 C 972.371094 457.339844 973.792969 457.097656 975.175781 456.625 C 976.558594 456.148438 977.828125 455.460938 978.984375 454.566406 L 1111.335938 352.652344 C 1112.136719 352.035156 1112.855469 351.335938 1113.496094 350.554688 C 1114.136719 349.773438 1114.683594 348.929688 1115.128906 348.023438 C 1115.578125 347.117188 1115.917969 346.171875 1116.148438 345.1875 C 1116.378906 344.203125 1116.496094 343.207031 1116.496094 342.195312 L 1116.496094 73.519531 C 1116.496094 72.652344 1116.414062 71.789062 1116.242188 70.9375 C 1116.074219 70.085938 1115.820312 69.257812 1115.488281 68.457031 C 1115.15625 67.652344 1114.75 66.890625 1114.265625 66.167969 C 1113.785156 65.445312 1113.234375 64.777344 1112.621094 64.160156 C 1112.007812 63.546875 1111.335938 63 1110.613281 62.515625 C 1109.890625 62.03125 1109.128906 61.625 1108.328125 61.292969 C 1107.523438 60.960938 1106.695312 60.710938 1105.84375 60.539062 C 1104.992188 60.371094 1104.132812 60.285156 1103.261719 60.285156 L 772.378906 60.285156 C 770.621094 60.273438 768.925781 60.601562 767.296875 61.269531 C 765.671875 61.933594 764.230469 62.882812 762.984375 64.125 L 732.671875 95.226562 L 732.671875 20.578125 C 732.648438 19.136719 732.425781 17.726562 732.011719 16.34375 C 731.792969 15.691406 731.519531 15.058594 731.203125 14.449219 C 730.882812 13.835938 730.515625 13.253906 730.105469 12.699219 C 729.695312 12.144531 729.246094 11.628906 728.753906 11.144531 C 728.261719 10.660156 727.738281 10.21875 727.175781 9.816406 C 726.617188 9.414062 726.027344 9.058594 725.410156 8.75 C 724.792969 8.441406 724.160156 8.183594 723.5 7.972656 C 722.84375 7.761719 722.175781 7.605469 721.496094 7.5 C 720.8125 7.394531 720.128906 7.34375 719.4375 7.34375 L 445.203125 7.34375 C 443.679688 7.355469 442.203125 7.625 440.769531 8.144531 C 439.339844 8.667969 438.039062 9.414062 436.863281 10.386719 L 339.71875 89.800781 C 338.328125 91.121094 337.273438 92.671875 336.558594 94.449219 C 335.84375 96.226562 335.527344 98.074219 335.613281 99.992188 L 335.613281 338.226562 C 335.613281 339.09375 335.699219 339.957031 335.871094 340.808594 C 336.039062 341.660156 336.289062 342.488281 336.621094 343.292969 C 336.953125 344.09375 337.363281 344.855469 337.84375 345.578125 C 338.328125 346.300781 338.875 346.96875 339.492188 347.585938 C 340.105469 348.199219 340.773438 348.75 341.496094 349.230469 C 342.21875 349.714844 342.980469 350.121094 343.785156 350.453125 C 344.589844 350.785156 345.414062 351.039062 346.269531 351.207031 C 347.121094 351.375 347.980469 351.460938 348.851562 351.460938 L 388.554688 351.460938 L 326.746094 407.84375 C 325.359375 409.09375 324.289062 410.574219 323.527344 412.277344 C 322.765625 413.984375 322.382812 415.769531 322.378906 417.636719 L 322.378906 788.226562 C 322.378906 789.09375 322.464844 789.957031 322.632812 790.808594 C 322.804688 791.660156 323.054688 792.488281 323.386719 793.292969 C 323.71875 794.09375 324.128906 794.855469 324.609375 795.578125 C 325.09375 796.300781 325.640625 796.96875 326.257812 797.585938 C 326.871094 798.199219 327.539062 798.75 328.261719 799.230469 C 328.984375 799.714844 329.746094 800.121094 330.550781 800.453125 C 331.351562 800.785156 332.179688 801.039062 333.03125 801.207031 C 333.886719 801.375 334.746094 801.460938 335.613281 801.460938 Z M 727.910156 404.402344 L 569.085938 404.402344 L 685.554688 298.519531 L 854.96875 298.519531 Z M 878.261719 636.816406 L 745.910156 758.183594 L 745.910156 423.859375 L 878.261719 313.609375 Z M 878.261719 272.050781 L 772.378906 272.050781 L 772.378906 245.578125 L 878.261719 245.578125 Z M 957.671875 430.875 L 904.734375 430.875 L 904.734375 232.34375 C 904.734375 231.476562 904.648438 230.613281 904.476562 229.761719 C 904.308594 228.910156 904.058594 228.082031 903.726562 227.277344 C 903.390625 226.476562 902.984375 225.714844 902.5 224.992188 C 902.019531 224.269531 901.46875 223.601562 900.855469 222.984375 C 900.242188 222.371094 899.574219 221.820312 898.851562 221.339844 C 898.128906 220.855469 897.363281 220.449219 896.5625 220.117188 C 895.757812 219.785156 894.929688 219.53125 894.078125 219.363281 C 893.226562 219.195312 892.367188 219.109375 891.496094 219.109375 L 759.144531 219.109375 C 758.273438 219.109375 757.414062 219.195312 756.5625 219.363281 C 755.710938 219.53125 754.882812 219.785156 754.078125 220.117188 C 753.277344 220.449219 752.515625 220.855469 751.792969 221.339844 C 751.070312 221.820312 750.398438 222.371094 749.785156 222.984375 C 749.171875 223.601562 748.621094 224.269531 748.140625 224.992188 C 747.65625 225.714844 747.25 226.476562 746.917969 227.277344 C 746.582031 228.082031 746.332031 228.910156 746.164062 229.761719 C 745.992188 230.613281 745.910156 231.476562 745.910156 232.34375 L 745.910156 272.050781 L 679.734375 272.050781 L 679.734375 205.875 L 957.671875 205.875 Z M 1090.027344 335.710938 L 984.144531 417.636719 L 984.144531 198.59375 L 1090.027344 103.300781 Z M 1068.71875 86.753906 L 965.878906 179.402344 L 853.511719 179.402344 L 942.453125 86.753906 Z M 777.542969 86.753906 L 905.527344 86.753906 L 816.585938 179.402344 L 685.160156 179.402344 Z M 706.203125 121.695312 L 657.761719 170.003906 C 656.402344 171.199219 655.328125 172.609375 654.546875 174.242188 C 653.765625 175.875 653.339844 177.59375 653.261719 179.402344 L 653.261719 272.050781 L 626.792969 272.050781 L 628.113281 106.609375 L 706.203125 47.050781 Z M 679.734375 33.816406 L 609.984375 86.753906 L 516.277344 86.753906 L 578.085938 33.816406 Z M 449.96875 33.816406 L 537.320312 33.816406 L 475.644531 86.753906 L 385.246094 86.753906 Z M 362.085938 324.992188 L 362.085938 113.226562 L 601.113281 113.226562 L 600.320312 272.050781 L 481.203125 272.050781 C 479.5625 272.054688 477.976562 272.351562 476.449219 272.945312 C 474.921875 273.539062 473.550781 274.386719 472.335938 275.492188 L 415.027344 328.167969 L 415.027344 324.992188 Z M 487.027344 298.519531 L 645.851562 298.519531 L 529.378906 404.402344 L 370.554688 404.402344 Z M 348.851562 430.875 L 719.4375 430.875 L 719.4375 774.992188 L 348.851562 774.992188 Z M 348.851562 430.875 " fill-opacity="1" fill-rule="nonzero"/></g><path fill="#ffffff" d="M 626.792969 470.578125 L 441.496094 470.578125 C 440.628906 470.578125 439.765625 470.664062 438.914062 470.832031 C 438.0625 471.003906 437.234375 471.253906 436.433594 471.585938 C 435.628906 471.917969 434.867188 472.328125 434.144531 472.808594 C 433.421875 473.292969 432.753906 473.839844 432.136719 474.457031 C 431.523438 475.070312 430.976562 475.738281 430.492188 476.460938 C 430.007812 477.183594 429.601562 477.945312 429.269531 478.75 C 428.9375 479.550781 428.6875 480.378906 428.515625 481.234375 C 428.347656 482.085938 428.261719 482.945312 428.261719 483.816406 L 428.261719 536.753906 C 428.261719 537.625 428.347656 538.484375 428.515625 539.335938 C 428.6875 540.191406 428.9375 541.019531 429.269531 541.820312 C 429.601562 542.625 430.007812 543.386719 430.492188 544.109375 C 430.976562 544.832031 431.523438 545.5 432.136719 546.113281 C 432.753906 546.730469 433.421875 547.277344 434.144531 547.761719 C 434.867188 548.242188 435.628906 548.652344 436.433594 548.984375 C 437.234375 549.316406 438.0625 549.566406 438.914062 549.738281 C 439.765625 549.90625 440.628906 549.992188 441.496094 549.992188 L 626.792969 549.992188 C 627.660156 549.992188 628.519531 549.90625 629.375 549.738281 C 630.226562 549.566406 631.054688 549.316406 631.855469 548.984375 C 632.660156 548.652344 633.421875 548.242188 634.144531 547.761719 C 634.867188 547.277344 635.535156 546.730469 636.148438 546.113281 C 636.765625 545.5 637.3125 544.832031 637.796875 544.109375 C 638.277344 543.386719 638.6875 542.625 639.019531 541.820312 C 639.351562 541.019531 639.601562 540.191406 639.773438 539.335938 C 639.941406 538.484375 640.027344 537.625 640.027344 536.753906 L 640.027344 483.816406 C 640.027344 482.945312 639.941406 482.085938 639.773438 481.230469 C 639.601562 480.378906 639.351562 479.550781 639.019531 478.75 C 638.6875 477.945312 638.277344 477.183594 637.796875 476.460938 C 637.3125 475.738281 636.765625 475.070312 636.148438 474.457031 C 635.535156 473.839844 634.867188 473.292969 634.144531 472.808594 C 633.421875 472.328125 632.660156 471.917969 631.855469 471.585938 C 631.054688 471.253906 630.226562 471.003906 629.375 470.832031 C 628.519531 470.664062 627.660156 470.578125 626.792969 470.578125 Z M 613.554688 523.519531 L 454.734375 523.519531 L 454.734375 497.050781 L 613.554688 497.050781 Z M 613.554688 523.519531 " fill-opacity="1" fill-rule="nonzero"/><path fill="#ffffff" d="M 542.613281 579.503906 C 542.023438 579.015625 541.398438 578.578125 540.730469 578.195312 C 540.066406 577.8125 539.371094 577.492188 538.648438 577.230469 C 537.925781 576.96875 537.1875 576.773438 536.429688 576.640625 C 535.675781 576.507812 534.914062 576.441406 534.144531 576.441406 C 533.375 576.441406 532.613281 576.507812 531.859375 576.640625 C 531.101562 576.773438 530.363281 576.96875 529.640625 577.230469 C 528.917969 577.492188 528.222656 577.8125 527.558594 578.195312 C 526.890625 578.578125 526.265625 579.015625 525.671875 579.503906 L 446.261719 645.683594 C 445.742188 646.117188 445.257812 646.585938 444.808594 647.09375 C 444.363281 647.601562 443.953125 648.140625 443.589844 648.707031 C 443.222656 649.277344 442.90625 649.871094 442.628906 650.492188 C 442.355469 651.109375 442.128906 651.746094 441.953125 652.398438 C 441.777344 653.054688 441.652344 653.714844 441.578125 654.390625 C 441.5 655.0625 441.480469 655.738281 441.507812 656.414062 C 441.535156 657.089844 441.617188 657.757812 441.746094 658.421875 C 441.878906 659.085938 442.058594 659.738281 442.292969 660.375 C 442.519531 661.007812 442.796875 661.625 443.121094 662.21875 C 443.445312 662.808594 443.8125 663.375 444.222656 663.914062 C 444.632812 664.449219 445.082031 664.953125 445.570312 665.421875 C 446.058594 665.886719 446.578125 666.316406 447.132812 666.707031 C 447.6875 667.09375 448.265625 667.4375 448.871094 667.738281 C 449.476562 668.035156 450.101562 668.289062 450.746094 668.492188 C 451.390625 668.695312 452.046875 668.851562 452.714844 668.953125 C 453.382812 669.054688 454.054688 669.109375 454.734375 669.109375 L 494.4375 669.109375 L 494.4375 735.285156 C 494.4375 736.152344 494.523438 737.015625 494.691406 737.867188 C 494.863281 738.71875 495.113281 739.546875 495.445312 740.351562 C 495.777344 741.152344 496.1875 741.914062 496.667969 742.636719 C 497.152344 743.359375 497.699219 744.03125 498.316406 744.644531 C 498.929688 745.257812 499.597656 745.808594 500.320312 746.289062 C 501.042969 746.773438 501.804688 747.179688 502.609375 747.511719 C 503.410156 747.84375 504.238281 748.097656 505.089844 748.265625 C 505.945312 748.4375 506.804688 748.519531 507.671875 748.519531 L 560.613281 748.519531 C 561.484375 748.519531 562.34375 748.4375 563.195312 748.265625 C 564.050781 748.097656 564.875 747.84375 565.679688 747.511719 C 566.484375 747.179688 567.246094 746.773438 567.96875 746.289062 C 568.691406 745.808594 569.359375 745.257812 569.972656 744.644531 C 570.589844 744.03125 571.136719 743.359375 571.621094 742.636719 C 572.101562 741.914062 572.511719 741.152344 572.84375 740.351562 C 573.175781 739.546875 573.425781 738.71875 573.597656 737.867188 C 573.765625 737.015625 573.851562 736.152344 573.851562 735.285156 L 573.851562 669.109375 L 613.554688 669.109375 C 614.230469 669.109375 614.902344 669.054688 615.570312 668.953125 C 616.242188 668.851562 616.898438 668.695312 617.542969 668.492188 C 618.1875 668.289062 618.8125 668.039062 619.417969 667.738281 C 620.023438 667.4375 620.601562 667.09375 621.15625 666.707031 C 621.710938 666.316406 622.230469 665.886719 622.71875 665.421875 C 623.203125 664.953125 623.652344 664.449219 624.066406 663.914062 C 624.476562 663.375 624.84375 662.808594 625.167969 662.21875 C 625.492188 661.625 625.765625 661.007812 625.996094 660.375 C 626.226562 659.738281 626.410156 659.085938 626.542969 658.421875 C 626.671875 657.757812 626.753906 657.089844 626.78125 656.414062 C 626.808594 655.738281 626.785156 655.0625 626.710938 654.390625 C 626.636719 653.714844 626.511719 653.054688 626.335938 652.398438 C 626.15625 651.746094 625.933594 651.109375 625.660156 650.492188 C 625.382812 649.871094 625.0625 649.277344 624.699219 648.707031 C 624.332031 648.140625 623.925781 647.601562 623.480469 647.09375 C 623.03125 646.585938 622.546875 646.117188 622.027344 645.683594 Z M 560.613281 642.636719 C 559.746094 642.636719 558.886719 642.722656 558.03125 642.890625 C 557.179688 643.0625 556.351562 643.3125 555.550781 643.644531 C 554.746094 643.976562 553.984375 644.386719 553.261719 644.867188 C 552.539062 645.351562 551.871094 645.898438 551.257812 646.515625 C 550.640625 647.128906 550.09375 647.796875 549.609375 648.519531 C 549.128906 649.242188 548.71875 650.003906 548.386719 650.808594 C 548.054688 651.613281 547.804688 652.4375 547.632812 653.292969 C 547.464844 654.144531 547.378906 655.003906 547.378906 655.875 L 547.378906 722.050781 L 520.910156 722.050781 L 520.910156 655.875 C 520.910156 655.003906 520.824219 654.144531 520.65625 653.292969 C 520.484375 652.4375 520.234375 651.609375 519.902344 650.808594 C 519.570312 650.003906 519.160156 649.242188 518.679688 648.519531 C 518.195312 647.796875 517.648438 647.128906 517.03125 646.515625 C 516.417969 645.898438 515.75 645.351562 515.027344 644.867188 C 514.304688 644.386719 513.542969 643.976562 512.738281 643.644531 C 511.9375 643.3125 511.109375 643.0625 510.253906 642.890625 C 509.402344 642.722656 508.542969 642.636719 507.671875 642.636719 L 491.261719 642.636719 L 534.144531 606.902344 L 577.027344 642.636719 Z M 560.613281 642.636719 " fill-opacity="1" fill-rule="nonzero"/><path fill="#ffffff" d="M 547.378906 217.652344 C 548.25 217.652344 549.109375 217.566406 549.960938 217.398438 C 550.8125 217.230469 551.640625 216.976562 552.445312 216.644531 C 553.246094 216.3125 554.011719 215.90625 554.734375 215.421875 C 555.457031 214.9375 556.125 214.390625 556.738281 213.777344 C 557.351562 213.160156 557.902344 212.492188 558.382812 211.769531 C 558.867188 211.046875 559.273438 210.285156 559.605469 209.480469 C 559.941406 208.679688 560.191406 207.851562 560.359375 207 C 560.53125 206.148438 560.613281 205.285156 560.613281 204.417969 L 560.613281 151.476562 C 560.613281 150.605469 560.53125 149.746094 560.359375 148.894531 C 560.191406 148.042969 559.941406 147.214844 559.605469 146.410156 C 559.273438 145.609375 558.867188 144.847656 558.382812 144.125 C 557.902344 143.402344 557.351562 142.730469 556.738281 142.117188 C 556.125 141.503906 555.457031 140.953125 554.734375 140.472656 C 554.011719 139.988281 553.246094 139.582031 552.445312 139.25 C 551.640625 138.914062 550.8125 138.664062 549.960938 138.496094 C 549.109375 138.324219 548.25 138.242188 547.378906 138.242188 L 415.027344 138.242188 C 414.15625 138.242188 413.296875 138.324219 412.445312 138.496094 C 411.59375 138.664062 410.765625 138.914062 409.960938 139.25 C 409.160156 139.582031 408.394531 139.988281 407.671875 140.472656 C 406.949219 140.953125 406.28125 141.503906 405.667969 142.117188 C 405.054688 142.730469 404.503906 143.402344 404.023438 144.125 C 403.539062 144.847656 403.132812 145.609375 402.796875 146.410156 C 402.464844 147.214844 402.214844 148.042969 402.046875 148.894531 C 401.875 149.746094 401.792969 150.605469 401.792969 151.476562 L 401.792969 204.417969 C 401.792969 205.285156 401.875 206.148438 402.046875 207 C 402.214844 207.851562 402.464844 208.679688 402.796875 209.480469 C 403.132812 210.285156 403.539062 211.046875 404.023438 211.769531 C 404.503906 212.492188 405.054688 213.160156 405.667969 213.777344 C 406.28125 214.390625 406.949219 214.9375 407.671875 215.421875 C 408.394531 215.90625 409.160156 216.3125 409.960938 216.644531 C 410.765625 216.976562 411.59375 217.230469 412.445312 217.398438 C 413.296875 217.566406 414.15625 217.652344 415.027344 217.652344 Z M 428.261719 164.710938 L 534.144531 164.710938 L 534.144531 191.183594 L 428.261719 191.183594 Z M 428.261719 164.710938 " fill-opacity="1" fill-rule="nonzero"/><g clip-path="url(#22766f6f4a)"><g clip-path="url(#d53be339eb)"><path fill="#ffffff" d="M 548.5 396.777344 L 563.746094 396.777344 L 563.746094 412.027344 L 548.5 412.027344 Z M 548.5 396.777344 " fill-opacity="1" fill-rule="nonzero"/></g></g></svg>