<svg xmlns="http://www.w3.org/2000/svg" xmlns:xlink="http://www.w3.org/1999/xlink" width="1920" zoomAndPan="magnify" viewBox="0 0 1440 809.999993" height="1080" preserveAspectRatio="xMidYMid meet" version="1.0"><defs><clipPath id="374020e8e9"><path d="M 706.695312 157.488281 L 719.765625 157.488281 L 719.765625 170.558594 L 706.695312 170.558594 Z M 706.695312 157.488281 " clip-rule="nonzero"/></clipPath><clipPath id="22d1dac93f"><path d="M 713.230469 157.488281 C 709.621094 157.488281 706.695312 160.414062 706.695312 164.023438 C 706.695312 167.632812 709.621094 170.558594 713.230469 170.558594 C 716.839844 170.558594 719.765625 167.632812 719.765625 164.023438 C 719.765625 160.414062 716.839844 157.488281 713.230469 157.488281 Z M 713.230469 157.488281 " clip-rule="nonzero"/></clipPath><clipPath id="befc010c9c"><path d="M 603.699219 6.796875 L 616.769531 6.796875 L 616.769531 19.867188 L 603.699219 19.867188 Z M 603.699219 6.796875 " clip-rule="nonzero"/></clipPath><clipPath id="d1950ab433"><path d="M 610.234375 6.796875 C 606.625 6.796875 603.699219 9.722656 603.699219 13.332031 C 603.699219 16.941406 606.625 19.867188 610.234375 19.867188 C 613.84375 19.867188 616.769531 16.941406 616.769531 13.332031 C 616.769531 9.722656 613.84375 6.796875 610.234375 6.796875 Z M 610.234375 6.796875 " clip-rule="nonzero"/></clipPath><clipPath id="7277e1fa00"><path d="M 239.511719 402 L 1200.203125 402 L 1200.203125 523 L 239.511719 523 Z M 239.511719 402 " clip-rule="nonzero"/></clipPath><clipPath id="527d646bc3"><path d="M 239.511719 682 L 1200.203125 682 L 1200.203125 803 L 239.511719 803 Z M 239.511719 682 " clip-rule="nonzero"/></clipPath><clipPath id="5f9f6c7711"><path d="M 239.511719 122.417969 L 1200.203125 122.417969 L 1200.203125 243 L 239.511719 243 Z M 239.511719 122.417969 " clip-rule="nonzero"/></clipPath></defs><g clip-path="url(#374020e8e9)"><g clip-path="url(#22d1dac93f)"><path fill="#ffffff" d="M 706.695312 157.488281 L 719.765625 157.488281 L 719.765625 170.558594 L 706.695312 170.558594 Z M 706.695312 157.488281 " fill-opacity="1" fill-rule="nonzero"/></g></g><g clip-path="url(#befc010c9c)"><g clip-path="url(#d1950ab433)"><path fill="#ffffff" d="M 603.699219 6.796875 L 616.769531 6.796875 L 616.769531 19.867188 L 603.699219 19.867188 Z M 603.699219 6.796875 " fill-opacity="1" fill-rule="nonzero"/></g></g><g clip-path="url(#7277e1fa00)"><path fill="#ffffff" d="M 1139.984375 402.769531 L 299.542969 402.769531 C 266.382812 402.769531 239.511719 429.644531 239.511719 462.800781 C 239.511719 495.957031 266.382812 522.832031 299.542969 522.832031 L 1139.984375 522.832031 C 1173.140625 522.832031 1200.015625 495.957031 1200.015625 462.800781 C 1200.015625 429.644531 1173.140625 402.769531 1139.984375 402.769531 Z M 1139.984375 402.769531 " fill-opacity="1" fill-rule="nonzero"/></g><g clip-path="url(#527d646bc3)"><path fill="#ffffff" d="M 1139.984375 682.917969 L 299.542969 682.917969 C 266.382812 682.917969 239.511719 709.789062 239.511719 742.949219 C 239.511719 776.105469 266.382812 802.980469 299.542969 802.980469 L 1139.984375 802.980469 C 1173.140625 802.980469 1200.015625 776.105469 1200.015625 742.949219 C 1200.015625 709.789062 1173.140625 682.917969 1139.984375 682.917969 Z M 1139.984375 682.917969 " fill-opacity="1" fill-rule="nonzero"/></g><g clip-path="url(#5f9f6c7711)"><path fill="#ffffff" d="M 299.542969 242.683594 L 1139.984375 242.683594 C 1173.140625 242.683594 1200.015625 215.808594 1200.015625 182.652344 C 1200.015625 149.496094 1173.140625 122.621094 1139.984375 122.621094 L 299.542969 122.621094 C 266.382812 122.621094 239.511719 149.496094 239.511719 182.652344 C 239.511719 215.808594 266.382812 242.683594 299.542969 242.683594 Z M 299.542969 242.683594 " fill-opacity="1" fill-rule="nonzero"/></g></svg>