<svg xmlns="http://www.w3.org/2000/svg" xmlns:xlink="http://www.w3.org/1999/xlink" width="1920" zoomAndPan="magnify" viewBox="0 0 1440 809.999993" height="1080" preserveAspectRatio="xMidYMid meet" version="1.0"><defs><clipPath id="b22cf09f40"><path d="M 309 8 L 1128 8 L 1128 801.8125 L 309 801.8125 Z M 309 8 " clip-rule="nonzero"/></clipPath><clipPath id="0706172286"><path d="M 689.453125 703.246094 L 704.703125 703.246094 L 704.703125 718.496094 L 689.453125 718.496094 Z M 689.453125 703.246094 " clip-rule="nonzero"/></clipPath><clipPath id="5252c2576a"><path d="M 697.078125 703.246094 C 692.867188 703.246094 689.453125 706.660156 689.453125 710.871094 C 689.453125 715.082031 692.867188 718.496094 697.078125 718.496094 C 701.289062 718.496094 704.703125 715.082031 704.703125 710.871094 C 704.703125 706.660156 701.289062 703.246094 697.078125 703.246094 Z M 697.078125 703.246094 " clip-rule="nonzero"/></clipPath></defs><g clip-path="url(#b22cf09f40)"><path fill="#ffffff" d="M 1118.953125 475.769531 C 1111.152344 462.75 1079.136719 424.089844 994.617188 473.3125 L 845.527344 560.148438 C 838.007812 564.53125 830.359375 567.617188 822.371094 569.445312 C 825.359375 564.71875 827.691406 559.355469 829.285156 553.414062 C 836.898438 524.992188 820.003906 495.3125 790.820312 485.855469 C 790.257812 485.671875 789.679688 485.527344 789.09375 485.421875 C 746.242188 477.691406 703.949219 462.402344 669.96875 450.117188 C 658.160156 445.847656 647.011719 441.816406 637.53125 438.742188 C 599.355469 426.359375 564.867188 441.6875 536.167969 458.316406 L 425.234375 522.585938 L 417.195312 508.382812 C 412.585938 500.234375 405.054688 494.367188 395.996094 491.855469 C 386.933594 489.34375 377.453125 490.5 369.308594 495.109375 L 327.476562 518.785156 C 310.613281 528.328125 304.660156 549.808594 314.203125 566.671875 L 437.183594 783.972656 C 441.796875 792.117188 449.324219 797.988281 458.386719 800.5 C 461.519531 801.367188 464.703125 801.800781 467.863281 801.800781 C 473.84375 801.800781 479.742188 800.261719 485.070312 797.242188 L 526.902344 773.570312 C 543.765625 764.027344 549.71875 742.542969 540.179688 725.679688 L 525.019531 698.898438 L 550.355469 684.273438 L 741.320312 735.441406 C 752.101562 738.332031 762.683594 739.773438 773.039062 739.773438 C 793.679688 739.773438 813.417969 734.039062 831.992188 722.605469 L 1102.550781 556.007812 C 1127.195312 540.832031 1135.011719 502.589844 1118.953125 475.769531 Z M 513.910156 750.613281 L 472.078125 774.289062 C 470.066406 775.429688 467.703125 775.710938 465.433594 775.082031 C 463.160156 774.453125 461.28125 772.996094 460.140625 770.980469 L 337.160156 553.679688 C 334.820312 549.546875 336.335938 544.078125 340.46875 541.738281 L 382.300781 518.0625 C 383.613281 517.320312 385.074219 516.941406 386.558594 516.941406 C 387.351562 516.941406 388.15625 517.050781 388.949219 517.273438 C 391.222656 517.902344 393.101562 519.359375 394.242188 521.375 L 517.222656 738.671875 C 519.5625 742.808594 518.042969 748.273438 513.910156 750.613281 Z M 1088.722656 533.546875 L 818.164062 700.144531 C 796.695312 713.359375 773.140625 716.664062 748.148438 709.964844 L 551.90625 657.382812 C 548.523438 656.480469 544.925781 656.949219 541.894531 658.699219 L 512.027344 675.945312 L 438.226562 545.542969 L 549.390625 481.140625 C 574.25 466.734375 601.148438 454.667969 629.394531 463.832031 C 638.457031 466.773438 648.902344 470.550781 661 474.921875 C 695.667969 487.457031 738.757812 503.035156 783.460938 511.207031 C 799.0625 516.65625 807.785156 531.726562 803.804688 546.589844 C 798.632812 565.898438 782.378906 568.277344 769.453125 566.789062 C 746.160156 562.109375 725.015625 556.113281 702.894531 549.839844 C 692.992188 547.03125 682.75 544.125 671.980469 541.242188 C 664.949219 539.359375 657.714844 543.53125 655.828125 550.566406 C 653.941406 557.601562 658.117188 564.832031 665.152344 566.71875 C 675.738281 569.554688 685.886719 572.433594 695.699219 575.214844 C 718.5 581.683594 740.292969 587.863281 764.660156 592.734375 C 764.714844 592.742188 764.765625 592.753906 764.820312 592.765625 C 770.90625 593.980469 777.15625 595.113281 783.621094 596.148438 C 811.339844 600.585938 835.929688 596.261719 858.804688 582.945312 L 1007.894531 496.109375 C 1050.832031 471.101562 1083.890625 468.566406 1096.324219 489.324219 C 1104.890625 503.632812 1101.058594 525.953125 1088.722656 533.546875 Z M 392 555.726562 C 393.191406 563.886719 387.542969 571.472656 379.378906 572.664062 C 371.21875 573.855469 363.632812 568.207031 362.441406 560.046875 C 361.25 551.886719 366.898438 544.300781 375.0625 543.109375 C 383.222656 541.917969 390.804688 547.5625 392 555.726562 Z M 658.75 337.125 L 834.441406 438.5625 C 836.480469 439.738281 838.757812 440.328125 841.035156 440.328125 C 843.3125 440.328125 845.589844 439.738281 847.628906 438.5625 L 1023.324219 337.125 C 1027.402344 334.769531 1029.917969 330.414062 1029.917969 325.703125 L 1029.917969 122.828125 C 1029.917969 118.117188 1027.402344 113.761719 1023.324219 111.40625 L 847.628906 9.972656 C 843.546875 7.617188 838.523438 7.617188 834.441406 9.972656 L 658.75 111.40625 C 654.667969 113.761719 652.15625 118.117188 652.15625 122.828125 L 652.15625 325.699219 C 652.15625 330.414062 654.667969 334.765625 658.75 337.125 Z M 678.53125 145.671875 L 714.523438 166.453125 L 714.523438 238.726562 C 714.523438 243.4375 717.039062 247.792969 721.121094 250.148438 L 772.070312 279.5625 C 774.109375 280.742188 776.386719 281.332031 778.664062 281.332031 C 780.941406 281.332031 783.21875 280.742188 785.257812 279.5625 C 789.339844 277.207031 791.851562 272.855469 791.851562 268.144531 L 791.851562 211.097656 L 827.847656 231.878906 L 827.847656 404.292969 L 678.53125 318.085938 Z M 841.035156 209.035156 L 805.042969 188.257812 L 954.355469 102.050781 L 990.347656 122.828125 Z M 740.902344 181.679688 L 765.476562 195.871094 L 765.476562 245.296875 L 740.902344 231.113281 Z M 778.664062 173.027344 L 754.089844 158.839844 L 903.40625 72.632812 L 927.980469 86.820312 Z M 854.222656 404.296875 L 854.222656 231.878906 L 1003.539062 145.671875 L 1003.539062 318.085938 Z M 841.035156 36.621094 L 877.027344 57.402344 L 727.714844 143.609375 L 691.71875 122.828125 Z M 841.035156 36.621094 " fill-opacity="1" fill-rule="nonzero"/></g><g clip-path="url(#0706172286)"><g clip-path="url(#5252c2576a)"><path fill="#ffffff" d="M 689.453125 703.246094 L 704.703125 703.246094 L 704.703125 718.496094 L 689.453125 718.496094 Z M 689.453125 703.246094 " fill-opacity="1" fill-rule="nonzero"/></g></g></svg>