<svg xmlns="http://www.w3.org/2000/svg" xmlns:xlink="http://www.w3.org/1999/xlink" width="1920" zoomAndPan="magnify" viewBox="0 0 1440 809.999993" height="1080" preserveAspectRatio="xMidYMid meet" version="1.0"><defs><clipPath id="5b5b622168"><path d="M 369 38 L 1103.601562 38 L 1103.601562 773 L 369 773 Z M 369 38 " clip-rule="nonzero"/></clipPath><clipPath id="010b4f37b5"><path d="M 582.015625 106.316406 L 597.261719 106.316406 L 597.261719 121.5625 L 582.015625 121.5625 Z M 582.015625 106.316406 " clip-rule="nonzero"/></clipPath><clipPath id="59d6786445"><path d="M 589.640625 106.316406 C 585.429688 106.316406 582.015625 109.726562 582.015625 113.9375 C 582.015625 118.148438 585.429688 121.5625 589.640625 121.5625 C 593.851562 121.5625 597.261719 118.148438 597.261719 113.9375 C 597.261719 109.726562 593.851562 106.316406 589.640625 106.316406 Z M 589.640625 106.316406 " clip-rule="nonzero"/></clipPath></defs><g clip-path="url(#5b5b622168)"><path fill="#7054ff" d="M 1103.804688 405.1875 C 1103.804688 409.722656 1103.722656 414.253906 1103.554688 418.789062 C 1103.386719 423.320312 1103.136719 427.84375 1102.800781 432.367188 C 1102.464844 436.890625 1102.046875 441.40625 1101.546875 445.910156 C 1101.042969 450.417969 1100.457031 454.914062 1099.789062 459.398438 C 1099.121094 463.882812 1098.367188 468.355469 1097.53125 472.8125 C 1096.699219 477.269531 1095.78125 481.710938 1094.78125 486.132812 C 1093.78125 490.554688 1092.699219 494.960938 1091.539062 499.34375 C 1090.375 503.726562 1089.132812 508.085938 1087.808594 512.421875 C 1086.484375 516.757812 1085.082031 521.070312 1083.597656 525.355469 C 1082.113281 529.640625 1080.550781 533.898438 1078.90625 538.125 C 1077.265625 542.351562 1075.546875 546.546875 1073.75 550.710938 C 1071.953125 554.875 1070.078125 559.003906 1068.128906 563.097656 C 1066.179688 567.191406 1064.152344 571.246094 1062.050781 575.265625 C 1059.953125 579.285156 1057.777344 583.261719 1055.53125 587.203125 C 1053.28125 591.140625 1050.960938 595.035156 1048.570312 598.886719 C 1046.175781 602.742188 1043.714844 606.546875 1041.179688 610.308594 C 1038.648438 614.070312 1036.046875 617.78125 1033.375 621.449219 C 1030.703125 625.113281 1027.964844 628.726562 1025.160156 632.289062 C 1022.355469 635.851562 1019.484375 639.363281 1016.550781 642.820312 C 1013.613281 646.277344 1010.617188 649.679688 1007.554688 653.023438 C 1004.492188 656.371094 1001.371094 659.660156 998.1875 662.886719 C 995.003906 666.117188 991.765625 669.289062 988.464844 672.398438 C 985.164062 675.507812 981.804688 678.558594 978.390625 681.542969 C 974.980469 684.527344 971.511719 687.449219 967.988281 690.308594 C 964.46875 693.164062 960.894531 695.957031 957.269531 698.679688 C 953.644531 701.40625 949.96875 704.0625 946.246094 706.652344 C 942.523438 709.238281 938.75 711.757812 934.933594 714.207031 C 931.117188 716.65625 927.257812 719.035156 923.351562 721.339844 C 919.445312 723.644531 915.5 725.878906 911.511719 728.039062 C 907.523438 730.199219 903.496094 732.285156 899.433594 734.292969 C 895.367188 736.304688 891.265625 738.238281 887.128906 740.097656 C 882.992188 741.957031 878.820312 743.738281 874.617188 745.441406 C 870.417969 747.144531 866.183594 748.769531 861.917969 750.320312 C 857.65625 751.867188 853.367188 753.332031 849.046875 754.722656 C 844.730469 756.109375 840.390625 757.417969 836.023438 758.644531 C 831.65625 759.871094 827.269531 761.019531 822.863281 762.082031 C 818.453125 763.148438 814.027344 764.132812 809.582031 765.03125 C 805.136719 765.933594 800.675781 766.75 796.199219 767.488281 C 791.726562 768.222656 787.238281 768.875 782.738281 769.445312 C 778.238281 770.015625 773.730469 770.5 769.214844 770.902344 C 764.695312 771.304688 760.171875 771.621094 755.644531 771.859375 C 751.113281 772.09375 746.582031 772.242188 742.046875 772.308594 C 737.511719 772.375 732.976562 772.359375 728.445312 772.257812 C 723.910156 772.15625 719.378906 771.972656 714.851562 771.703125 C 710.324219 771.433594 705.804688 771.082031 701.289062 770.644531 C 696.773438 770.207031 692.269531 769.6875 687.773438 769.082031 C 683.28125 768.480469 678.796875 767.792969 674.328125 767.023438 C 669.859375 766.253906 665.40625 765.402344 660.964844 764.46875 C 656.527344 763.53125 652.109375 762.515625 647.710938 761.417969 C 643.308594 760.320312 638.929688 759.140625 634.574219 757.878906 C 630.21875 756.621094 625.886719 755.277344 621.578125 753.859375 C 617.273438 752.4375 612.992188 750.9375 608.742188 749.355469 C 604.488281 747.777344 600.269531 746.121094 596.078125 744.382812 C 591.890625 742.648438 587.734375 740.835938 583.609375 738.945312 C 579.488281 737.054688 575.402344 735.089844 571.351562 733.046875 C 567.300781 731.003906 563.292969 728.890625 559.320312 726.699219 C 555.347656 724.511719 551.417969 722.246094 547.53125 719.910156 C 543.644531 717.578125 539.800781 715.167969 536.003906 712.691406 C 532.203125 710.214844 528.453125 707.667969 524.75 705.050781 C 521.046875 702.433594 517.390625 699.746094 513.789062 696.996094 C 510.183594 694.242188 506.632812 691.425781 503.132812 688.539062 C 499.632812 685.65625 496.1875 682.710938 492.796875 679.699219 C 489.40625 676.6875 486.070312 673.613281 482.792969 670.476562 C 479.515625 667.34375 476.300781 664.148438 473.140625 660.894531 C 467.929688 655.523438 462.882812 650 458.007812 644.324219 C 453.132812 638.644531 448.433594 632.824219 443.914062 626.859375 C 439.394531 620.894531 435.0625 614.796875 430.917969 608.566406 C 426.769531 602.335938 422.816406 595.984375 419.058594 589.515625 C 415.300781 583.042969 411.746094 576.464844 408.386719 569.773438 C 405.03125 563.085938 401.882812 556.300781 398.945312 549.417969 C 396.003906 542.539062 393.273438 535.574219 390.761719 528.523438 C 388.246094 521.476562 385.949219 514.359375 383.867188 507.167969 C 381.789062 499.980469 379.929688 492.734375 378.296875 485.433594 C 376.660156 478.128906 375.246094 470.785156 374.058594 463.398438 C 372.871094 456.007812 371.914062 448.589844 371.179688 441.144531 C 370.445312 433.695312 369.941406 426.234375 369.664062 418.753906 C 369.386719 411.277344 369.335938 403.796875 369.519531 396.316406 C 369.699219 388.835938 370.105469 381.367188 370.742188 373.910156 C 371.382812 366.453125 372.246094 359.023438 373.335938 351.621094 C 374.429688 344.21875 375.746094 336.855469 377.285156 329.53125 C 378.828125 322.210938 380.59375 314.941406 382.578125 307.726562 C 384.566406 300.511719 386.769531 293.363281 389.195312 286.28125 C 391.617188 279.203125 394.253906 272.203125 397.105469 265.285156 C 399.957031 258.367188 403.019531 251.539062 406.285156 244.808594 C 409.554688 238.078125 413.027344 231.449219 416.703125 224.929688 C 420.375 218.414062 424.246094 212.011719 428.3125 205.726562 C 432.375 199.445312 436.628906 193.292969 441.074219 187.269531 C 445.515625 181.246094 450.136719 175.363281 454.9375 169.625 C 459.738281 163.882812 464.710938 158.296875 469.855469 152.859375 C 475 147.421875 480.304688 142.148438 485.769531 137.039062 C 491.234375 131.925781 496.851562 126.984375 502.621094 122.214844 C 508.386719 117.449219 514.296875 112.859375 520.34375 108.453125 C 526.394531 104.046875 532.570312 99.828125 538.878906 95.796875 C 545.183594 91.769531 551.609375 87.933594 558.148438 84.296875 C 564.691406 80.660156 571.335938 77.226562 578.085938 73.996094 C 584.839844 70.765625 591.683594 67.746094 598.617188 64.933594 C 605.554688 62.121094 612.570312 59.523438 619.664062 57.140625 C 626.757812 54.753906 633.917969 52.589844 641.148438 50.644531 C 648.375 48.699219 655.652344 46.976562 662.984375 45.476562 C 670.320312 43.976562 677.691406 42.703125 685.101562 41.652344 C 692.511719 40.601562 699.945312 39.78125 707.40625 39.183594 C 714.867188 38.589844 722.339844 38.222656 729.824219 38.085938 C 737.304688 37.945312 744.785156 38.035156 752.265625 38.355469 C 759.742188 38.675781 767.203125 39.222656 774.648438 39.996094 C 782.089844 40.773438 789.503906 41.773438 796.886719 43.003906 C 804.269531 44.230469 811.609375 45.683594 818.902344 47.359375 C 826.195312 49.039062 833.433594 50.9375 840.609375 53.054688 C 847.789062 55.175781 854.894531 57.511719 861.929688 60.066406 C 868.964844 62.621094 875.914062 65.386719 882.78125 68.367188 C 889.648438 71.34375 896.414062 74.53125 903.085938 77.921875 C 909.757812 81.316406 916.320312 84.910156 922.769531 88.703125 C 929.222656 92.496094 935.550781 96.484375 941.757812 100.664062 C 947.964844 104.847656 954.039062 109.210938 959.980469 113.765625 C 965.921875 118.316406 971.714844 123.046875 977.367188 127.953125 C 983.019531 132.859375 988.515625 137.933594 993.855469 143.175781 C 999.195312 148.417969 1004.371094 153.820312 1009.382812 159.378906 C 1014.390625 164.9375 1019.230469 170.644531 1023.890625 176.5 C 1028.550781 182.351562 1033.03125 188.34375 1037.324219 194.472656 C 1041.621094 200.601562 1045.722656 206.855469 1049.636719 213.234375 C 1053.546875 219.613281 1057.261719 226.105469 1060.777344 232.714844 C 1064.292969 239.320312 1067.605469 246.027344 1070.710938 252.835938 C 1073.816406 259.644531 1076.710938 266.542969 1079.390625 273.527344 C 1082.074219 280.515625 1084.542969 287.574219 1086.796875 294.710938 C 1089.046875 301.847656 1091.078125 309.046875 1092.890625 316.308594 C 1094.699219 323.570312 1096.289062 330.878906 1097.652344 338.234375 C 1099.015625 345.59375 1100.15625 352.988281 1101.066406 360.414062 C 1101.980469 367.839844 1102.664062 375.289062 1103.121094 382.757812 C 1103.578125 390.226562 1103.804688 397.703125 1103.804688 405.1875 Z M 1103.804688 405.1875 " fill-opacity="1" fill-rule="nonzero"/></g><path fill="#ffffff" d="M 1000.3125 660.894531 C 996.046875 665.289062 991.671875 669.574219 987.191406 673.75 C 982.707031 677.925781 978.125 681.984375 973.441406 685.933594 C 968.757812 689.878906 963.976562 693.707031 959.101562 697.414062 C 954.226562 701.121094 949.257812 704.703125 944.203125 708.164062 C 939.148438 711.621094 934.011719 714.953125 928.789062 718.15625 C 923.566406 721.355469 918.269531 724.425781 912.890625 727.363281 C 907.515625 730.300781 902.070312 733.101562 896.554688 735.765625 C 891.039062 738.429688 885.460938 740.957031 879.820312 743.34375 C 874.179688 745.726562 868.480469 747.972656 862.726562 750.070312 C 856.972656 752.171875 851.167969 754.128906 845.316406 755.9375 C 839.464844 757.75 833.570312 759.414062 827.636719 760.929688 C 821.699219 762.445312 815.730469 763.808594 809.726562 765.027344 C 803.726562 766.246094 797.695312 767.3125 791.636719 768.226562 C 785.582031 769.140625 779.503906 769.90625 773.410156 770.515625 C 767.316406 771.128906 761.207031 771.585938 755.089844 771.894531 C 748.972656 772.199219 742.851562 772.351562 736.722656 772.351562 C 730.597656 772.351562 724.476562 772.199219 718.359375 771.894531 C 712.242188 771.585938 706.132812 771.128906 700.039062 770.515625 C 693.945312 769.90625 687.867188 769.140625 681.8125 768.226562 C 675.753906 767.3125 669.722656 766.246094 663.71875 765.027344 C 657.71875 763.808594 651.746094 762.445312 645.8125 760.929688 C 639.878906 759.414062 633.984375 757.75 628.132812 755.9375 C 622.28125 754.128906 616.476562 752.171875 610.722656 750.070312 C 604.96875 747.972656 599.269531 745.726562 593.628906 743.34375 C 587.988281 740.957031 582.410156 738.429688 576.894531 735.765625 C 571.378906 733.101562 565.933594 730.300781 560.554688 727.363281 C 555.179688 724.425781 549.882812 721.355469 544.660156 718.15625 C 539.4375 714.953125 534.300781 711.621094 529.246094 708.164062 C 524.191406 704.703125 519.222656 701.121094 514.347656 697.414062 C 509.472656 693.707031 504.691406 689.878906 500.007812 685.933594 C 495.324219 681.984375 490.742188 677.925781 486.257812 673.75 C 481.777344 669.574219 477.402344 665.289062 473.136719 660.894531 C 474.496094 657.679688 475.914062 654.488281 477.386719 651.324219 C 478.863281 648.164062 480.398438 645.027344 481.988281 641.921875 C 483.578125 638.8125 485.222656 635.738281 486.925781 632.691406 C 488.628906 629.644531 490.386719 626.628906 492.199219 623.644531 C 494.015625 620.664062 495.882812 617.714844 497.800781 614.800781 C 499.722656 611.886719 501.699219 609.007812 503.722656 606.167969 C 505.75 603.324219 507.828125 600.519531 509.957031 597.753906 C 512.085938 594.988281 514.265625 592.261719 516.496094 589.574219 C 518.722656 586.890625 521 584.246094 523.328125 581.640625 C 525.652344 579.039062 528.023438 576.480469 530.445312 573.964844 C 532.863281 571.449219 535.328125 568.976562 537.839844 566.550781 C 540.347656 564.125 542.902344 561.746094 545.5 559.414062 C 548.09375 557.082031 550.734375 554.796875 553.414062 552.5625 C 556.09375 550.324219 558.816406 548.140625 561.578125 546.003906 C 564.335938 543.867188 567.136719 541.78125 569.972656 539.746094 C 572.808594 537.714844 575.683594 535.730469 578.59375 533.804688 C 581.5 531.875 584.445312 530 587.421875 528.179688 C 590.402344 526.359375 593.410156 524.589844 596.453125 522.878906 C 599.496094 521.167969 602.570312 519.515625 605.671875 517.917969 C 608.777344 516.316406 611.90625 514.777344 615.066406 513.292969 C 618.226562 511.808594 621.414062 510.382812 624.625 509.015625 C 627.835938 507.648438 631.074219 506.339844 634.332031 505.09375 C 637.589844 503.84375 640.875 502.652344 644.175781 501.523438 C 647.480469 500.398438 650.800781 499.328125 654.144531 498.320312 C 657.488281 497.3125 660.847656 496.367188 664.222656 495.484375 C 667.601562 494.597656 670.992188 493.777344 674.398438 493.015625 C 677.808594 492.257812 681.226562 491.558594 684.660156 490.925781 C 688.089844 490.289062 691.535156 489.71875 694.988281 489.207031 C 698.441406 488.699219 701.902344 488.253906 705.375 487.871094 C 708.84375 487.488281 712.320312 487.167969 715.800781 486.914062 C 719.28125 486.660156 722.765625 486.46875 726.253906 486.339844 C 729.742188 486.210938 733.234375 486.148438 736.722656 486.148438 C 740.214844 486.148438 743.703125 486.210938 747.195312 486.339844 C 750.683594 486.46875 754.167969 486.660156 757.648438 486.914062 C 761.128906 487.167969 764.605469 487.488281 768.074219 487.871094 C 771.546875 488.253906 775.007812 488.699219 778.460938 489.207031 C 781.914062 489.71875 785.355469 490.289062 788.789062 490.925781 C 792.222656 491.558594 795.640625 492.257812 799.050781 493.015625 C 802.457031 493.777344 805.847656 494.597656 809.226562 495.484375 C 812.601562 496.367188 815.960938 497.3125 819.304688 498.320312 C 822.644531 499.328125 825.96875 500.398438 829.273438 501.523438 C 832.574219 502.652344 835.855469 503.84375 839.117188 505.09375 C 842.375 506.339844 845.613281 507.648438 848.824219 509.015625 C 852.035156 510.382812 855.222656 511.808594 858.382812 513.292969 C 861.542969 514.777344 864.671875 516.316406 867.777344 517.917969 C 870.878906 519.515625 873.953125 521.167969 876.996094 522.878906 C 880.039062 524.589844 883.046875 526.359375 886.027344 528.179688 C 889.003906 530 891.949219 531.875 894.855469 533.804688 C 897.765625 535.730469 900.640625 537.714844 903.476562 539.746094 C 906.3125 541.78125 909.113281 543.867188 911.871094 546.003906 C 914.632812 548.140625 917.355469 550.324219 920.035156 552.5625 C 922.714844 554.796875 925.355469 557.082031 927.949219 559.414062 C 930.546875 561.746094 933.101562 564.125 935.609375 566.550781 C 938.121094 568.976562 940.585938 571.449219 943.003906 573.964844 C 945.425781 576.480469 947.796875 579.039062 950.121094 581.640625 C 952.449219 584.246094 954.726562 586.890625 956.953125 589.574219 C 959.183594 592.261719 961.363281 594.988281 963.492188 597.753906 C 965.621094 600.519531 967.699219 603.324219 969.726562 606.167969 C 971.75 609.007812 973.726562 611.886719 975.644531 614.800781 C 977.566406 617.714844 979.433594 620.664062 981.246094 623.644531 C 983.0625 626.628906 984.820312 629.644531 986.523438 632.691406 C 988.226562 635.738281 989.871094 638.8125 991.460938 641.921875 C 993.050781 645.027344 994.585938 648.164062 996.058594 651.324219 C 997.535156 654.488281 998.953125 657.679688 1000.3125 660.894531 Z M 1000.3125 660.894531 " fill-opacity="1" fill-rule="nonzero"/><path fill="#ff9561" d="M 736.582031 405.132812 C 738.273438 405.132812 739.960938 405.214844 741.648438 405.382812 C 743.332031 405.546875 745.003906 405.792969 746.664062 406.125 C 748.328125 406.457031 749.96875 406.867188 751.585938 407.359375 C 753.207031 407.847656 754.800781 408.417969 756.363281 409.066406 C 757.929688 409.714844 759.457031 410.4375 760.949219 411.234375 C 762.445312 412.035156 763.894531 412.902344 765.300781 413.84375 C 766.710938 414.785156 768.066406 415.789062 769.375 416.863281 C 770.683594 417.9375 771.9375 419.074219 773.136719 420.269531 C 774.332031 421.46875 775.46875 422.722656 776.542969 424.03125 C 777.617188 425.339844 778.625 426.695312 779.566406 428.105469 C 780.503906 429.511719 781.375 430.960938 782.171875 432.453125 C 782.972656 433.949219 783.695312 435.476562 784.34375 437.039062 C 784.988281 438.605469 785.558594 440.195312 786.050781 441.816406 C 786.542969 443.4375 786.953125 445.078125 787.285156 446.738281 C 787.613281 448.398438 787.863281 450.070312 788.027344 451.753906 C 788.195312 453.4375 788.277344 455.128906 788.277344 456.820312 L 788.277344 502.410156 C 788.277344 504.105469 788.195312 505.792969 788.027344 507.476562 C 787.863281 509.164062 787.613281 510.835938 787.285156 512.496094 C 786.953125 514.15625 786.542969 515.796875 786.050781 517.417969 C 785.558594 519.035156 784.988281 520.628906 784.34375 522.191406 C 783.695312 523.757812 782.972656 525.285156 782.171875 526.777344 C 781.375 528.269531 780.503906 529.722656 779.566406 531.128906 C 778.625 532.535156 777.617188 533.894531 776.542969 535.203125 C 775.46875 536.511719 774.332031 537.765625 773.136719 538.960938 C 771.9375 540.160156 770.683594 541.292969 769.375 542.367188 C 768.066406 543.441406 766.710938 544.449219 765.300781 545.390625 C 763.894531 546.332031 762.445312 547.199219 760.949219 547.996094 C 759.457031 548.796875 757.929688 549.519531 756.363281 550.167969 C 754.800781 550.8125 753.207031 551.382812 751.585938 551.875 C 749.96875 552.367188 748.328125 552.777344 746.664062 553.109375 C 745.003906 553.4375 743.332031 553.6875 741.648438 553.851562 C 739.960938 554.019531 738.273438 554.101562 736.582031 554.101562 C 734.886719 554.101562 733.199219 554.019531 731.511719 553.851562 C 729.828125 553.6875 728.15625 553.4375 726.496094 553.109375 C 724.835938 552.777344 723.195312 552.367188 721.574219 551.875 C 719.953125 551.382812 718.359375 550.8125 716.796875 550.167969 C 715.234375 549.519531 713.703125 548.796875 712.210938 547.996094 C 710.71875 547.199219 709.265625 546.332031 707.859375 545.390625 C 706.453125 544.449219 705.09375 543.441406 703.785156 542.367188 C 702.476562 541.292969 701.222656 540.160156 700.023438 538.960938 C 698.828125 537.765625 697.691406 536.511719 696.617188 535.203125 C 695.542969 533.894531 694.535156 532.535156 693.597656 531.128906 C 692.65625 529.722656 691.785156 528.269531 690.988281 526.777344 C 690.191406 525.285156 689.464844 523.757812 688.820312 522.191406 C 688.171875 520.628906 687.601562 519.035156 687.109375 517.417969 C 686.617188 515.796875 686.207031 514.15625 685.875 512.496094 C 685.546875 510.835938 685.296875 509.164062 685.132812 507.476562 C 684.964844 505.792969 684.882812 504.105469 684.882812 502.410156 L 684.882812 456.820312 C 684.882812 455.128906 684.964844 453.4375 685.132812 451.753906 C 685.296875 450.070312 685.546875 448.398438 685.875 446.738281 C 686.207031 445.078125 686.617188 443.4375 687.109375 441.816406 C 687.601562 440.195312 688.171875 438.605469 688.820312 437.039062 C 689.464844 435.476562 690.191406 433.949219 690.988281 432.453125 C 691.785156 430.960938 692.65625 429.511719 693.597656 428.105469 C 694.535156 426.695312 695.542969 425.339844 696.617188 424.03125 C 697.691406 422.722656 698.828125 421.46875 700.023438 420.269531 C 701.222656 419.074219 702.476562 417.9375 703.785156 416.863281 C 705.09375 415.789062 706.453125 414.785156 707.859375 413.84375 C 709.265625 412.902344 710.71875 412.035156 712.210938 411.234375 C 713.703125 410.4375 715.234375 409.714844 716.796875 409.066406 C 718.359375 408.417969 719.953125 407.847656 721.574219 407.359375 C 723.195312 406.867188 724.835938 406.457031 726.496094 406.125 C 728.15625 405.792969 729.828125 405.546875 731.511719 405.382812 C 733.199219 405.214844 734.886719 405.132812 736.582031 405.132812 Z M 736.582031 405.132812 " fill-opacity="1" fill-rule="nonzero"/><path fill="#002c5c" d="M 625.261719 405.132812 C 530.761719 359.191406 537.808594 220.398438 602.863281 201.253906 C 610.628906 142.25 778.355469 108.605469 861.183594 160.367188 C 944.007812 212.128906 919.167969 351.871094 853.929688 365.847656 " fill-opacity="1" fill-rule="nonzero"/><path fill="#ff9561" d="M 642.351562 372.589844 C 642.351562 373.65625 642.300781 374.71875 642.195312 375.78125 C 642.089844 376.84375 641.933594 377.898438 641.726562 378.945312 C 641.519531 379.996094 641.257812 381.027344 640.949219 382.050781 C 640.640625 383.070312 640.28125 384.074219 639.871094 385.0625 C 639.460938 386.046875 639.007812 387.011719 638.503906 387.953125 C 638 388.894531 637.453125 389.808594 636.859375 390.695312 C 636.265625 391.585938 635.628906 392.441406 634.953125 393.265625 C 634.273438 394.089844 633.558594 394.882812 632.804688 395.636719 C 632.050781 396.390625 631.257812 397.109375 630.433594 397.785156 C 629.609375 398.460938 628.75 399.097656 627.863281 399.691406 C 626.976562 400.285156 626.0625 400.832031 625.121094 401.335938 C 624.179688 401.839844 623.214844 402.292969 622.226562 402.703125 C 621.242188 403.109375 620.238281 403.46875 619.214844 403.78125 C 618.195312 404.089844 617.160156 404.347656 616.113281 404.558594 C 615.066406 404.765625 614.007812 404.921875 612.945312 405.027344 C 611.882812 405.132812 610.820312 405.183594 609.75 405.183594 C 608.683594 405.183594 607.617188 405.132812 606.554688 405.027344 C 605.492188 404.921875 604.4375 404.765625 603.390625 404.558594 C 602.34375 404.347656 601.308594 404.089844 600.289062 403.78125 C 599.265625 403.46875 598.261719 403.109375 597.277344 402.703125 C 596.289062 402.292969 595.324219 401.839844 594.382812 401.335938 C 593.441406 400.832031 592.527344 400.285156 591.640625 399.691406 C 590.75 399.097656 589.894531 398.460938 589.070312 397.785156 C 588.246094 397.109375 587.453125 396.390625 586.699219 395.636719 C 585.945312 394.882812 585.226562 394.09375 584.550781 393.265625 C 583.875 392.441406 583.238281 391.585938 582.644531 390.695312 C 582.050781 389.808594 581.503906 388.894531 581 387.953125 C 580.496094 387.011719 580.039062 386.046875 579.632812 385.0625 C 579.222656 384.074219 578.863281 383.070312 578.554688 382.050781 C 578.246094 381.027344 577.984375 379.996094 577.777344 378.945312 C 577.570312 377.898438 577.414062 376.84375 577.308594 375.78125 C 577.203125 374.71875 577.152344 373.65625 577.152344 372.589844 C 577.152344 371.519531 577.203125 370.457031 577.308594 369.394531 C 577.414062 368.332031 577.570312 367.277344 577.777344 366.230469 C 577.984375 365.183594 578.246094 364.148438 578.554688 363.125 C 578.863281 362.105469 579.222656 361.101562 579.632812 360.113281 C 580.039062 359.128906 580.496094 358.164062 581 357.222656 C 581.503906 356.28125 582.050781 355.367188 582.644531 354.480469 C 583.238281 353.589844 583.875 352.734375 584.550781 351.910156 C 585.226562 351.085938 585.945312 350.292969 586.699219 349.539062 C 587.453125 348.785156 588.246094 348.066406 589.070312 347.390625 C 589.894531 346.714844 590.75 346.078125 591.640625 345.484375 C 592.527344 344.890625 593.441406 344.34375 594.382812 343.839844 C 595.324219 343.335938 596.289062 342.882812 597.277344 342.472656 C 598.261719 342.066406 599.265625 341.707031 600.289062 341.394531 C 601.308594 341.085938 602.34375 340.828125 603.390625 340.617188 C 604.4375 340.410156 605.492188 340.253906 606.554688 340.148438 C 607.617188 340.042969 608.683594 339.992188 609.75 339.992188 C 610.820312 339.992188 611.882812 340.042969 612.945312 340.148438 C 614.007812 340.253906 615.066406 340.410156 616.113281 340.617188 C 617.160156 340.828125 618.195312 341.085938 619.214844 341.394531 C 620.238281 341.707031 621.242188 342.066406 622.226562 342.472656 C 623.214844 342.882812 624.179688 343.335938 625.121094 343.839844 C 626.0625 344.34375 626.976562 344.890625 627.863281 345.484375 C 628.75 346.078125 629.609375 346.714844 630.433594 347.390625 C 631.257812 348.066406 632.050781 348.785156 632.804688 349.539062 C 633.558594 350.292969 634.273438 351.085938 634.953125 351.910156 C 635.628906 352.734375 636.265625 353.589844 636.859375 354.480469 C 637.453125 355.367188 638 356.28125 638.503906 357.222656 C 639.007812 358.164062 639.460938 359.128906 639.871094 360.113281 C 640.28125 361.101562 640.640625 362.105469 640.949219 363.125 C 641.257812 364.148438 641.519531 365.183594 641.726562 366.230469 C 641.933594 367.277344 642.089844 368.332031 642.195312 369.394531 C 642.300781 370.457031 642.351562 371.519531 642.351562 372.589844 Z M 642.351562 372.589844 " fill-opacity="1" fill-rule="nonzero"/><path fill="#ff9561" d="M 892.976562 372.589844 C 892.976562 373.65625 892.921875 374.71875 892.816406 375.78125 C 892.714844 376.84375 892.558594 377.898438 892.347656 378.945312 C 892.140625 379.996094 891.882812 381.027344 891.570312 382.050781 C 891.261719 383.070312 890.902344 384.074219 890.492188 385.0625 C 890.085938 386.046875 889.628906 387.011719 889.125 387.953125 C 888.621094 388.894531 888.074219 389.808594 887.480469 390.695312 C 886.886719 391.585938 886.253906 392.441406 885.574219 393.265625 C 884.898438 394.089844 884.179688 394.882812 883.425781 395.636719 C 882.671875 396.390625 881.882812 397.109375 881.054688 397.785156 C 880.230469 398.460938 879.375 399.097656 878.484375 399.691406 C 877.597656 400.285156 876.683594 400.832031 875.742188 401.335938 C 874.800781 401.839844 873.835938 402.292969 872.851562 402.703125 C 871.863281 403.109375 870.859375 403.46875 869.835938 403.78125 C 868.816406 404.089844 867.78125 404.347656 866.734375 404.558594 C 865.6875 404.765625 864.632812 404.921875 863.570312 405.027344 C 862.507812 405.132812 861.441406 405.183594 860.375 405.183594 C 859.304688 405.183594 858.242188 405.132812 857.179688 405.027344 C 856.117188 404.921875 855.0625 404.765625 854.015625 404.558594 C 852.964844 404.347656 851.933594 404.089844 850.910156 403.78125 C 849.886719 403.46875 848.882812 403.109375 847.898438 402.703125 C 846.910156 402.292969 845.949219 401.839844 845.007812 401.335938 C 844.0625 400.832031 843.148438 400.285156 842.261719 399.691406 C 841.375 399.097656 840.515625 398.460938 839.691406 397.785156 C 838.867188 397.109375 838.078125 396.390625 837.320312 395.636719 C 836.566406 394.882812 835.851562 394.09375 835.171875 393.265625 C 834.496094 392.441406 833.859375 391.585938 833.265625 390.695312 C 832.675781 389.808594 832.125 388.894531 831.621094 387.953125 C 831.117188 387.011719 830.664062 386.046875 830.253906 385.0625 C 829.847656 384.074219 829.488281 383.070312 829.175781 382.050781 C 828.867188 381.027344 828.609375 379.996094 828.398438 378.945312 C 828.191406 377.898438 828.035156 376.84375 827.929688 375.78125 C 827.824219 374.71875 827.773438 373.65625 827.773438 372.589844 C 827.773438 371.519531 827.824219 370.457031 827.929688 369.394531 C 828.035156 368.332031 828.191406 367.277344 828.398438 366.230469 C 828.609375 365.183594 828.867188 364.148438 829.175781 363.125 C 829.488281 362.105469 829.847656 361.101562 830.253906 360.113281 C 830.664062 359.128906 831.117188 358.164062 831.621094 357.222656 C 832.125 356.28125 832.675781 355.367188 833.265625 354.480469 C 833.859375 353.589844 834.496094 352.734375 835.171875 351.910156 C 835.851562 351.085938 836.566406 350.292969 837.320312 349.539062 C 838.078125 348.785156 838.867188 348.066406 839.691406 347.390625 C 840.515625 346.714844 841.375 346.078125 842.261719 345.484375 C 843.148438 344.890625 844.0625 344.34375 845.007812 343.839844 C 845.949219 343.335938 846.910156 342.882812 847.898438 342.472656 C 848.882812 342.066406 849.886719 341.707031 850.910156 341.394531 C 851.933594 341.085938 852.964844 340.828125 854.015625 340.617188 C 855.0625 340.410156 856.117188 340.253906 857.179688 340.148438 C 858.242188 340.042969 859.304688 339.992188 860.375 339.992188 C 861.441406 339.992188 862.507812 340.042969 863.570312 340.148438 C 864.632812 340.253906 865.6875 340.410156 866.734375 340.617188 C 867.78125 340.828125 868.816406 341.085938 869.835938 341.394531 C 870.859375 341.707031 871.863281 342.066406 872.851562 342.472656 C 873.835938 342.882812 874.800781 343.335938 875.742188 343.839844 C 876.683594 344.34375 877.597656 344.890625 878.484375 345.484375 C 879.375 346.078125 880.230469 346.714844 881.054688 347.390625 C 881.882812 348.066406 882.671875 348.785156 883.425781 349.539062 C 884.179688 350.292969 884.898438 351.085938 885.574219 351.910156 C 886.253906 352.734375 886.886719 353.589844 887.480469 354.480469 C 888.074219 355.367188 888.621094 356.28125 889.125 357.222656 C 889.628906 358.164062 890.085938 359.128906 890.492188 360.113281 C 890.902344 361.101562 891.261719 362.105469 891.570312 363.125 C 891.882812 364.148438 892.140625 365.183594 892.347656 366.230469 C 892.558594 367.277344 892.714844 368.332031 892.816406 369.394531 C 892.921875 370.457031 892.976562 371.519531 892.976562 372.589844 Z M 892.976562 372.589844 " fill-opacity="1" fill-rule="nonzero"/><path fill="#ffc9ac" d="M 736.722656 199.425781 C 738.800781 199.425781 740.878906 199.476562 742.953125 199.578125 C 745.027344 199.679688 747.101562 199.832031 749.167969 200.035156 C 751.234375 200.238281 753.296875 200.492188 755.351562 200.796875 C 757.410156 201.101562 759.457031 201.457031 761.492188 201.863281 C 763.53125 202.269531 765.558594 202.722656 767.574219 203.230469 C 769.589844 203.734375 771.589844 204.289062 773.582031 204.890625 C 775.570312 205.492188 777.542969 206.144531 779.496094 206.84375 C 781.453125 207.546875 783.390625 208.292969 785.3125 209.085938 C 787.230469 209.882812 789.132812 210.722656 791.007812 211.613281 C 792.886719 212.5 794.742188 213.433594 796.574219 214.414062 C 798.410156 215.394531 800.214844 216.417969 802 217.484375 C 803.78125 218.554688 805.535156 219.664062 807.261719 220.820312 C 808.992188 221.972656 810.691406 223.167969 812.359375 224.40625 C 814.027344 225.644531 815.664062 226.921875 817.273438 228.242188 C 818.878906 229.558594 820.449219 230.914062 821.992188 232.3125 C 823.53125 233.707031 825.035156 235.136719 826.503906 236.609375 C 827.972656 238.078125 829.40625 239.582031 830.800781 241.121094 C 832.195312 242.660156 833.554688 244.234375 834.871094 245.839844 C 836.191406 247.445312 837.46875 249.082031 838.707031 250.75 C 839.945312 252.421875 841.140625 254.117188 842.292969 255.847656 C 843.449219 257.574219 844.5625 259.328125 845.628906 261.109375 C 846.695312 262.890625 847.722656 264.699219 848.699219 266.53125 C 849.679688 268.363281 850.613281 270.21875 851.503906 272.097656 C 852.390625 273.976562 853.234375 275.875 854.027344 277.792969 C 854.824219 279.714844 855.570312 281.652344 856.269531 283.609375 C 856.972656 285.5625 857.621094 287.535156 858.226562 289.523438 C 858.828125 291.511719 859.382812 293.515625 859.886719 295.53125 C 860.394531 297.546875 860.847656 299.570312 861.253906 301.609375 C 861.660156 303.648438 862.015625 305.695312 862.320312 307.75 C 862.625 309.804688 862.878906 311.867188 863.082031 313.933594 C 863.285156 316 863.4375 318.074219 863.539062 320.148438 C 863.640625 322.222656 863.691406 324.300781 863.691406 326.378906 L 863.691406 359.191406 C 863.691406 361.269531 863.640625 363.347656 863.539062 365.421875 C 863.4375 367.496094 863.285156 369.570312 863.082031 371.636719 C 862.878906 373.703125 862.625 375.765625 862.320312 377.820312 C 862.015625 379.875 861.660156 381.921875 861.253906 383.960938 C 860.847656 385.996094 860.394531 388.023438 859.886719 390.039062 C 859.382812 392.054688 858.828125 394.058594 858.226562 396.046875 C 857.621094 398.035156 856.972656 400.007812 856.269531 401.960938 C 855.570312 403.917969 854.824219 405.855469 854.027344 407.777344 C 853.234375 409.695312 852.390625 411.59375 851.503906 413.472656 C 850.613281 415.351562 849.679688 417.207031 848.699219 419.039062 C 847.722656 420.871094 846.695312 422.675781 845.628906 424.460938 C 844.5625 426.242188 843.449219 427.996094 842.292969 429.722656 C 841.140625 431.453125 839.945312 433.148438 838.707031 434.820312 C 837.46875 436.488281 836.191406 438.125 834.871094 439.730469 C 833.554688 441.335938 832.195312 442.910156 830.800781 444.449219 C 829.40625 445.988281 827.972656 447.492188 826.503906 448.960938 C 825.035156 450.429688 823.53125 451.863281 821.992188 453.257812 C 820.449219 454.652344 818.878906 456.011719 817.273438 457.328125 C 815.664062 458.648438 814.027344 459.925781 812.359375 461.164062 C 810.691406 462.398438 808.992188 463.597656 807.261719 464.75 C 805.535156 465.90625 803.78125 467.015625 802 468.085938 C 800.214844 469.152344 798.410156 470.175781 796.574219 471.15625 C 794.742188 472.136719 792.886719 473.070312 791.007812 473.957031 C 789.132812 474.84375 787.230469 475.6875 785.3125 476.480469 C 783.390625 477.277344 781.453125 478.023438 779.496094 478.726562 C 777.542969 479.425781 775.570312 480.078125 773.582031 480.679688 C 771.589844 481.28125 769.589844 481.835938 767.574219 482.339844 C 765.558594 482.847656 763.53125 483.300781 761.492188 483.707031 C 759.457031 484.113281 757.410156 484.46875 755.351562 484.773438 C 753.296875 485.078125 751.234375 485.332031 749.167969 485.535156 C 747.101562 485.738281 745.027344 485.890625 742.953125 485.992188 C 740.878906 486.09375 738.800781 486.144531 736.722656 486.144531 C 734.644531 486.144531 732.566406 486.09375 730.492188 485.992188 C 728.417969 485.890625 726.34375 485.738281 724.277344 485.535156 C 722.210938 485.332031 720.148438 485.078125 718.09375 484.773438 C 716.035156 484.46875 713.988281 484.113281 711.953125 483.707031 C 709.914062 483.300781 707.886719 482.847656 705.871094 482.339844 C 703.855469 481.835938 701.851562 481.28125 699.863281 480.679688 C 697.875 480.078125 695.902344 479.425781 693.949219 478.726562 C 691.992188 478.023438 690.050781 477.277344 688.132812 476.480469 C 686.214844 475.6875 684.3125 474.84375 682.433594 473.957031 C 680.558594 473.070312 678.703125 472.136719 676.867188 471.15625 C 675.035156 470.175781 673.230469 469.152344 671.445312 468.085938 C 669.664062 467.015625 667.910156 465.90625 666.179688 464.75 C 664.453125 463.597656 662.753906 462.398438 661.085938 461.164062 C 659.417969 459.925781 657.78125 458.648438 656.171875 457.328125 C 654.566406 456.011719 652.992188 454.652344 651.453125 453.257812 C 649.914062 451.863281 648.410156 450.429688 646.941406 448.960938 C 645.472656 447.492188 644.039062 445.988281 642.644531 444.449219 C 641.246094 442.910156 639.890625 441.335938 638.574219 439.730469 C 637.253906 438.125 635.976562 436.488281 634.738281 434.820312 C 633.5 433.148438 632.304688 431.453125 631.148438 429.722656 C 629.996094 427.996094 628.882812 426.242188 627.816406 424.460938 C 626.746094 422.675781 625.722656 420.871094 624.746094 419.039062 C 623.765625 417.207031 622.832031 415.351562 621.941406 413.472656 C 621.054688 411.59375 620.210938 409.695312 619.417969 407.777344 C 618.621094 405.855469 617.875 403.917969 617.175781 401.960938 C 616.472656 400.007812 615.820312 398.035156 615.21875 396.046875 C 614.617188 394.058594 614.0625 392.054688 613.558594 390.039062 C 613.050781 388.023438 612.597656 385.996094 612.191406 383.960938 C 611.785156 381.921875 611.429688 379.875 611.125 377.820312 C 610.820312 375.765625 610.566406 373.703125 610.363281 371.636719 C 610.160156 369.570312 610.007812 367.496094 609.90625 365.421875 C 609.800781 363.347656 609.75 361.269531 609.75 359.191406 L 609.75 326.378906 C 609.75 324.300781 609.800781 322.222656 609.90625 320.148438 C 610.007812 318.074219 610.160156 316 610.363281 313.933594 C 610.566406 311.867188 610.820312 309.804688 611.125 307.75 C 611.429688 305.695312 611.785156 303.648438 612.191406 301.609375 C 612.597656 299.570312 613.050781 297.546875 613.558594 295.53125 C 614.0625 293.515625 614.617188 291.511719 615.21875 289.523438 C 615.820312 287.535156 616.472656 285.5625 617.175781 283.609375 C 617.875 281.652344 618.621094 279.714844 619.417969 277.792969 C 620.210938 275.875 621.054688 273.976562 621.941406 272.097656 C 622.832031 270.21875 623.765625 268.363281 624.746094 266.53125 C 625.722656 264.699219 626.746094 262.890625 627.816406 261.109375 C 628.882812 259.328125 629.996094 257.574219 631.148438 255.847656 C 632.304688 254.117188 633.5 252.421875 634.738281 250.75 C 635.976562 249.082031 637.253906 247.445312 638.574219 245.839844 C 639.890625 244.234375 641.246094 242.660156 642.644531 241.121094 C 644.039062 239.582031 645.472656 238.078125 646.941406 236.609375 C 648.410156 235.136719 649.914062 233.707031 651.453125 232.3125 C 652.992188 230.914062 654.566406 229.558594 656.171875 228.242188 C 657.78125 226.921875 659.417969 225.644531 661.085938 224.40625 C 662.753906 223.167969 664.453125 221.972656 666.179688 220.820312 C 667.910156 219.664062 669.664062 218.554688 671.445312 217.484375 C 673.230469 216.417969 675.035156 215.394531 676.867188 214.414062 C 678.703125 213.433594 680.558594 212.5 682.433594 211.613281 C 684.3125 210.722656 686.214844 209.882812 688.132812 209.085938 C 690.050781 208.292969 691.992188 207.546875 693.949219 206.84375 C 695.902344 206.144531 697.875 205.492188 699.863281 204.890625 C 701.851562 204.289062 703.855469 203.734375 705.871094 203.230469 C 707.886719 202.722656 709.914062 202.269531 711.953125 201.863281 C 713.988281 201.457031 716.035156 201.101562 718.09375 200.796875 C 720.148438 200.492188 722.210938 200.238281 724.277344 200.035156 C 726.34375 199.832031 728.417969 199.679688 730.492188 199.578125 C 732.566406 199.476562 734.644531 199.425781 736.722656 199.425781 Z M 736.722656 199.425781 " fill-opacity="1" fill-rule="nonzero"/><path fill="#002c5c" d="M 609.75 359.191406 C 655.609375 359.191406 665.957031 273.449219 665.957031 273.449219 C 665.957031 273.449219 673.085938 337.230469 863.695312 326.378906 C 863.695312 326.378906 877.722656 238.964844 829.4375 207.929688 C 781.152344 176.890625 656.300781 196.898438 618.363281 236.898438 C 580.421875 276.898438 609.75 359.191406 609.75 359.191406 Z M 609.75 359.191406 " fill-opacity="1" fill-rule="nonzero"/><g clip-path="url(#010b4f37b5)"><g clip-path="url(#59d6786445)"><path fill="#7054ff" d="M 582.015625 106.316406 L 597.261719 106.316406 L 597.261719 121.5625 L 582.015625 121.5625 Z M 582.015625 106.316406 " fill-opacity="1" fill-rule="nonzero"/></g></g></svg>