<svg xmlns="http://www.w3.org/2000/svg" xmlns:xlink="http://www.w3.org/1999/xlink" width="1920" zoomAndPan="magnify" viewBox="0 0 1440 809.999993" height="1080" preserveAspectRatio="xMidYMid meet" version="1.0"><defs><clipPath id="cd2217834d"><path d="M 417 8 L 1022 8 L 1022 801.53125 L 417 801.53125 Z M 417 8 " clip-rule="nonzero"/></clipPath><clipPath id="45dc59a8f4"><path d="M 612.496094 149.175781 L 627.742188 149.175781 L 627.742188 164.421875 L 612.496094 164.421875 Z M 612.496094 149.175781 " clip-rule="nonzero"/></clipPath><clipPath id="06ad27ad87"><path d="M 620.117188 149.175781 C 615.910156 149.175781 612.496094 152.589844 612.496094 156.800781 C 612.496094 161.011719 615.910156 164.421875 620.117188 164.421875 C 624.328125 164.421875 627.742188 161.011719 627.742188 156.800781 C 627.742188 152.589844 624.328125 149.175781 620.117188 149.175781 Z M 620.117188 149.175781 " clip-rule="nonzero"/></clipPath></defs><g clip-path="url(#cd2217834d)"><path fill="#ffffff" d="M 711.523438 422.871094 L 726.195312 422.871094 C 727.390625 422.871094 728.585938 422.933594 729.777344 423.050781 C 730.964844 423.171875 732.148438 423.347656 733.324219 423.582031 C 734.496094 423.820312 735.65625 424.109375 736.800781 424.460938 C 737.945312 424.808594 739.070312 425.210938 740.175781 425.671875 C 741.28125 426.128906 742.359375 426.640625 743.417969 427.207031 C 744.472656 427.773438 745.496094 428.386719 746.492188 429.050781 C 747.488281 429.71875 748.445312 430.429688 749.371094 431.1875 C 750.296875 431.949219 751.183594 432.75 752.027344 433.597656 C 752.875 434.445312 753.679688 435.328125 754.4375 436.253906 C 755.195312 437.179688 755.910156 438.140625 756.574219 439.136719 C 757.238281 440.128906 757.855469 441.15625 758.421875 442.210938 C 758.984375 443.265625 759.496094 444.34375 759.957031 445.449219 C 760.414062 446.554688 760.820312 447.679688 761.167969 448.828125 C 761.515625 449.972656 761.808594 451.128906 762.042969 452.304688 C 762.277344 453.476562 762.453125 454.660156 762.574219 455.851562 C 762.691406 457.042969 762.753906 458.234375 762.753906 459.433594 C 762.753906 460.195312 762.792969 460.957031 762.867188 461.714844 C 762.941406 462.472656 763.054688 463.226562 763.203125 463.976562 C 763.351562 464.722656 763.535156 465.464844 763.757812 466.191406 C 763.980469 466.921875 764.238281 467.640625 764.527344 468.34375 C 764.820312 469.050781 765.144531 469.738281 765.503906 470.410156 C 765.863281 471.082031 766.257812 471.738281 766.679688 472.371094 C 767.105469 473.003906 767.558594 473.617188 768.042969 474.207031 C 768.527344 474.796875 769.039062 475.359375 769.578125 475.898438 C 770.117188 476.4375 770.679688 476.949219 771.269531 477.433594 C 771.859375 477.917969 772.472656 478.371094 773.105469 478.796875 C 773.738281 479.21875 774.394531 479.613281 775.066406 479.972656 C 775.738281 480.332031 776.425781 480.65625 777.132812 480.949219 C 777.835938 481.238281 778.554688 481.496094 779.285156 481.71875 C 780.011719 481.9375 780.753906 482.125 781.5 482.273438 C 782.25 482.421875 783 482.535156 783.761719 482.609375 C 784.519531 482.683594 785.28125 482.722656 786.042969 482.722656 C 786.804688 482.722656 787.566406 482.683594 788.328125 482.609375 C 789.085938 482.535156 789.839844 482.421875 790.585938 482.273438 C 791.335938 482.125 792.074219 481.9375 792.804688 481.71875 C 793.535156 481.496094 794.25 481.238281 794.957031 480.949219 C 795.660156 480.65625 796.347656 480.332031 797.019531 479.972656 C 797.695312 479.613281 798.347656 479.21875 798.980469 478.796875 C 799.617188 478.371094 800.226562 477.917969 800.816406 477.433594 C 801.40625 476.949219 801.972656 476.4375 802.511719 475.898438 C 803.050781 475.359375 803.5625 474.796875 804.046875 474.207031 C 804.527344 473.617188 804.984375 473.003906 805.40625 472.371094 C 805.832031 471.738281 806.222656 471.082031 806.582031 470.410156 C 806.941406 469.738281 807.265625 469.050781 807.558594 468.34375 C 807.851562 467.640625 808.105469 466.921875 808.328125 466.191406 C 808.550781 465.464844 808.734375 464.722656 808.882812 463.976562 C 809.03125 463.226562 809.144531 462.472656 809.21875 461.714844 C 809.292969 460.957031 809.332031 460.195312 809.332031 459.433594 C 809.328125 457.058594 809.21875 454.6875 809.011719 452.324219 C 808.804688 449.957031 808.496094 447.605469 808.089844 445.265625 C 807.679688 442.925781 807.171875 440.609375 806.566406 438.3125 C 805.960938 436.015625 805.257812 433.75 804.457031 431.515625 C 803.65625 429.28125 802.761719 427.082031 801.773438 424.921875 C 800.789062 422.765625 799.710938 420.652344 798.539062 418.582031 C 797.371094 416.515625 796.117188 414.503906 794.777344 412.542969 C 793.4375 410.582031 792.015625 408.683594 790.515625 406.84375 C 789.011719 405.003906 787.433594 403.234375 785.78125 401.53125 C 784.125 399.824219 782.402344 398.195312 780.609375 396.636719 C 778.816406 395.082031 776.960938 393.605469 775.039062 392.207031 C 773.121094 390.808594 771.144531 389.496094 769.113281 388.265625 C 767.082031 387.035156 765.003906 385.894531 762.875 384.84375 C 760.746094 383.792969 758.574219 382.832031 756.363281 381.964844 C 754.152344 381.101562 751.910156 380.328125 749.632812 379.65625 C 747.355469 378.980469 745.054688 378.402344 742.726562 377.925781 C 744.359375 361.15625 739.234375 343.925781 719.441406 343.226562 C 699.414062 343.925781 694.523438 361.15625 696.152344 378.390625 C 692.96875 379.15625 689.851562 380.132812 686.800781 381.328125 C 683.75 382.523438 680.796875 383.917969 677.941406 385.519531 C 675.082031 387.121094 672.347656 388.910156 669.738281 390.886719 C 667.128906 392.867188 664.664062 395.011719 662.351562 397.332031 C 660.035156 399.648438 657.890625 402.113281 655.914062 404.722656 C 653.941406 407.335938 652.152344 410.074219 650.554688 412.929688 C 648.957031 415.789062 647.5625 418.746094 646.371094 421.796875 C 645.179688 424.847656 644.203125 427.964844 643.441406 431.148438 C 642.679688 434.335938 642.136719 437.558594 641.820312 440.816406 C 641.503906 444.078125 641.410156 447.34375 641.542969 450.617188 C 641.671875 453.886719 642.027344 457.136719 642.609375 460.359375 C 643.1875 463.582031 643.984375 466.75 645.003906 469.863281 C 646.019531 472.976562 647.242188 476.007812 648.675781 478.953125 C 650.109375 481.898438 651.738281 484.730469 653.5625 487.449219 C 655.386719 490.171875 657.386719 492.753906 659.566406 495.199219 C 661.746094 497.644531 664.082031 499.925781 666.578125 502.050781 L 742.261719 564.925781 C 743.289062 565.777344 744.238281 566.707031 745.109375 567.714844 C 745.980469 568.71875 746.765625 569.792969 747.464844 570.925781 C 748.160156 572.0625 748.757812 573.25 749.261719 574.484375 C 749.761719 575.71875 750.160156 576.984375 750.453125 578.285156 C 750.746094 579.582031 750.929688 580.898438 751.007812 582.230469 C 751.082031 583.558594 751.050781 584.886719 750.910156 586.210938 C 750.765625 587.535156 750.519531 588.839844 750.160156 590.125 C 749.804688 591.40625 749.347656 592.652344 748.785156 593.863281 C 748.222656 595.070312 747.566406 596.226562 746.816406 597.324219 C 746.066406 598.425781 745.230469 599.457031 744.308594 600.421875 C 743.386719 601.382812 742.394531 602.265625 741.328125 603.0625 C 740.261719 603.863281 739.136719 604.570312 737.957031 605.183594 C 736.773438 605.800781 735.550781 606.3125 734.28125 606.726562 C 733.015625 607.140625 731.722656 607.445312 730.40625 607.648438 C 729.089844 607.847656 727.765625 607.941406 726.433594 607.921875 C 725.101562 607.90625 723.777344 607.777344 722.46875 607.542969 C 721.488281 607.195312 720.480469 607.019531 719.441406 607.019531 C 718.402344 607.019531 717.390625 607.195312 716.414062 607.542969 C 715.261719 607.675781 714.109375 607.753906 712.953125 607.777344 C 711.796875 607.800781 710.640625 607.769531 709.488281 607.6875 C 708.335938 607.601562 707.1875 607.464844 706.046875 607.273438 C 704.90625 607.085938 703.777344 606.839844 702.65625 606.542969 C 701.539062 606.25 700.4375 605.902344 699.351562 605.5 C 698.265625 605.101562 697.199219 604.65625 696.15625 604.15625 C 695.113281 603.65625 694.09375 603.113281 693.101562 602.519531 C 692.105469 601.925781 691.144531 601.289062 690.210938 600.605469 C 689.277344 599.921875 688.375 599.199219 687.511719 598.429688 C 686.644531 597.664062 685.816406 596.859375 685.023438 596.015625 C 684.234375 595.171875 683.484375 594.289062 682.773438 593.375 C 682.066406 592.464844 681.398438 591.519531 680.777344 590.542969 C 680.15625 589.566406 679.582031 588.5625 679.054688 587.535156 C 678.527344 586.503906 678.050781 585.453125 677.621094 584.378906 C 677.191406 583.304688 676.8125 582.210938 676.484375 581.101562 C 676.15625 579.992188 675.882812 578.871094 675.660156 577.734375 C 675.53125 576.980469 675.367188 576.234375 675.164062 575.496094 C 674.964844 574.761719 674.726562 574.035156 674.453125 573.320312 C 674.179688 572.605469 673.871094 571.90625 673.527344 571.222656 C 673.183594 570.539062 672.808594 569.875 672.398438 569.226562 C 671.992188 568.582031 671.550781 567.957031 671.078125 567.355469 C 670.609375 566.753906 670.109375 566.175781 669.578125 565.621094 C 669.050781 565.070312 668.496094 564.542969 667.917969 564.046875 C 667.335938 563.546875 666.730469 563.082031 666.105469 562.644531 C 665.476562 562.203125 664.832031 561.800781 664.164062 561.425781 C 663.496094 561.050781 662.8125 560.710938 662.109375 560.40625 C 661.410156 560.101562 660.695312 559.832031 659.96875 559.597656 C 659.238281 559.359375 658.5 559.164062 657.753906 559 C 657.007812 558.839844 656.253906 558.714844 655.492188 558.628906 C 654.734375 558.542969 653.96875 558.492188 653.207031 558.484375 C 652.441406 558.472656 651.679688 558.5 650.914062 558.5625 C 650.152344 558.628906 649.398438 558.730469 648.644531 558.871094 C 647.890625 559.007812 647.144531 559.183594 646.40625 559.394531 C 645.667969 559.605469 644.941406 559.851562 644.230469 560.136719 C 643.515625 560.417969 642.820312 560.734375 642.136719 561.085938 C 641.453125 561.4375 640.789062 561.820312 640.144531 562.234375 C 639.5 562.652344 638.878906 563.097656 638.277344 563.574219 C 637.675781 564.050781 637.101562 564.558594 636.546875 565.089844 C 635.996094 565.625 635.472656 566.183594 634.976562 566.769531 C 634.480469 567.355469 634.015625 567.960938 633.578125 568.59375 C 633.140625 569.222656 632.734375 569.875 632.363281 570.546875 C 631.988281 571.214844 631.652344 571.902344 631.34375 572.605469 C 631.039062 573.3125 630.769531 574.027344 630.535156 574.757812 C 630.300781 575.488281 630.101562 576.230469 629.9375 576.976562 C 629.777344 577.726562 629.652344 578.484375 629.5625 579.246094 C 629.472656 580.007812 629.425781 580.773438 629.410156 581.539062 C 629.398438 582.308594 629.421875 583.074219 629.484375 583.839844 C 629.546875 584.601562 629.644531 585.363281 629.78125 586.117188 C 630.160156 588.167969 630.613281 590.199219 631.144531 592.210938 C 631.675781 594.226562 632.28125 596.21875 632.960938 598.1875 C 633.640625 600.15625 634.394531 602.097656 635.222656 604.007812 C 636.046875 605.921875 636.945312 607.796875 637.914062 609.644531 C 638.878906 611.488281 639.914062 613.292969 641.019531 615.0625 C 642.121094 616.828125 643.289062 618.550781 644.523438 620.230469 C 645.753906 621.910156 647.050781 623.539062 648.40625 625.121094 C 649.761719 626.703125 651.171875 628.230469 652.644531 629.707031 C 654.113281 631.183594 655.636719 632.601562 657.214844 633.960938 C 658.792969 635.324219 660.417969 636.621094 662.09375 637.859375 C 663.765625 639.101562 665.484375 640.273438 667.25 641.382812 C 669.011719 642.492188 670.8125 643.535156 672.65625 644.507812 C 674.496094 645.484375 676.371094 646.386719 678.28125 647.21875 C 680.191406 648.050781 682.128906 648.8125 684.09375 649.5 C 686.0625 650.1875 688.050781 650.800781 690.0625 651.335938 C 692.074219 651.875 694.105469 652.335938 696.152344 652.722656 C 694.289062 669.257812 700.34375 686.257812 719.441406 686.722656 C 739.003906 686.257812 744.589844 668.789062 742.726562 652.253906 C 745.898438 651.488281 749 650.507812 752.035156 649.316406 C 755.070312 648.121094 758.007812 646.726562 760.851562 645.125 C 763.691406 643.527344 766.414062 641.742188 769.007812 639.769531 C 771.605469 637.796875 774.054688 635.65625 776.355469 633.34375 C 778.660156 631.035156 780.792969 628.578125 782.753906 625.976562 C 784.71875 623.371094 786.496094 620.644531 788.082031 617.796875 C 789.671875 614.949219 791.058594 612.003906 792.238281 608.96875 C 793.421875 605.929688 794.390625 602.824219 795.148438 599.648438 C 795.902344 596.476562 796.4375 593.269531 796.753906 590.023438 C 797.066406 586.777344 797.15625 583.523438 797.023438 580.265625 C 796.886719 577.007812 796.53125 573.773438 795.953125 570.566406 C 795.375 567.355469 794.578125 564.203125 793.5625 561.101562 C 792.550781 558.003906 791.328125 554.988281 789.902344 552.054688 C 788.472656 549.125 786.851562 546.304688 785.035156 543.597656 C 783.214844 540.886719 781.222656 538.316406 779.050781 535.882812 C 776.882812 533.449219 774.554688 531.175781 772.070312 529.0625 L 696.386719 466.183594 C 695.398438 465.414062 694.480469 464.566406 693.628906 463.648438 C 692.773438 462.726562 692 461.746094 691.308594 460.703125 C 690.613281 459.660156 690.003906 458.570312 689.484375 457.429688 C 688.960938 456.289062 688.535156 455.117188 688.203125 453.90625 C 687.867188 452.699219 687.632812 451.472656 687.496094 450.226562 C 687.359375 448.980469 687.320312 447.734375 687.382812 446.480469 C 687.445312 445.230469 687.605469 443.992188 687.867188 442.765625 C 688.125 441.539062 688.480469 440.339844 688.933594 439.171875 C 689.332031 437.996094 689.820312 436.859375 690.394531 435.761719 C 690.972656 434.664062 691.628906 433.613281 692.367188 432.617188 C 693.101562 431.621094 693.914062 430.6875 694.796875 429.8125 C 695.675781 428.941406 696.621094 428.144531 697.628906 427.417969 C 698.632812 426.691406 699.6875 426.046875 700.792969 425.484375 C 701.898438 424.921875 703.042969 424.449219 704.222656 424.0625 C 705.398438 423.675781 706.601562 423.382812 707.824219 423.183594 C 709.050781 422.984375 710.28125 422.878906 711.523438 422.871094 Z M 711.523438 422.871094 L 726.195312 422.871094 C 727.390625 422.871094 728.585938 422.933594 729.777344 423.050781 C 730.964844 423.171875 732.148438 423.347656 733.324219 423.582031 C 734.496094 423.820312 735.65625 424.109375 736.800781 424.460938 C 737.945312 424.808594 739.070312 425.210938 740.175781 425.671875 C 741.28125 426.128906 742.359375 426.640625 743.417969 427.207031 C 744.472656 427.773438 745.496094 428.386719 746.492188 429.050781 C 747.488281 429.71875 748.445312 430.429688 749.371094 431.1875 C 750.296875 431.949219 751.183594 432.75 752.027344 433.597656 C 752.875 434.445312 753.679688 435.328125 754.4375 436.253906 C 755.195312 437.179688 755.910156 438.140625 756.574219 439.136719 C 757.238281 440.128906 757.855469 441.15625 758.421875 442.210938 C 758.984375 443.265625 759.496094 444.34375 759.957031 445.449219 C 760.414062 446.554688 760.820312 447.679688 761.167969 448.828125 C 761.515625 449.972656 761.808594 451.128906 762.042969 452.304688 C 762.277344 453.476562 762.453125 454.660156 762.574219 455.851562 C 762.691406 457.042969 762.753906 458.234375 762.753906 459.433594 C 762.753906 460.195312 762.792969 460.957031 762.867188 461.714844 C 762.941406 462.472656 763.054688 463.226562 763.203125 463.976562 C 763.351562 464.722656 763.535156 465.464844 763.757812 466.191406 C 763.980469 466.921875 764.238281 467.640625 764.527344 468.34375 C 764.820312 469.050781 765.144531 469.738281 765.503906 470.410156 C 765.863281 471.082031 766.257812 471.738281 766.679688 472.371094 C 767.105469 473.003906 767.558594 473.617188 768.042969 474.207031 C 768.527344 474.796875 769.039062 475.359375 769.578125 475.898438 C 770.117188 476.4375 770.679688 476.949219 771.269531 477.433594 C 771.859375 477.917969 772.472656 478.371094 773.105469 478.796875 C 773.738281 479.21875 774.394531 479.613281 775.066406 479.972656 C 775.738281 480.332031 776.425781 480.65625 777.132812 480.949219 C 777.835938 481.238281 778.554688 481.496094 779.285156 481.71875 C 780.011719 481.9375 780.753906 482.125 781.5 482.273438 C 782.25 482.421875 783 482.535156 783.761719 482.609375 C 784.519531 482.683594 785.28125 482.722656 786.042969 482.722656 C 786.804688 482.722656 787.566406 482.683594 788.328125 482.609375 C 789.085938 482.535156 789.839844 482.421875 790.585938 482.273438 C 791.335938 482.125 792.074219 481.9375 792.804688 481.71875 C 793.535156 481.496094 794.25 481.238281 794.957031 480.949219 C 795.660156 480.65625 796.347656 480.332031 797.019531 479.972656 C 797.695312 479.613281 798.347656 479.21875 798.980469 478.796875 C 799.617188 478.371094 800.226562 477.917969 800.816406 477.433594 C 801.40625 476.949219 801.972656 476.4375 802.511719 475.898438 C 803.050781 475.359375 803.5625 474.796875 804.046875 474.207031 C 804.527344 473.617188 804.984375 473.003906 805.40625 472.371094 C 805.832031 471.738281 806.222656 471.082031 806.582031 470.410156 C 806.941406 469.738281 807.265625 469.050781 807.558594 468.34375 C 807.851562 467.640625 808.105469 466.921875 808.328125 466.191406 C 808.550781 465.464844 808.734375 464.722656 808.882812 463.976562 C 809.03125 463.226562 809.144531 462.472656 809.21875 461.714844 C 809.292969 460.957031 809.332031 460.195312 809.332031 459.433594 C 809.328125 457.058594 809.21875 454.6875 809.011719 452.324219 C 808.804688 449.957031 808.496094 447.605469 808.089844 445.265625 C 807.679688 442.925781 807.171875 440.609375 806.566406 438.3125 C 805.960938 436.015625 805.257812 433.75 804.457031 431.515625 C 803.65625 429.28125 802.761719 427.082031 801.773438 424.921875 C 800.789062 422.765625 799.710938 420.652344 798.539062 418.582031 C 797.371094 416.515625 796.117188 414.503906 794.777344 412.542969 C 793.4375 410.582031 792.015625 408.683594 790.515625 406.84375 C 789.011719 405.003906 787.433594 403.234375 785.78125 401.53125 C 784.125 399.824219 782.402344 398.195312 780.609375 396.636719 C 778.816406 395.082031 776.960938 393.605469 775.039062 392.207031 C 773.121094 390.808594 771.144531 389.496094 769.113281 388.265625 C 767.082031 387.035156 765.003906 385.894531 762.875 384.84375 C 760.746094 383.792969 758.574219 382.832031 756.363281 381.964844 C 754.152344 381.101562 751.910156 380.328125 749.632812 379.65625 C 747.355469 378.980469 745.054688 378.402344 742.726562 377.925781 C 744.359375 361.15625 739.234375 343.925781 719.441406 343.226562 C 699.414062 343.925781 694.523438 361.15625 696.152344 378.390625 C 692.96875 379.15625 689.851562 380.132812 686.800781 381.328125 C 683.75 382.523438 680.796875 383.917969 677.941406 385.519531 C 675.082031 387.121094 672.347656 388.910156 669.738281 390.886719 C 667.128906 392.867188 664.664062 395.011719 662.351562 397.332031 C 660.035156 399.648438 657.890625 402.113281 655.914062 404.722656 C 653.941406 407.335938 652.152344 410.074219 650.554688 412.929688 C 648.957031 415.789062 647.5625 418.746094 646.371094 421.796875 C 645.179688 424.847656 644.203125 427.964844 643.441406 431.148438 C 642.679688 434.335938 642.136719 437.558594 641.820312 440.816406 C 641.503906 444.078125 641.410156 447.34375 641.542969 450.617188 C 641.671875 453.886719 642.027344 457.136719 642.609375 460.359375 C 643.1875 463.582031 643.984375 466.75 645.003906 469.863281 C 646.019531 472.976562 647.242188 476.007812 648.675781 478.953125 C 650.109375 481.898438 651.738281 484.730469 653.5625 487.449219 C 655.386719 490.171875 657.386719 492.753906 659.566406 495.199219 C 661.746094 497.644531 664.082031 499.925781 666.578125 502.050781 L 742.261719 564.925781 C 743.289062 565.777344 744.238281 566.707031 745.109375 567.714844 C 745.980469 568.71875 746.765625 569.792969 747.464844 570.925781 C 748.160156 572.0625 748.757812 573.25 749.261719 574.484375 C 749.761719 575.71875 750.160156 576.984375 750.453125 578.285156 C 750.746094 579.582031 750.929688 580.898438 751.007812 582.230469 C 751.082031 583.558594 751.050781 584.886719 750.910156 586.210938 C 750.765625 587.535156 750.519531 588.839844 750.160156 590.125 C 749.804688 591.40625 749.347656 592.652344 748.785156 593.863281 C 748.222656 595.070312 747.566406 596.226562 746.816406 597.324219 C 746.066406 598.425781 745.230469 599.457031 744.308594 600.421875 C 743.386719 601.382812 742.394531 602.265625 741.328125 603.0625 C 740.261719 603.863281 739.136719 604.570312 737.957031 605.183594 C 736.773438 605.800781 735.550781 606.3125 734.28125 606.726562 C 733.015625 607.140625 731.722656 607.445312 730.40625 607.648438 C 729.089844 607.847656 727.765625 607.941406 726.433594 607.921875 C 725.101562 607.90625 723.777344 607.777344 722.46875 607.542969 C 721.488281 607.195312 720.480469 607.019531 719.441406 607.019531 C 718.402344 607.019531 717.390625 607.195312 716.414062 607.542969 C 715.261719 607.675781 714.109375 607.753906 712.953125 607.777344 C 711.796875 607.800781 710.640625 607.769531 709.488281 607.6875 C 708.335938 607.601562 707.1875 607.464844 706.046875 607.273438 C 704.90625 607.085938 703.777344 606.839844 702.65625 606.542969 C 701.539062 606.25 700.4375 605.902344 699.351562 605.5 C 698.265625 605.101562 697.199219 604.65625 696.15625 604.15625 C 695.113281 603.65625 694.09375 603.113281 693.101562 602.519531 C 692.105469 601.925781 691.144531 601.289062 690.210938 600.605469 C 689.277344 599.921875 688.375 599.199219 687.511719 598.429688 C 686.644531 597.664062 685.816406 596.859375 685.023438 596.015625 C 684.234375 595.171875 683.484375 594.289062 682.773438 593.375 C 682.066406 592.464844 681.398438 591.519531 680.777344 590.542969 C 680.15625 589.566406 679.582031 588.5625 679.054688 587.535156 C 678.527344 586.503906 678.050781 585.453125 677.621094 584.378906 C 677.191406 583.304688 676.8125 582.210938 676.484375 581.101562 C 676.15625 579.992188 675.882812 578.871094 675.660156 577.734375 C 675.53125 576.980469 675.367188 576.234375 675.164062 575.496094 C 674.964844 574.761719 674.726562 574.035156 674.453125 573.320312 C 674.179688 572.605469 673.871094 571.90625 673.527344 571.222656 C 673.183594 570.539062 672.808594 569.875 672.398438 569.226562 C 671.992188 568.582031 671.550781 567.957031 671.078125 567.355469 C 670.609375 566.753906 670.109375 566.175781 669.578125 565.621094 C 669.050781 565.070312 668.496094 564.542969 667.917969 564.046875 C 667.335938 563.546875 666.730469 563.082031 666.105469 562.644531 C 665.476562 562.203125 664.832031 561.800781 664.164062 561.425781 C 663.496094 561.050781 662.8125 560.710938 662.109375 560.40625 C 661.410156 560.101562 660.695312 559.832031 659.96875 559.597656 C 659.238281 559.359375 658.5 559.164062 657.753906 559 C 657.007812 558.839844 656.253906 558.714844 655.492188 558.628906 C 654.734375 558.542969 653.96875 558.492188 653.207031 558.484375 C 652.441406 558.472656 651.679688 558.5 650.914062 558.5625 C 650.152344 558.628906 649.398438 558.730469 648.644531 558.871094 C 647.890625 559.007812 647.144531 559.183594 646.40625 559.394531 C 645.667969 559.605469 644.941406 559.851562 644.230469 560.136719 C 643.515625 560.417969 642.820312 560.734375 642.136719 561.085938 C 641.453125 561.4375 640.789062 561.820312 640.144531 562.234375 C 639.5 562.652344 638.878906 563.097656 638.277344 563.574219 C 637.675781 564.050781 637.101562 564.558594 636.546875 565.089844 C 635.996094 565.625 635.472656 566.183594 634.976562 566.769531 C 634.480469 567.355469 634.015625 567.960938 633.578125 568.59375 C 633.140625 569.222656 632.734375 569.875 632.363281 570.546875 C 631.988281 571.214844 631.652344 571.902344 631.34375 572.605469 C 631.039062 573.3125 630.769531 574.027344 630.535156 574.757812 C 630.300781 575.488281 630.101562 576.230469 629.9375 576.976562 C 629.777344 577.726562 629.652344 578.484375 629.5625 579.246094 C 629.472656 580.007812 629.425781 580.773438 629.410156 581.539062 C 629.398438 582.308594 629.421875 583.074219 629.484375 583.839844 C 629.546875 584.601562 629.644531 585.363281 629.78125 586.117188 C 630.160156 588.167969 630.613281 590.199219 631.144531 592.210938 C 631.675781 594.226562 632.28125 596.21875 632.960938 598.1875 C 633.640625 600.15625 634.394531 602.097656 635.222656 604.007812 C 636.046875 605.921875 636.945312 607.796875 637.914062 609.644531 C 638.878906 611.488281 639.914062 613.292969 641.019531 615.0625 C 642.121094 616.828125 643.289062 618.550781 644.523438 620.230469 C 645.753906 621.910156 647.050781 623.539062 648.40625 625.121094 C 649.761719 626.703125 651.171875 628.230469 652.644531 629.707031 C 654.113281 631.183594 655.636719 632.601562 657.214844 633.960938 C 658.792969 635.324219 660.417969 636.621094 662.09375 637.859375 C 663.765625 639.101562 665.484375 640.273438 667.25 641.382812 C 669.011719 642.492188 670.8125 643.535156 672.65625 644.507812 C 674.496094 645.484375 676.371094 646.386719 678.28125 647.21875 C 680.191406 648.050781 682.128906 648.8125 684.09375 649.5 C 686.0625 650.1875 688.050781 650.800781 690.0625 651.335938 C 692.074219 651.875 694.105469 652.335938 696.152344 652.722656 C 694.289062 669.257812 700.34375 686.257812 719.441406 686.722656 C 739.003906 686.257812 744.589844 668.789062 742.726562 652.253906 C 745.898438 651.488281 749 650.507812 752.035156 649.316406 C 755.070312 648.121094 758.007812 646.726562 760.851562 645.125 C 763.691406 643.527344 766.414062 641.742188 769.007812 639.769531 C 771.605469 637.796875 774.054688 635.65625 776.355469 633.34375 C 778.660156 631.035156 780.792969 628.578125 782.753906 625.976562 C 784.71875 623.371094 786.496094 620.644531 788.082031 617.796875 C 789.671875 614.949219 791.058594 612.003906 792.238281 608.96875 C 793.421875 605.929688 794.390625 602.824219 795.148438 599.648438 C 795.902344 596.476562 796.4375 593.269531 796.753906 590.023438 C 797.066406 586.777344 797.15625 583.523438 797.023438 580.265625 C 796.886719 577.007812 796.53125 573.773438 795.953125 570.566406 C 795.375 567.355469 794.578125 564.203125 793.5625 561.101562 C 792.550781 558.003906 791.328125 554.988281 789.902344 552.054688 C 788.472656 549.125 786.851562 546.304688 785.035156 543.597656 C 783.214844 540.886719 781.222656 538.316406 779.050781 535.882812 C 776.882812 533.449219 774.554688 531.175781 772.070312 529.0625 L 696.386719 466.183594 C 695.398438 465.414062 694.480469 464.566406 693.628906 463.648438 C 692.773438 462.726562 692 461.746094 691.308594 460.703125 C 690.613281 459.660156 690.003906 458.570312 689.484375 457.429688 C 688.960938 456.289062 688.535156 455.117188 688.203125 453.90625 C 687.867188 452.699219 687.632812 451.472656 687.496094 450.226562 C 687.359375 448.980469 687.320312 447.734375 687.382812 446.480469 C 687.445312 445.230469 687.605469 443.992188 687.867188 442.765625 C 688.125 441.539062 688.480469 440.339844 688.933594 439.171875 C 689.332031 437.996094 689.820312 436.859375 690.394531 435.761719 C 690.972656 434.664062 691.628906 433.613281 692.367188 432.617188 C 693.101562 431.621094 693.914062 430.6875 694.796875 429.8125 C 695.675781 428.941406 696.621094 428.144531 697.628906 427.417969 C 698.632812 426.691406 699.6875 426.046875 700.792969 425.484375 C 701.898438 424.921875 703.042969 424.449219 704.222656 424.0625 C 705.398438 423.675781 706.601562 423.382812 707.824219 423.183594 C 709.050781 422.984375 710.28125 422.878906 711.523438 422.871094 Z M 711.523438 422.871094 L 726.195312 422.871094 C 727.390625 422.871094 728.585938 422.933594 729.777344 423.050781 C 730.964844 423.171875 732.148438 423.347656 733.324219 423.582031 C 734.496094 423.820312 735.65625 424.109375 736.800781 424.460938 C 737.945312 424.808594 739.070312 425.210938 740.175781 425.671875 C 741.28125 426.128906 742.359375 426.640625 743.417969 427.207031 C 744.472656 427.773438 745.496094 428.386719 746.492188 429.050781 C 747.488281 429.71875 748.445312 430.429688 749.371094 431.1875 C 750.296875 431.949219 751.183594 432.75 752.027344 433.597656 C 752.875 434.445312 753.679688 435.328125 754.4375 436.253906 C 755.195312 437.179688 755.910156 438.140625 756.574219 439.136719 C 757.238281 440.128906 757.855469 441.15625 758.421875 442.210938 C 758.984375 443.265625 759.496094 444.34375 759.957031 445.449219 C 760.414062 446.554688 760.820312 447.679688 761.167969 448.828125 C 761.515625 449.972656 761.808594 451.128906 762.042969 452.304688 C 762.277344 453.476562 762.453125 454.660156 762.574219 455.851562 C 762.691406 457.042969 762.753906 458.234375 762.753906 459.433594 C 762.753906 460.195312 762.792969 460.957031 762.867188 461.714844 C 762.941406 462.472656 763.054688 463.226562 763.203125 463.976562 C 763.351562 464.722656 763.535156 465.464844 763.757812 466.191406 C 763.980469 466.921875 764.238281 467.640625 764.527344 468.34375 C 764.820312 469.050781 765.144531 469.738281 765.503906 470.410156 C 765.863281 471.082031 766.257812 471.738281 766.679688 472.371094 C 767.105469 473.003906 767.558594 473.617188 768.042969 474.207031 C 768.527344 474.796875 769.039062 475.359375 769.578125 475.898438 C 770.117188 476.4375 770.679688 476.949219 771.269531 477.433594 C 771.859375 477.917969 772.472656 478.371094 773.105469 478.796875 C 773.738281 479.21875 774.394531 479.613281 775.066406 479.972656 C 775.738281 480.332031 776.425781 480.65625 777.132812 480.949219 C 777.835938 481.238281 778.554688 481.496094 779.285156 481.71875 C 780.011719 481.9375 780.753906 482.125 781.5 482.273438 C 782.25 482.421875 783 482.535156 783.761719 482.609375 C 784.519531 482.683594 785.28125 482.722656 786.042969 482.722656 C 786.804688 482.722656 787.566406 482.683594 788.328125 482.609375 C 789.085938 482.535156 789.839844 482.421875 790.585938 482.273438 C 791.335938 482.125 792.074219 481.9375 792.804688 481.71875 C 793.535156 481.496094 794.25 481.238281 794.957031 480.949219 C 795.660156 480.65625 796.347656 480.332031 797.019531 479.972656 C 797.695312 479.613281 798.347656 479.21875 798.980469 478.796875 C 799.617188 478.371094 800.226562 477.917969 800.816406 477.433594 C 801.40625 476.949219 801.972656 476.4375 802.511719 475.898438 C 803.050781 475.359375 803.5625 474.796875 804.046875 474.207031 C 804.527344 473.617188 804.984375 473.003906 805.40625 472.371094 C 805.832031 471.738281 806.222656 471.082031 806.582031 470.410156 C 806.941406 469.738281 807.265625 469.050781 807.558594 468.34375 C 807.851562 467.640625 808.105469 466.921875 808.328125 466.191406 C 808.550781 465.464844 808.734375 464.722656 808.882812 463.976562 C 809.03125 463.226562 809.144531 462.472656 809.21875 461.714844 C 809.292969 460.957031 809.332031 460.195312 809.332031 459.433594 C 809.328125 457.058594 809.21875 454.6875 809.011719 452.324219 C 808.804688 449.957031 808.496094 447.605469 808.089844 445.265625 C 807.679688 442.925781 807.171875 440.609375 806.566406 438.3125 C 805.960938 436.015625 805.257812 433.75 804.457031 431.515625 C 803.65625 429.28125 802.761719 427.082031 801.773438 424.921875 C 800.789062 422.765625 799.710938 420.652344 798.539062 418.582031 C 797.371094 416.515625 796.117188 414.503906 794.777344 412.542969 C 793.4375 410.582031 792.015625 408.683594 790.515625 406.84375 C 789.011719 405.003906 787.433594 403.234375 785.78125 401.53125 C 784.125 399.824219 782.402344 398.195312 780.609375 396.636719 C 778.816406 395.082031 776.960938 393.605469 775.039062 392.207031 C 773.121094 390.808594 771.144531 389.496094 769.113281 388.265625 C 767.082031 387.035156 765.003906 385.894531 762.875 384.84375 C 760.746094 383.792969 758.574219 382.832031 756.363281 381.964844 C 754.152344 381.101562 751.910156 380.328125 749.632812 379.65625 C 747.355469 378.980469 745.054688 378.402344 742.726562 377.925781 C 744.359375 361.15625 739.234375 343.925781 719.441406 343.226562 C 699.414062 343.925781 694.523438 361.15625 696.152344 378.390625 C 692.96875 379.15625 689.851562 380.132812 686.800781 381.328125 C 683.75 382.523438 680.796875 383.917969 677.941406 385.519531 C 675.082031 387.121094 672.347656 388.910156 669.738281 390.886719 C 667.128906 392.867188 664.664062 395.011719 662.351562 397.332031 C 660.035156 399.648438 657.890625 402.113281 655.914062 404.722656 C 653.941406 407.335938 652.152344 410.074219 650.554688 412.929688 C 648.957031 415.789062 647.5625 418.746094 646.371094 421.796875 C 645.179688 424.847656 644.203125 427.964844 643.441406 431.148438 C 642.679688 434.335938 642.136719 437.558594 641.820312 440.816406 C 641.503906 444.078125 641.410156 447.34375 641.542969 450.617188 C 641.671875 453.886719 642.027344 457.136719 642.609375 460.359375 C 643.1875 463.582031 643.984375 466.75 645.003906 469.863281 C 646.019531 472.976562 647.242188 476.007812 648.675781 478.953125 C 650.109375 481.898438 651.738281 484.730469 653.5625 487.449219 C 655.386719 490.171875 657.386719 492.753906 659.566406 495.199219 C 661.746094 497.644531 664.082031 499.925781 666.578125 502.050781 L 742.261719 564.925781 C 743.289062 565.777344 744.238281 566.707031 745.109375 567.714844 C 745.980469 568.71875 746.765625 569.792969 747.464844 570.925781 C 748.160156 572.0625 748.757812 573.25 749.261719 574.484375 C 749.761719 575.71875 750.160156 576.984375 750.453125 578.285156 C 750.746094 579.582031 750.929688 580.898438 751.007812 582.230469 C 751.082031 583.558594 751.050781 584.886719 750.910156 586.210938 C 750.765625 587.535156 750.519531 588.839844 750.160156 590.125 C 749.804688 591.40625 749.347656 592.652344 748.785156 593.863281 C 748.222656 595.070312 747.566406 596.226562 746.816406 597.324219 C 746.066406 598.425781 745.230469 599.457031 744.308594 600.421875 C 743.386719 601.382812 742.394531 602.265625 741.328125 603.0625 C 740.261719 603.863281 739.136719 604.570312 737.957031 605.183594 C 736.773438 605.800781 735.550781 606.3125 734.28125 606.726562 C 733.015625 607.140625 731.722656 607.445312 730.40625 607.648438 C 729.089844 607.847656 727.765625 607.941406 726.433594 607.921875 C 725.101562 607.90625 723.777344 607.777344 722.46875 607.542969 C 721.488281 607.195312 720.480469 607.019531 719.441406 607.019531 C 718.402344 607.019531 717.390625 607.195312 716.414062 607.542969 C 715.261719 607.675781 714.109375 607.753906 712.953125 607.777344 C 711.796875 607.800781 710.640625 607.769531 709.488281 607.6875 C 708.335938 607.601562 707.1875 607.464844 706.046875 607.273438 C 704.90625 607.085938 703.777344 606.839844 702.65625 606.542969 C 701.539062 606.25 700.4375 605.902344 699.351562 605.5 C 698.265625 605.101562 697.199219 604.65625 696.15625 604.15625 C 695.113281 603.65625 694.09375 603.113281 693.101562 602.519531 C 692.105469 601.925781 691.144531 601.289062 690.210938 600.605469 C 689.277344 599.921875 688.375 599.199219 687.511719 598.429688 C 686.644531 597.664062 685.816406 596.859375 685.023438 596.015625 C 684.234375 595.171875 683.484375 594.289062 682.773438 593.375 C 682.066406 592.464844 681.398438 591.519531 680.777344 590.542969 C 680.15625 589.566406 679.582031 588.5625 679.054688 587.535156 C 678.527344 586.503906 678.050781 585.453125 677.621094 584.378906 C 677.191406 583.304688 676.8125 582.210938 676.484375 581.101562 C 676.15625 579.992188 675.882812 578.871094 675.660156 577.734375 C 675.53125 576.980469 675.367188 576.234375 675.164062 575.496094 C 674.964844 574.761719 674.726562 574.035156 674.453125 573.320312 C 674.179688 572.605469 673.871094 571.90625 673.527344 571.222656 C 673.183594 570.539062 672.808594 569.875 672.398438 569.226562 C 671.992188 568.582031 671.550781 567.957031 671.078125 567.355469 C 670.609375 566.753906 670.109375 566.175781 669.578125 565.621094 C 669.050781 565.070312 668.496094 564.542969 667.917969 564.046875 C 667.335938 563.546875 666.730469 563.082031 666.105469 562.644531 C 665.476562 562.203125 664.832031 561.800781 664.164062 561.425781 C 663.496094 561.050781 662.8125 560.710938 662.109375 560.40625 C 661.410156 560.101562 660.695312 559.832031 659.96875 559.597656 C 659.238281 559.359375 658.5 559.164062 657.753906 559 C 657.007812 558.839844 656.253906 558.714844 655.492188 558.628906 C 654.734375 558.542969 653.96875 558.492188 653.207031 558.484375 C 652.441406 558.472656 651.679688 558.5 650.914062 558.5625 C 650.152344 558.628906 649.398438 558.730469 648.644531 558.871094 C 647.890625 559.007812 647.144531 559.183594 646.40625 559.394531 C 645.667969 559.605469 644.941406 559.851562 644.230469 560.136719 C 643.515625 560.417969 642.820312 560.734375 642.136719 561.085938 C 641.453125 561.4375 640.789062 561.820312 640.144531 562.234375 C 639.5 562.652344 638.878906 563.097656 638.277344 563.574219 C 637.675781 564.050781 637.101562 564.558594 636.546875 565.089844 C 635.996094 565.625 635.472656 566.183594 634.976562 566.769531 C 634.480469 567.355469 634.015625 567.960938 633.578125 568.59375 C 633.140625 569.222656 632.734375 569.875 632.363281 570.546875 C 631.988281 571.214844 631.652344 571.902344 631.34375 572.605469 C 631.039062 573.3125 630.769531 574.027344 630.535156 574.757812 C 630.300781 575.488281 630.101562 576.230469 629.9375 576.976562 C 629.777344 577.726562 629.652344 578.484375 629.5625 579.246094 C 629.472656 580.007812 629.425781 580.773438 629.410156 581.539062 C 629.398438 582.308594 629.421875 583.074219 629.484375 583.839844 C 629.546875 584.601562 629.644531 585.363281 629.78125 586.117188 C 630.160156 588.167969 630.613281 590.199219 631.144531 592.210938 C 631.675781 594.226562 632.28125 596.21875 632.960938 598.1875 C 633.640625 600.15625 634.394531 602.097656 635.222656 604.007812 C 636.046875 605.921875 636.945312 607.796875 637.914062 609.644531 C 638.878906 611.488281 639.914062 613.292969 641.019531 615.0625 C 642.121094 616.828125 643.289062 618.550781 644.523438 620.230469 C 645.753906 621.910156 647.050781 623.539062 648.40625 625.121094 C 649.761719 626.703125 651.171875 628.230469 652.644531 629.707031 C 654.113281 631.183594 655.636719 632.601562 657.214844 633.960938 C 658.792969 635.324219 660.417969 636.621094 662.09375 637.859375 C 663.765625 639.101562 665.484375 640.273438 667.25 641.382812 C 669.011719 642.492188 670.8125 643.535156 672.65625 644.507812 C 674.496094 645.484375 676.371094 646.386719 678.28125 647.21875 C 680.191406 648.050781 682.128906 648.8125 684.09375 649.5 C 686.0625 650.1875 688.050781 650.800781 690.0625 651.335938 C 692.074219 651.875 694.105469 652.335938 696.152344 652.722656 C 694.289062 669.257812 700.34375 686.257812 719.441406 686.722656 C 739.003906 686.257812 744.589844 668.789062 742.726562 652.253906 C 745.898438 651.488281 749 650.507812 752.035156 649.316406 C 755.070312 648.121094 758.007812 646.726562 760.851562 645.125 C 763.691406 643.527344 766.414062 641.742188 769.007812 639.769531 C 771.605469 637.796875 774.054688 635.65625 776.355469 633.34375 C 778.660156 631.035156 780.792969 628.578125 782.753906 625.976562 C 784.71875 623.371094 786.496094 620.644531 788.082031 617.796875 C 789.671875 614.949219 791.058594 612.003906 792.238281 608.96875 C 793.421875 605.929688 794.390625 602.824219 795.148438 599.648438 C 795.902344 596.476562 796.4375 593.269531 796.753906 590.023438 C 797.066406 586.777344 797.15625 583.523438 797.023438 580.265625 C 796.886719 577.007812 796.53125 573.773438 795.953125 570.566406 C 795.375 567.355469 794.578125 564.203125 793.5625 561.101562 C 792.550781 558.003906 791.328125 554.988281 789.902344 552.054688 C 788.472656 549.125 786.851562 546.304688 785.035156 543.597656 C 783.214844 540.886719 781.222656 538.316406 779.050781 535.882812 C 776.882812 533.449219 774.554688 531.175781 772.070312 529.0625 L 696.386719 466.183594 C 695.398438 465.414062 694.480469 464.566406 693.628906 463.648438 C 692.773438 462.726562 692 461.746094 691.308594 460.703125 C 690.613281 459.660156 690.003906 458.570312 689.484375 457.429688 C 688.960938 456.289062 688.535156 455.117188 688.203125 453.90625 C 687.867188 452.699219 687.632812 451.472656 687.496094 450.226562 C 687.359375 448.980469 687.320312 447.734375 687.382812 446.480469 C 687.445312 445.230469 687.605469 443.992188 687.867188 442.765625 C 688.125 441.539062 688.480469 440.339844 688.933594 439.171875 C 689.332031 437.996094 689.820312 436.859375 690.394531 435.761719 C 690.972656 434.664062 691.628906 433.613281 692.367188 432.617188 C 693.101562 431.621094 693.914062 430.6875 694.796875 429.8125 C 695.675781 428.941406 696.621094 428.144531 697.628906 427.417969 C 698.632812 426.691406 699.6875 426.046875 700.792969 425.484375 C 701.898438 424.921875 703.042969 424.449219 704.222656 424.0625 C 705.398438 423.675781 706.601562 423.382812 707.824219 423.183594 C 709.050781 422.984375 710.28125 422.878906 711.523438 422.871094 Z M 1021.019531 750.53125 L 969.785156 264.746094 C 969.640625 263.296875 969.429688 261.859375 969.152344 260.429688 C 968.875 259 968.53125 257.589844 968.125 256.191406 C 967.71875 254.792969 967.246094 253.417969 966.710938 252.066406 C 966.175781 250.710938 965.582031 249.386719 964.925781 248.085938 C 964.265625 246.789062 963.550781 245.523438 962.777344 244.289062 C 962.003906 243.058594 961.175781 241.863281 960.292969 240.707031 C 959.40625 239.550781 958.472656 238.4375 957.484375 237.367188 C 956.5 236.296875 955.464844 235.273438 954.382812 234.300781 C 953.304688 233.328125 952.179688 232.402344 951.015625 231.53125 C 949.847656 230.660156 948.644531 229.847656 947.402344 229.085938 C 946.160156 228.328125 944.886719 227.625 943.582031 226.984375 C 942.273438 226.34375 940.941406 225.761719 939.582031 225.242188 C 938.222656 224.722656 936.84375 224.265625 935.441406 223.875 C 934.039062 223.484375 932.621094 223.15625 931.191406 222.894531 C 929.757812 222.636719 928.316406 222.441406 926.867188 222.3125 C 925.417969 222.183594 923.964844 222.125 922.511719 222.128906 L 839.839844 222.128906 L 839.839844 139.222656 C 839.917969 137.167969 839.949219 135.109375 839.929688 133.054688 C 839.910156 130.996094 839.839844 128.9375 839.71875 126.882812 C 839.597656 124.832031 839.425781 122.78125 839.203125 120.734375 C 838.984375 118.6875 838.714844 116.648438 838.390625 114.617188 C 838.070312 112.582031 837.703125 110.558594 837.28125 108.542969 C 836.863281 106.53125 836.394531 104.527344 835.875 102.535156 C 835.359375 100.542969 834.792969 98.566406 834.179688 96.601562 C 833.566406 94.636719 832.902344 92.6875 832.195312 90.757812 C 831.484375 88.824219 830.726562 86.910156 829.925781 85.015625 C 829.121094 83.121094 828.273438 81.246094 827.378906 79.394531 C 826.484375 77.539062 825.546875 75.710938 824.5625 73.902344 C 823.578125 72.09375 822.550781 70.3125 821.480469 68.554688 C 820.410156 66.796875 819.296875 65.066406 818.140625 63.367188 C 816.984375 61.664062 815.789062 59.988281 814.550781 58.34375 C 813.3125 56.699219 812.035156 55.085938 810.71875 53.503906 C 809.402344 51.921875 808.050781 50.375 806.65625 48.859375 C 805.265625 47.34375 803.835938 45.863281 802.375 44.414062 C 800.910156 42.96875 799.410156 41.558594 797.875 40.1875 C 796.34375 38.816406 794.777344 37.480469 793.179688 36.183594 C 791.582031 34.886719 789.953125 33.632812 788.292969 32.414062 C 786.632812 31.199219 784.945312 30.023438 783.226562 28.890625 C 781.507812 27.753906 779.765625 26.664062 777.996094 25.613281 C 776.222656 24.566406 774.429688 23.5625 772.609375 22.601562 C 770.789062 21.640625 768.945312 20.722656 767.082031 19.851562 C 765.21875 18.980469 763.332031 18.15625 761.429688 17.375 C 759.523438 16.597656 757.601562 15.867188 755.660156 15.179688 C 753.71875 14.496094 751.761719 13.859375 749.792969 13.269531 C 747.820312 12.679688 745.835938 12.140625 743.835938 11.648438 C 741.839844 11.15625 739.828125 10.710938 737.808594 10.316406 C 735.789062 9.921875 733.761719 9.578125 731.726562 9.285156 C 729.6875 8.988281 727.644531 8.742188 725.597656 8.546875 C 723.546875 8.351562 721.496094 8.207031 719.441406 8.113281 C 717.382812 8.207031 715.332031 8.351562 713.285156 8.546875 C 711.234375 8.742188 709.191406 8.988281 707.15625 9.285156 C 705.117188 9.578125 703.089844 9.921875 701.070312 10.316406 C 699.050781 10.710938 697.042969 11.15625 695.042969 11.648438 C 693.046875 12.140625 691.0625 12.679688 689.089844 13.269531 C 687.117188 13.859375 685.160156 14.496094 683.21875 15.179688 C 681.28125 15.867188 679.355469 16.597656 677.453125 17.375 C 675.546875 18.15625 673.664062 18.980469 671.796875 19.851562 C 669.933594 20.722656 668.089844 21.640625 666.273438 22.601562 C 664.453125 23.5625 662.65625 24.566406 660.886719 25.613281 C 659.117188 26.664062 657.371094 27.753906 655.652344 28.890625 C 653.9375 30.023438 652.25 31.199219 650.589844 32.414062 C 648.929688 33.632812 647.300781 34.886719 645.703125 36.183594 C 644.101562 37.480469 642.535156 38.816406 641.003906 40.1875 C 639.46875 41.558594 637.972656 42.96875 636.507812 44.414062 C 635.042969 45.863281 633.613281 47.34375 632.222656 48.859375 C 630.832031 50.375 629.476562 51.921875 628.160156 53.503906 C 626.84375 55.085938 625.566406 56.699219 624.332031 58.34375 C 623.09375 59.988281 621.894531 61.664062 620.742188 63.367188 C 619.585938 65.066406 618.472656 66.796875 617.402344 68.554688 C 616.328125 70.3125 615.300781 72.09375 614.320312 73.902344 C 613.335938 75.710938 612.394531 77.539062 611.5 79.394531 C 610.605469 81.246094 609.757812 83.121094 608.953125 85.015625 C 608.152344 86.910156 607.394531 88.824219 606.6875 90.757812 C 605.976562 92.6875 605.316406 94.636719 604.703125 96.601562 C 604.085938 98.566406 603.519531 100.542969 603.003906 102.535156 C 602.488281 104.527344 602.019531 106.53125 601.597656 108.542969 C 601.179688 110.558594 600.808594 112.582031 600.488281 114.617188 C 600.167969 116.648438 599.898438 118.6875 599.675781 120.734375 C 599.453125 122.78125 599.285156 124.832031 599.164062 126.882812 C 599.042969 128.9375 598.972656 130.996094 598.953125 133.054688 C 598.929688 135.109375 598.960938 137.167969 599.042969 139.222656 L 599.042969 222.128906 L 516.371094 222.128906 C 514.914062 222.132812 513.460938 222.199219 512.011719 222.335938 C 510.558594 222.472656 509.121094 222.671875 507.6875 222.9375 C 506.257812 223.203125 504.839844 223.535156 503.4375 223.933594 C 502.035156 224.328125 500.65625 224.785156 499.296875 225.308594 C 497.9375 225.828125 496.605469 226.414062 495.296875 227.054688 C 493.992188 227.699219 492.714844 228.402344 491.472656 229.160156 C 490.230469 229.921875 489.027344 230.734375 487.859375 231.605469 C 486.691406 232.476562 485.5625 233.394531 484.480469 234.367188 C 483.394531 235.339844 482.359375 236.359375 481.367188 237.425781 C 480.375 238.496094 479.4375 239.605469 478.546875 240.757812 C 477.65625 241.910156 476.820312 243.101562 476.039062 244.332031 C 475.257812 245.558594 474.535156 246.820312 473.871094 248.117188 C 473.203125 249.414062 472.597656 250.734375 472.054688 252.085938 C 471.507812 253.4375 471.027344 254.808594 470.605469 256.203125 C 470.1875 257.597656 469.832031 259.007812 469.539062 260.433594 C 469.25 261.863281 469.023438 263.296875 468.863281 264.746094 L 417.863281 750.53125 C 417.496094 753.84375 417.480469 757.15625 417.816406 760.472656 C 418.15625 763.789062 418.835938 767.03125 419.859375 770.203125 C 420.882812 773.371094 422.226562 776.402344 423.890625 779.289062 C 425.558594 782.171875 427.503906 784.851562 429.738281 787.328125 C 431.972656 789.808594 434.441406 792.03125 437.140625 794 C 439.839844 795.964844 442.710938 797.628906 445.761719 798.992188 C 448.808594 800.355469 451.964844 801.390625 455.230469 802.089844 C 458.496094 802.792969 461.796875 803.152344 465.136719 803.164062 L 521.753906 803.164062 C 522.53125 803.164062 523.308594 803.125 524.082031 803.046875 C 524.855469 802.972656 525.621094 802.859375 526.382812 802.707031 C 527.144531 802.554688 527.898438 802.367188 528.640625 802.140625 C 529.386719 801.914062 530.117188 801.652344 530.832031 801.355469 C 531.550781 801.058594 532.253906 800.726562 532.9375 800.359375 C 533.625 799.996094 534.289062 799.597656 534.9375 799.164062 C 535.582031 798.734375 536.207031 798.269531 536.804688 797.777344 C 537.40625 797.285156 537.980469 796.761719 538.53125 796.214844 C 539.082031 795.664062 539.601562 795.089844 540.09375 794.488281 C 540.585938 793.886719 541.050781 793.265625 541.480469 792.617188 C 541.914062 791.972656 542.3125 791.308594 542.679688 790.621094 C 543.042969 789.9375 543.375 789.234375 543.675781 788.515625 C 543.972656 787.796875 544.234375 787.066406 544.457031 786.324219 C 544.683594 785.582031 544.871094 784.828125 545.023438 784.066406 C 545.175781 783.304688 545.289062 782.535156 545.367188 781.761719 C 545.441406 780.988281 545.480469 780.214844 545.480469 779.4375 L 545.480469 779.3125 C 545.480469 778.535156 545.441406 777.761719 545.367188 776.988281 C 545.289062 776.21875 545.175781 775.453125 545.027344 774.691406 C 544.875 773.929688 544.6875 773.179688 544.460938 772.4375 C 544.238281 771.695312 543.976562 770.964844 543.679688 770.246094 C 543.382812 769.53125 543.054688 768.832031 542.6875 768.144531 C 542.324219 767.460938 541.925781 766.796875 541.496094 766.152344 C 541.066406 765.507812 540.605469 764.882812 540.113281 764.28125 C 539.621094 763.683594 539.101562 763.109375 538.554688 762.558594 C 538.007812 762.011719 537.433594 761.488281 536.835938 760.996094 C 536.238281 760.503906 535.613281 760.039062 534.972656 759.609375 C 534.328125 759.175781 533.664062 758.777344 532.980469 758.410156 C 532.296875 758.042969 531.597656 757.710938 530.882812 757.410156 C 530.164062 757.113281 529.4375 756.851562 528.695312 756.625 C 527.953125 756.398438 527.203125 756.207031 526.441406 756.054688 C 525.679688 755.898438 524.914062 755.785156 524.144531 755.707031 C 523.371094 755.628906 522.597656 755.589844 521.824219 755.585938 L 464.207031 755.421875 L 516.371094 268.703125 L 599.042969 268.9375 L 599.042969 318.308594 C 599.042969 319.070312 599.082031 319.832031 599.15625 320.589844 C 599.230469 321.351562 599.339844 322.101562 599.492188 322.851562 C 599.640625 323.597656 599.824219 324.339844 600.046875 325.070312 C 600.265625 325.796875 600.523438 326.515625 600.816406 327.21875 C 601.105469 327.925781 601.433594 328.613281 601.792969 329.285156 C 602.152344 329.957031 602.542969 330.613281 602.96875 331.246094 C 603.390625 331.878906 603.84375 332.492188 604.328125 333.082031 C 604.8125 333.671875 605.324219 334.234375 605.863281 334.773438 C 606.402344 335.316406 606.96875 335.828125 607.558594 336.308594 C 608.148438 336.792969 608.757812 337.246094 609.394531 337.671875 C 610.027344 338.09375 610.679688 338.488281 611.351562 338.847656 C 612.027344 339.207031 612.714844 339.53125 613.417969 339.824219 C 614.125 340.117188 614.839844 340.371094 615.570312 340.59375 C 616.300781 340.816406 617.039062 341 617.789062 341.148438 C 618.535156 341.296875 619.289062 341.410156 620.046875 341.484375 C 620.808594 341.558594 621.566406 341.597656 622.332031 341.597656 C 623.09375 341.597656 623.855469 341.558594 624.613281 341.484375 C 625.371094 341.410156 626.125 341.296875 626.875 341.148438 C 627.621094 341 628.359375 340.816406 629.089844 340.59375 C 629.820312 340.371094 630.539062 340.117188 631.242188 339.824219 C 631.949219 339.53125 632.636719 339.207031 633.308594 338.847656 C 633.980469 338.488281 634.632812 338.09375 635.269531 337.671875 C 635.902344 337.246094 636.515625 336.792969 637.105469 336.308594 C 637.695312 335.828125 638.257812 335.316406 638.796875 334.773438 C 639.335938 334.234375 639.847656 333.671875 640.332031 333.082031 C 640.816406 332.492188 641.269531 331.878906 641.695312 331.246094 C 642.117188 330.613281 642.507812 329.957031 642.867188 329.285156 C 643.226562 328.613281 643.554688 327.925781 643.847656 327.21875 C 644.136719 326.515625 644.394531 325.796875 644.617188 325.070312 C 644.835938 324.339844 645.023438 323.597656 645.171875 322.851562 C 645.320312 322.101562 645.433594 321.351562 645.507812 320.589844 C 645.582031 319.832031 645.617188 319.070312 645.617188 318.308594 L 645.617188 268.9375 L 793.265625 269.402344 L 793.265625 318.308594 C 793.265625 319.070312 793.300781 319.832031 793.375 320.589844 C 793.449219 321.351562 793.5625 322.101562 793.710938 322.851562 C 793.859375 323.597656 794.046875 324.339844 794.265625 325.070312 C 794.488281 325.796875 794.746094 326.515625 795.035156 327.21875 C 795.328125 327.925781 795.652344 328.613281 796.015625 329.285156 C 796.375 329.957031 796.765625 330.613281 797.1875 331.246094 C 797.613281 331.878906 798.066406 332.492188 798.550781 333.082031 C 799.035156 333.671875 799.546875 334.234375 800.085938 334.773438 C 800.625 335.316406 801.1875 335.828125 801.777344 336.308594 C 802.367188 336.792969 802.980469 337.246094 803.613281 337.671875 C 804.246094 338.09375 804.902344 338.488281 805.574219 338.847656 C 806.246094 339.207031 806.933594 339.53125 807.640625 339.824219 C 808.34375 340.117188 809.0625 340.371094 809.792969 340.59375 C 810.523438 340.816406 811.261719 341 812.007812 341.148438 C 812.757812 341.296875 813.511719 341.410156 814.269531 341.484375 C 815.027344 341.558594 815.789062 341.597656 816.550781 341.597656 C 817.316406 341.597656 818.074219 341.558594 818.835938 341.484375 C 819.59375 341.410156 820.347656 341.296875 821.09375 341.148438 C 821.84375 341 822.582031 340.816406 823.3125 340.59375 C 824.042969 340.371094 824.757812 340.117188 825.464844 339.824219 C 826.167969 339.53125 826.855469 339.207031 827.53125 338.847656 C 828.203125 338.488281 828.855469 338.09375 829.488281 337.671875 C 830.125 337.246094 830.734375 336.792969 831.324219 336.308594 C 831.914062 335.828125 832.480469 335.316406 833.019531 334.773438 C 833.558594 334.234375 834.070312 333.671875 834.554688 333.082031 C 835.039062 332.492188 835.492188 331.878906 835.914062 331.246094 C 836.339844 330.613281 836.730469 329.957031 837.089844 329.285156 C 837.449219 328.613281 837.773438 327.925781 838.066406 327.21875 C 838.359375 326.515625 838.617188 325.796875 838.835938 325.070312 C 839.058594 324.339844 839.242188 323.597656 839.390625 322.851562 C 839.542969 322.101562 839.652344 321.351562 839.726562 320.589844 C 839.800781 319.832031 839.839844 319.070312 839.839844 318.308594 L 839.839844 269.402344 L 923.675781 269.636719 L 974.445312 756.121094 C 974.210938 756.585938 973.976562 756.585938 973.746094 756.585938 L 615.839844 755.710938 C 615.0625 755.710938 614.285156 755.746094 613.511719 755.820312 C 612.738281 755.894531 611.96875 756.007812 611.203125 756.15625 C 610.441406 756.308594 609.6875 756.496094 608.941406 756.71875 C 608.195312 756.945312 607.464844 757.203125 606.742188 757.5 C 606.023438 757.796875 605.320312 758.128906 604.632812 758.496094 C 603.945312 758.859375 603.28125 759.257812 602.632812 759.691406 C 601.984375 760.121094 601.359375 760.585938 600.757812 761.078125 C 600.15625 761.570312 599.578125 762.089844 599.027344 762.640625 C 598.476562 763.191406 597.953125 763.765625 597.457031 764.367188 C 596.964844 764.96875 596.5 765.589844 596.066406 766.238281 C 595.636719 766.886719 595.234375 767.550781 594.867188 768.238281 C 594.5 768.921875 594.167969 769.625 593.867188 770.34375 C 593.570312 771.0625 593.308594 771.796875 593.082031 772.539062 C 592.855469 773.285156 592.667969 774.039062 592.515625 774.800781 C 592.363281 775.566406 592.25 776.332031 592.171875 777.109375 C 592.09375 777.882812 592.058594 778.660156 592.058594 779.4375 C 592.058594 780.214844 592.09375 780.988281 592.171875 781.761719 C 592.246094 782.535156 592.363281 783.304688 592.511719 784.066406 C 592.664062 784.828125 592.851562 785.582031 593.078125 786.324219 C 593.304688 787.066406 593.566406 787.796875 593.863281 788.515625 C 594.160156 789.234375 594.492188 789.9375 594.859375 790.621094 C 595.226562 791.304688 595.625 791.972656 596.054688 792.617188 C 596.488281 793.265625 596.949219 793.886719 597.441406 794.488281 C 597.9375 795.089844 598.457031 795.664062 599.007812 796.214844 C 599.554688 796.761719 600.132812 797.285156 600.730469 797.777344 C 601.332031 798.269531 601.957031 798.730469 602.601562 799.164062 C 603.246094 799.59375 603.914062 799.996094 604.597656 800.359375 C 605.285156 800.726562 605.984375 801.058594 606.703125 801.355469 C 607.421875 801.652344 608.152344 801.914062 608.894531 802.140625 C 609.640625 802.367188 610.390625 802.554688 611.152344 802.707031 C 611.917969 802.859375 612.683594 802.972656 613.457031 803.046875 C 614.230469 803.125 615.007812 803.164062 615.78125 803.164062 L 973.746094 803.164062 C 975.40625 803.148438 977.058594 803.046875 978.707031 802.859375 C 980.355469 802.671875 981.992188 802.402344 983.609375 802.046875 C 985.230469 801.6875 986.828125 801.25 988.402344 800.726562 C 989.980469 800.207031 991.523438 799.601562 993.035156 798.921875 C 994.546875 798.238281 996.019531 797.480469 997.453125 796.644531 C 998.886719 795.808594 1000.273438 794.898438 1001.613281 793.921875 C 1002.953125 792.941406 1004.238281 791.894531 1005.46875 790.78125 C 1006.699219 789.667969 1007.867188 788.496094 1008.976562 787.261719 C 1010.085938 786.027344 1011.128906 784.738281 1012.101562 783.394531 C 1013.078125 782.054688 1013.980469 780.664062 1014.8125 779.226562 C 1015.640625 777.792969 1016.394531 776.316406 1017.074219 774.800781 C 1017.75 773.285156 1018.347656 771.742188 1018.863281 770.164062 C 1019.382812 768.585938 1019.816406 766.988281 1020.167969 765.367188 C 1020.519531 763.746094 1020.785156 762.109375 1020.964844 760.460938 C 1021.144531 758.8125 1021.242188 757.15625 1021.25 755.496094 C 1021.261719 753.839844 1021.183594 752.183594 1021.019531 750.53125 Z M 793.261719 222.128906 L 645.617188 222.128906 L 645.617188 139.222656 C 648.179688 27.675781 790.703125 27.675781 793.261719 139.222656 Z M 722.46875 607.542969 C 721.488281 607.195312 720.480469 607.019531 719.441406 607.019531 C 718.402344 607.019531 717.390625 607.195312 716.414062 607.542969 C 715.261719 607.675781 714.109375 607.753906 712.953125 607.777344 C 711.796875 607.800781 710.640625 607.769531 709.488281 607.6875 C 708.335938 607.601562 707.1875 607.464844 706.046875 607.273438 C 704.90625 607.082031 703.777344 606.839844 702.65625 606.542969 C 701.539062 606.25 700.4375 605.902344 699.351562 605.5 C 698.265625 605.101562 697.199219 604.652344 696.15625 604.15625 C 695.113281 603.65625 694.09375 603.113281 693.101562 602.519531 C 692.105469 601.925781 691.144531 601.289062 690.210938 600.605469 C 689.277344 599.921875 688.375 599.195312 687.511719 598.429688 C 686.644531 597.664062 685.816406 596.859375 685.023438 596.015625 C 684.234375 595.167969 683.484375 594.289062 682.773438 593.375 C 682.066406 592.460938 681.398438 591.519531 680.777344 590.542969 C 680.15625 589.566406 679.582031 588.5625 679.054688 587.535156 C 678.527344 586.503906 678.050781 585.453125 677.621094 584.378906 C 677.191406 583.304688 676.8125 582.210938 676.484375 581.101562 C 676.15625 579.992188 675.882812 578.871094 675.660156 577.734375 C 675.53125 576.980469 675.367188 576.234375 675.164062 575.496094 C 674.964844 574.761719 674.726562 574.035156 674.453125 573.320312 C 674.179688 572.605469 673.871094 571.90625 673.527344 571.222656 C 673.183594 570.539062 672.808594 569.875 672.398438 569.226562 C 671.992188 568.582031 671.550781 567.957031 671.078125 567.355469 C 670.609375 566.753906 670.109375 566.175781 669.578125 565.621094 C 669.050781 565.070312 668.496094 564.542969 667.917969 564.046875 C 667.335938 563.546875 666.730469 563.082031 666.105469 562.640625 C 665.476562 562.203125 664.832031 561.800781 664.164062 561.425781 C 663.496094 561.050781 662.8125 560.710938 662.109375 560.40625 C 661.410156 560.101562 660.695312 559.832031 659.96875 559.59375 C 659.238281 559.359375 658.5 559.164062 657.753906 559 C 657.007812 558.839844 656.253906 558.714844 655.492188 558.628906 C 654.734375 558.542969 653.972656 558.492188 653.207031 558.484375 C 652.441406 558.472656 651.679688 558.5 650.914062 558.5625 C 650.152344 558.628906 649.398438 558.730469 648.644531 558.871094 C 647.890625 559.007812 647.144531 559.183594 646.40625 559.394531 C 645.667969 559.605469 644.941406 559.851562 644.230469 560.136719 C 643.515625 560.417969 642.820312 560.734375 642.136719 561.085938 C 641.453125 561.4375 640.789062 561.820312 640.144531 562.234375 C 639.5 562.652344 638.878906 563.097656 638.277344 563.574219 C 637.675781 564.050781 637.101562 564.558594 636.546875 565.089844 C 635.996094 565.625 635.472656 566.183594 634.976562 566.769531 C 634.480469 567.355469 634.015625 567.960938 633.578125 568.59375 C 633.140625 569.222656 632.734375 569.875 632.363281 570.546875 C 631.992188 571.214844 631.652344 571.902344 631.34375 572.605469 C 631.039062 573.308594 630.769531 574.027344 630.535156 574.757812 C 630.300781 575.488281 630.101562 576.226562 629.9375 576.976562 C 629.777344 577.726562 629.652344 578.484375 629.5625 579.246094 C 629.472656 580.007812 629.425781 580.773438 629.410156 581.539062 C 629.398438 582.308594 629.421875 583.074219 629.484375 583.839844 C 629.546875 584.601562 629.644531 585.363281 629.78125 586.117188 C 630.160156 588.167969 630.613281 590.199219 631.144531 592.210938 C 631.675781 594.226562 632.28125 596.21875 632.960938 598.1875 C 633.640625 600.15625 634.394531 602.097656 635.222656 604.007812 C 636.046875 605.921875 636.945312 607.796875 637.914062 609.644531 C 638.878906 611.488281 639.914062 613.292969 641.019531 615.0625 C 642.121094 616.828125 643.289062 618.550781 644.523438 620.230469 C 645.757812 621.910156 647.050781 623.539062 648.40625 625.121094 C 649.761719 626.703125 651.171875 628.230469 652.644531 629.707031 C 654.113281 631.183594 655.636719 632.601562 657.214844 633.960938 C 658.792969 635.320312 660.417969 636.621094 662.09375 637.859375 C 663.765625 639.097656 665.484375 640.273438 667.25 641.382812 C 669.011719 642.492188 670.8125 643.535156 672.65625 644.507812 C 674.496094 645.480469 676.371094 646.386719 678.28125 647.21875 C 680.191406 648.050781 682.128906 648.8125 684.09375 649.5 C 686.0625 650.1875 688.050781 650.800781 690.0625 651.335938 C 692.074219 651.875 694.105469 652.335938 696.152344 652.722656 C 694.289062 669.253906 700.34375 686.257812 719.441406 686.722656 C 739.003906 686.257812 744.589844 668.789062 742.726562 652.253906 C 745.898438 651.488281 749 650.507812 752.035156 649.316406 C 755.070312 648.121094 758.007812 646.726562 760.851562 645.125 C 763.691406 643.527344 766.414062 641.742188 769.007812 639.769531 C 771.605469 637.796875 774.054688 635.65625 776.355469 633.34375 C 778.660156 631.035156 780.792969 628.578125 782.753906 625.976562 C 784.71875 623.371094 786.496094 620.644531 788.082031 617.796875 C 789.671875 614.949219 791.058594 612.003906 792.238281 608.96875 C 793.421875 605.929688 794.394531 602.824219 795.148438 599.648438 C 795.902344 596.476562 796.4375 593.269531 796.753906 590.023438 C 797.066406 586.777344 797.15625 583.523438 797.023438 580.265625 C 796.886719 577.007812 796.53125 573.773438 795.953125 570.566406 C 795.375 567.355469 794.578125 564.203125 793.5625 561.101562 C 792.550781 558.003906 791.328125 554.988281 789.902344 552.054688 C 788.472656 549.125 786.851562 546.304688 785.035156 543.59375 C 783.214844 540.886719 781.222656 538.316406 779.050781 535.882812 C 776.882812 533.449219 774.554688 531.175781 772.070312 529.0625 L 696.386719 466.183594 C 695.398438 465.414062 694.480469 464.566406 693.628906 463.648438 C 692.777344 462.726562 692.003906 461.746094 691.308594 460.703125 C 690.613281 459.660156 690.003906 458.570312 689.484375 457.429688 C 688.960938 456.289062 688.535156 455.117188 688.203125 453.90625 C 687.867188 452.699219 687.632812 451.472656 687.496094 450.226562 C 687.359375 448.980469 687.320312 447.734375 687.382812 446.480469 C 687.445312 445.230469 687.605469 443.988281 687.867188 442.765625 C 688.125 441.539062 688.480469 440.339844 688.933594 439.171875 C 689.332031 437.996094 689.820312 436.859375 690.394531 435.761719 C 690.972656 434.664062 691.628906 433.613281 692.367188 432.617188 C 693.101562 431.621094 693.914062 430.6875 694.796875 429.8125 C 695.675781 428.941406 696.621094 428.144531 697.628906 427.417969 C 698.632812 426.691406 699.6875 426.046875 700.792969 425.484375 C 701.898438 424.921875 703.042969 424.449219 704.222656 424.0625 C 705.398438 423.675781 706.601562 423.382812 707.824219 423.183594 C 709.050781 422.984375 710.28125 422.878906 711.523438 422.871094 L 726.195312 422.871094 C 727.390625 422.871094 728.585938 422.933594 729.777344 423.050781 C 730.964844 423.171875 732.148438 423.347656 733.324219 423.582031 C 734.496094 423.816406 735.65625 424.109375 736.800781 424.457031 C 737.945312 424.808594 739.070312 425.210938 740.175781 425.667969 C 741.28125 426.128906 742.363281 426.640625 743.417969 427.207031 C 744.472656 427.769531 745.496094 428.386719 746.492188 429.050781 C 747.488281 429.714844 748.445312 430.429688 749.371094 431.1875 C 750.296875 431.949219 751.183594 432.75 752.027344 433.597656 C 752.875 434.441406 753.679688 435.328125 754.4375 436.253906 C 755.195312 437.179688 755.910156 438.140625 756.574219 439.132812 C 757.238281 440.128906 757.855469 441.152344 758.421875 442.207031 C 758.984375 443.265625 759.496094 444.34375 759.957031 445.449219 C 760.414062 446.554688 760.820312 447.679688 761.167969 448.824219 C 761.515625 449.96875 761.808594 451.128906 762.042969 452.304688 C 762.277344 453.476562 762.453125 454.660156 762.574219 455.851562 C 762.691406 457.039062 762.753906 458.234375 762.753906 459.433594 C 762.753906 460.195312 762.792969 460.957031 762.867188 461.714844 C 762.941406 462.472656 763.054688 463.226562 763.203125 463.976562 C 763.351562 464.722656 763.535156 465.460938 763.757812 466.191406 C 763.980469 466.921875 764.238281 467.640625 764.527344 468.34375 C 764.820312 469.046875 765.144531 469.738281 765.503906 470.410156 C 765.863281 471.082031 766.257812 471.734375 766.679688 472.371094 C 767.105469 473.003906 767.558594 473.617188 768.042969 474.207031 C 768.527344 474.796875 769.039062 475.359375 769.578125 475.898438 C 770.117188 476.4375 770.679688 476.949219 771.269531 477.433594 C 771.859375 477.917969 772.472656 478.371094 773.105469 478.792969 C 773.738281 479.21875 774.394531 479.609375 775.066406 479.96875 C 775.738281 480.328125 776.425781 480.65625 777.132812 480.945312 C 777.835938 481.238281 778.554688 481.496094 779.285156 481.714844 C 780.011719 481.9375 780.753906 482.125 781.5 482.273438 C 782.25 482.421875 783.003906 482.53125 783.761719 482.609375 C 784.519531 482.683594 785.28125 482.71875 786.042969 482.71875 C 786.804688 482.71875 787.566406 482.683594 788.328125 482.609375 C 789.085938 482.53125 789.839844 482.421875 790.585938 482.273438 C 791.335938 482.125 792.074219 481.9375 792.804688 481.71875 C 793.535156 481.496094 794.25 481.238281 794.957031 480.945312 C 795.660156 480.65625 796.347656 480.328125 797.023438 479.96875 C 797.695312 479.609375 798.347656 479.21875 798.980469 478.792969 C 799.617188 478.371094 800.226562 477.917969 800.816406 477.433594 C 801.40625 476.949219 801.972656 476.4375 802.511719 475.898438 C 803.050781 475.359375 803.5625 474.796875 804.046875 474.207031 C 804.53125 473.617188 804.984375 473.003906 805.40625 472.371094 C 805.832031 471.734375 806.222656 471.082031 806.582031 470.410156 C 806.941406 469.738281 807.265625 469.046875 807.558594 468.34375 C 807.851562 467.640625 808.105469 466.921875 808.328125 466.191406 C 808.550781 465.460938 808.734375 464.722656 808.882812 463.976562 C 809.03125 463.226562 809.144531 462.472656 809.21875 461.714844 C 809.292969 460.957031 809.332031 460.195312 809.332031 459.433594 C 809.328125 457.058594 809.21875 454.6875 809.011719 452.320312 C 808.804688 449.957031 808.496094 447.605469 808.089844 445.265625 C 807.679688 442.925781 807.171875 440.609375 806.566406 438.3125 C 805.960938 436.015625 805.257812 433.75 804.457031 431.515625 C 803.65625 429.277344 802.761719 427.082031 801.773438 424.921875 C 800.789062 422.761719 799.710938 420.648438 798.542969 418.582031 C 797.371094 416.515625 796.117188 414.5 794.777344 412.539062 C 793.4375 410.582031 792.015625 408.679688 790.515625 406.84375 C 789.011719 405.003906 787.433594 403.230469 785.78125 401.527344 C 784.125 399.824219 782.402344 398.195312 780.609375 396.636719 C 778.816406 395.082031 776.960938 393.601562 775.039062 392.203125 C 773.121094 390.808594 771.144531 389.492188 769.113281 388.261719 C 767.082031 387.035156 765.003906 385.894531 762.875 384.839844 C 760.746094 383.789062 758.574219 382.832031 756.363281 381.964844 C 754.152344 381.097656 751.910156 380.328125 749.632812 379.652344 C 747.355469 378.976562 745.054688 378.402344 742.726562 377.925781 C 744.359375 361.15625 739.234375 343.921875 719.441406 343.226562 C 699.414062 343.921875 694.523438 361.15625 696.152344 378.386719 C 692.96875 379.152344 689.851562 380.132812 686.800781 381.328125 C 683.75 382.519531 680.796875 383.917969 677.941406 385.519531 C 675.082031 387.121094 672.347656 388.910156 669.738281 390.886719 C 667.128906 392.863281 664.664062 395.011719 662.351562 397.328125 C 660.035156 399.644531 657.890625 402.109375 655.914062 404.722656 C 653.941406 407.335938 652.152344 410.070312 650.554688 412.929688 C 648.957031 415.789062 647.5625 418.742188 646.371094 421.792969 C 645.179688 424.84375 644.203125 427.960938 643.441406 431.148438 C 642.679688 434.332031 642.136719 437.554688 641.820312 440.816406 C 641.503906 444.074219 641.410156 447.339844 641.542969 450.613281 C 641.671875 453.886719 642.03125 457.132812 642.609375 460.359375 C 643.1875 463.582031 643.984375 466.75 645.003906 469.863281 C 646.019531 472.976562 647.242188 476.007812 648.675781 478.953125 C 650.109375 481.894531 651.738281 484.730469 653.5625 487.449219 C 655.386719 490.167969 657.386719 492.753906 659.566406 495.195312 C 661.746094 497.640625 664.082031 499.925781 666.578125 502.046875 L 742.261719 564.925781 C 743.289062 565.777344 744.238281 566.707031 745.109375 567.710938 C 745.984375 568.71875 746.765625 569.789062 747.464844 570.925781 C 748.160156 572.0625 748.757812 573.246094 749.261719 574.480469 C 749.761719 575.714844 750.160156 576.984375 750.453125 578.28125 C 750.746094 579.582031 750.929688 580.898438 751.007812 582.226562 C 751.085938 583.558594 751.050781 584.886719 750.910156 586.210938 C 750.769531 587.535156 750.519531 588.839844 750.164062 590.121094 C 749.808594 591.40625 749.347656 592.652344 748.789062 593.863281 C 748.226562 595.070312 747.570312 596.222656 746.820312 597.324219 C 746.066406 598.425781 745.230469 599.457031 744.3125 600.421875 C 743.390625 601.382812 742.398438 602.265625 741.332031 603.0625 C 740.265625 603.863281 739.140625 604.570312 737.957031 605.183594 C 736.777344 605.800781 735.550781 606.3125 734.285156 606.726562 C 733.019531 607.140625 731.726562 607.445312 730.410156 607.648438 C 729.09375 607.847656 727.765625 607.941406 726.433594 607.921875 C 725.101562 607.90625 723.78125 607.777344 722.46875 607.542969 Z M 711.523438 422.871094 L 726.195312 422.871094 C 727.390625 422.871094 728.585938 422.933594 729.777344 423.050781 C 730.964844 423.171875 732.148438 423.347656 733.324219 423.582031 C 734.496094 423.820312 735.65625 424.109375 736.800781 424.460938 C 737.945312 424.808594 739.070312 425.210938 740.175781 425.671875 C 741.28125 426.128906 742.363281 426.640625 743.417969 427.207031 C 744.472656 427.773438 745.496094 428.386719 746.492188 429.050781 C 747.488281 429.71875 748.445312 430.429688 749.371094 431.1875 C 750.296875 431.949219 751.183594 432.75 752.027344 433.597656 C 752.875 434.445312 753.679688 435.328125 754.4375 436.253906 C 755.195312 437.179688 755.910156 438.140625 756.574219 439.136719 C 757.238281 440.128906 757.855469 441.15625 758.421875 442.210938 C 758.984375 443.265625 759.496094 444.34375 759.957031 445.449219 C 760.414062 446.554688 760.820312 447.679688 761.167969 448.828125 C 761.515625 449.972656 761.808594 451.128906 762.042969 452.304688 C 762.277344 453.476562 762.453125 454.660156 762.574219 455.851562 C 762.691406 457.042969 762.753906 458.234375 762.753906 459.433594 C 762.753906 460.195312 762.792969 460.957031 762.867188 461.714844 C 762.941406 462.472656 763.054688 463.226562 763.203125 463.976562 C 763.351562 464.722656 763.535156 465.464844 763.757812 466.191406 C 763.980469 466.921875 764.238281 467.640625 764.527344 468.34375 C 764.820312 469.050781 765.144531 469.738281 765.503906 470.410156 C 765.863281 471.082031 766.257812 471.738281 766.679688 472.371094 C 767.105469 473.003906 767.558594 473.617188 768.042969 474.207031 C 768.527344 474.796875 769.039062 475.359375 769.578125 475.898438 C 770.117188 476.4375 770.679688 476.949219 771.269531 477.433594 C 771.859375 477.917969 772.472656 478.371094 773.105469 478.796875 C 773.738281 479.21875 774.394531 479.613281 775.066406 479.972656 C 775.738281 480.332031 776.425781 480.65625 777.132812 480.949219 C 777.835938 481.238281 778.554688 481.496094 779.285156 481.71875 C 780.011719 481.9375 780.753906 482.125 781.5 482.273438 C 782.25 482.421875 783.003906 482.535156 783.761719 482.609375 C 784.519531 482.683594 785.28125 482.722656 786.042969 482.722656 C 786.804688 482.722656 787.566406 482.683594 788.328125 482.609375 C 789.085938 482.535156 789.839844 482.421875 790.585938 482.273438 C 791.335938 482.125 792.074219 481.9375 792.804688 481.71875 C 793.535156 481.496094 794.25 481.238281 794.957031 480.949219 C 795.660156 480.65625 796.347656 480.332031 797.023438 479.972656 C 797.695312 479.613281 798.347656 479.21875 798.980469 478.796875 C 799.617188 478.371094 800.226562 477.917969 800.816406 477.433594 C 801.40625 476.949219 801.972656 476.4375 802.511719 475.898438 C 803.050781 475.359375 803.5625 474.796875 804.046875 474.207031 C 804.53125 473.617188 804.984375 473.003906 805.40625 472.371094 C 805.832031 471.738281 806.222656 471.082031 806.582031 470.410156 C 806.941406 469.738281 807.265625 469.050781 807.558594 468.34375 C 807.851562 467.640625 808.105469 466.921875 808.328125 466.191406 C 808.550781 465.464844 808.734375 464.722656 808.882812 463.976562 C 809.03125 463.226562 809.144531 462.472656 809.21875 461.714844 C 809.292969 460.957031 809.332031 460.195312 809.332031 459.433594 C 809.328125 457.058594 809.21875 454.6875 809.011719 452.324219 C 808.804688 449.957031 808.496094 447.605469 808.089844 445.265625 C 807.679688 442.925781 807.171875 440.609375 806.566406 438.3125 C 805.960938 436.015625 805.257812 433.75 804.457031 431.515625 C 803.65625 429.28125 802.761719 427.082031 801.773438 424.921875 C 800.789062 422.765625 799.710938 420.652344 798.542969 418.582031 C 797.371094 416.515625 796.117188 414.503906 794.777344 412.542969 C 793.4375 410.582031 792.015625 408.683594 790.515625 406.84375 C 789.011719 405.003906 787.433594 403.234375 785.78125 401.53125 C 784.125 399.824219 782.402344 398.195312 780.609375 396.636719 C 778.816406 395.082031 776.960938 393.605469 775.039062 392.207031 C 773.121094 390.808594 771.144531 389.496094 769.113281 388.265625 C 767.082031 387.035156 765.003906 385.894531 762.875 384.84375 C 760.746094 383.792969 758.574219 382.832031 756.363281 381.964844 C 754.152344 381.097656 751.910156 380.328125 749.632812 379.65625 C 747.355469 378.980469 745.054688 378.402344 742.726562 377.925781 C 744.359375 361.15625 739.234375 343.925781 719.441406 343.226562 C 699.414062 343.925781 694.523438 361.15625 696.152344 378.390625 C 692.96875 379.15625 689.851562 380.132812 686.800781 381.328125 C 683.75 382.523438 680.796875 383.917969 677.941406 385.519531 C 675.082031 387.121094 672.347656 388.910156 669.738281 390.886719 C 667.128906 392.867188 664.664062 395.011719 662.351562 397.332031 C 660.035156 399.648438 657.890625 402.113281 655.914062 404.722656 C 653.941406 407.335938 652.152344 410.074219 650.554688 412.929688 C 648.957031 415.789062 647.5625 418.746094 646.371094 421.796875 C 645.179688 424.847656 644.203125 427.964844 643.441406 431.148438 C 642.679688 434.335938 642.136719 437.558594 641.820312 440.816406 C 641.503906 444.078125 641.410156 447.34375 641.542969 450.617188 C 641.671875 453.886719 642.03125 457.136719 642.609375 460.359375 C 643.1875 463.582031 643.984375 466.75 645.003906 469.863281 C 646.019531 472.980469 647.242188 476.007812 648.675781 478.953125 C 650.109375 481.898438 651.738281 484.730469 653.5625 487.449219 C 655.386719 490.171875 657.386719 492.753906 659.566406 495.199219 C 661.746094 497.644531 664.082031 499.925781 666.578125 502.050781 L 742.261719 564.925781 C 743.289062 565.777344 744.238281 566.707031 745.109375 567.714844 C 745.980469 568.71875 746.765625 569.792969 747.464844 570.925781 C 748.160156 572.0625 748.757812 573.25 749.261719 574.484375 C 749.761719 575.71875 750.160156 576.984375 750.453125 578.285156 C 750.746094 579.582031 750.929688 580.898438 751.007812 582.230469 C 751.082031 583.558594 751.050781 584.886719 750.910156 586.210938 C 750.765625 587.535156 750.519531 588.839844 750.160156 590.125 C 749.804688 591.40625 749.347656 592.652344 748.785156 593.863281 C 748.222656 595.070312 747.566406 596.226562 746.816406 597.324219 C 746.066406 598.425781 745.230469 599.457031 744.308594 600.421875 C 743.386719 601.382812 742.394531 602.265625 741.328125 603.0625 C 740.261719 603.863281 739.140625 604.570312 737.957031 605.183594 C 736.773438 605.800781 735.550781 606.3125 734.285156 606.726562 C 733.015625 607.140625 731.726562 607.445312 730.40625 607.648438 C 729.089844 607.847656 727.765625 607.941406 726.433594 607.921875 C 725.101562 607.90625 723.777344 607.777344 722.46875 607.542969 C 721.488281 607.195312 720.480469 607.019531 719.441406 607.019531 C 718.402344 607.019531 717.390625 607.195312 716.414062 607.542969 C 715.261719 607.675781 714.109375 607.753906 712.953125 607.777344 C 711.796875 607.800781 710.640625 607.769531 709.488281 607.6875 C 708.335938 607.601562 707.1875 607.464844 706.046875 607.273438 C 704.90625 607.082031 703.777344 606.839844 702.65625 606.542969 C 701.539062 606.25 700.4375 605.902344 699.351562 605.5 C 698.265625 605.101562 697.199219 604.65625 696.15625 604.15625 C 695.113281 603.65625 694.09375 603.113281 693.101562 602.519531 C 692.105469 601.925781 691.144531 601.289062 690.210938 600.605469 C 689.277344 599.921875 688.375 599.199219 687.511719 598.429688 C 686.644531 597.664062 685.816406 596.859375 685.023438 596.015625 C 684.234375 595.167969 683.484375 594.289062 682.773438 593.375 C 682.066406 592.460938 681.398438 591.519531 680.777344 590.542969 C 680.15625 589.566406 679.582031 588.5625 679.054688 587.535156 C 678.527344 586.503906 678.050781 585.453125 677.621094 584.378906 C 677.191406 583.304688 676.8125 582.210938 676.484375 581.101562 C 676.15625 579.992188 675.882812 578.871094 675.660156 577.734375 C 675.53125 576.980469 675.367188 576.234375 675.164062 575.496094 C 674.964844 574.761719 674.726562 574.035156 674.453125 573.320312 C 674.179688 572.605469 673.871094 571.90625 673.527344 571.222656 C 673.183594 570.539062 672.808594 569.875 672.398438 569.230469 C 671.992188 568.582031 671.550781 567.957031 671.078125 567.355469 C 670.609375 566.753906 670.109375 566.175781 669.578125 565.621094 C 669.050781 565.070312 668.496094 564.542969 667.917969 564.046875 C 667.335938 563.546875 666.730469 563.082031 666.105469 562.644531 C 665.476562 562.203125 664.832031 561.800781 664.164062 561.425781 C 663.496094 561.050781 662.8125 560.710938 662.109375 560.40625 C 661.410156 560.101562 660.695312 559.832031 659.96875 559.597656 C 659.238281 559.359375 658.5 559.164062 657.753906 559 C 657.007812 558.839844 656.253906 558.714844 655.492188 558.628906 C 654.734375 558.542969 653.972656 558.492188 653.207031 558.484375 C 652.441406 558.472656 651.679688 558.5 650.914062 558.5625 C 650.152344 558.628906 649.398438 558.730469 648.644531 558.871094 C 647.890625 559.007812 647.144531 559.183594 646.40625 559.394531 C 645.667969 559.605469 644.941406 559.851562 644.230469 560.136719 C 643.515625 560.417969 642.820312 560.734375 642.136719 561.085938 C 641.453125 561.4375 640.789062 561.820312 640.144531 562.234375 C 639.5 562.652344 638.878906 563.097656 638.277344 563.574219 C 637.675781 564.050781 637.101562 564.558594 636.546875 565.089844 C 635.996094 565.625 635.472656 566.183594 634.976562 566.769531 C 634.480469 567.355469 634.015625 567.960938 633.578125 568.59375 C 633.140625 569.222656 632.734375 569.875 632.363281 570.546875 C 631.992188 571.214844 631.652344 571.902344 631.34375 572.605469 C 631.039062 573.3125 630.769531 574.027344 630.535156 574.757812 C 630.300781 575.488281 630.101562 576.230469 629.9375 576.976562 C 629.777344 577.726562 629.652344 578.484375 629.5625 579.246094 C 629.472656 580.007812 629.425781 580.773438 629.410156 581.539062 C 629.398438 582.308594 629.421875 583.074219 629.484375 583.839844 C 629.546875 584.601562 629.644531 585.363281 629.78125 586.117188 C 630.160156 588.167969 630.613281 590.199219 631.144531 592.210938 C 631.675781 594.226562 632.28125 596.21875 632.960938 598.1875 C 633.640625 600.15625 634.394531 602.097656 635.222656 604.007812 C 636.046875 605.921875 636.945312 607.796875 637.914062 609.644531 C 638.878906 611.488281 639.914062 613.292969 641.019531 615.0625 C 642.121094 616.828125 643.289062 618.550781 644.523438 620.230469 C 645.753906 621.910156 647.050781 623.539062 648.40625 625.121094 C 649.761719 626.703125 651.171875 628.230469 652.644531 629.707031 C 654.113281 631.183594 655.636719 632.601562 657.214844 633.960938 C 658.792969 635.324219 660.417969 636.621094 662.09375 637.859375 C 663.765625 639.097656 665.484375 640.273438 667.25 641.382812 C 669.011719 642.492188 670.8125 643.535156 672.65625 644.507812 C 674.496094 645.480469 676.371094 646.386719 678.28125 647.21875 C 680.191406 648.050781 682.128906 648.8125 684.09375 649.5 C 686.0625 650.1875 688.050781 650.800781 690.0625 651.335938 C 692.074219 651.875 694.105469 652.335938 696.152344 652.722656 C 694.289062 669.257812 700.34375 686.257812 719.441406 686.722656 C 739.003906 686.257812 744.589844 668.789062 742.726562 652.253906 C 745.898438 651.488281 749 650.507812 752.035156 649.316406 C 755.070312 648.121094 758.007812 646.726562 760.851562 645.125 C 763.691406 643.527344 766.414062 641.742188 769.007812 639.769531 C 771.605469 637.796875 774.054688 635.65625 776.355469 633.34375 C 778.660156 631.035156 780.792969 628.578125 782.753906 625.976562 C 784.71875 623.371094 786.496094 620.644531 788.082031 617.796875 C 789.671875 614.949219 791.058594 612.003906 792.238281 608.96875 C 793.421875 605.929688 794.394531 602.824219 795.148438 599.648438 C 795.902344 596.476562 796.4375 593.269531 796.753906 590.023438 C 797.066406 586.777344 797.15625 583.523438 797.023438 580.265625 C 796.886719 577.007812 796.53125 573.773438 795.953125 570.566406 C 795.375 567.355469 794.578125 564.203125 793.5625 561.101562 C 792.550781 558.003906 791.328125 554.988281 789.902344 552.054688 C 788.472656 549.125 786.851562 546.304688 785.035156 543.597656 C 783.214844 540.886719 781.222656 538.316406 779.050781 535.882812 C 776.882812 533.449219 774.554688 531.175781 772.070312 529.0625 L 696.386719 466.183594 C 695.398438 465.414062 694.480469 464.566406 693.628906 463.648438 C 692.773438 462.726562 692 461.746094 691.308594 460.703125 C 690.613281 459.660156 690.003906 458.570312 689.484375 457.429688 C 688.960938 456.289062 688.535156 455.117188 688.203125 453.90625 C 687.867188 452.699219 687.632812 451.472656 687.496094 450.226562 C 687.359375 448.980469 687.320312 447.734375 687.382812 446.480469 C 687.445312 445.230469 687.605469 443.992188 687.867188 442.765625 C 688.125 441.539062 688.480469 440.339844 688.933594 439.171875 C 689.332031 437.996094 689.820312 436.859375 690.394531 435.761719 C 690.972656 434.664062 691.628906 433.613281 692.367188 432.617188 C 693.101562 431.621094 693.914062 430.6875 694.796875 429.8125 C 695.679688 428.941406 696.621094 428.144531 697.628906 427.417969 C 698.632812 426.691406 699.6875 426.046875 700.792969 425.484375 C 701.898438 424.921875 703.042969 424.449219 704.222656 424.0625 C 705.398438 423.675781 706.601562 423.382812 707.824219 423.183594 C 709.050781 422.984375 710.28125 422.878906 711.523438 422.871094 Z M 711.523438 422.871094 L 726.195312 422.871094 C 727.390625 422.871094 728.585938 422.933594 729.777344 423.050781 C 730.964844 423.171875 732.148438 423.347656 733.324219 423.582031 C 734.496094 423.820312 735.65625 424.109375 736.800781 424.460938 C 737.945312 424.808594 739.070312 425.210938 740.175781 425.671875 C 741.28125 426.128906 742.363281 426.640625 743.417969 427.207031 C 744.472656 427.773438 745.496094 428.386719 746.492188 429.050781 C 747.488281 429.71875 748.445312 430.429688 749.371094 431.1875 C 750.296875 431.949219 751.183594 432.75 752.027344 433.597656 C 752.875 434.445312 753.679688 435.328125 754.4375 436.253906 C 755.195312 437.179688 755.910156 438.140625 756.574219 439.136719 C 757.238281 440.128906 757.855469 441.15625 758.421875 442.210938 C 758.984375 443.265625 759.496094 444.34375 759.957031 445.449219 C 760.414062 446.554688 760.820312 447.679688 761.167969 448.828125 C 761.515625 449.972656 761.808594 451.128906 762.042969 452.304688 C 762.277344 453.476562 762.453125 454.660156 762.574219 455.851562 C 762.691406 457.042969 762.753906 458.234375 762.753906 459.433594 C 762.753906 460.195312 762.792969 460.957031 762.867188 461.714844 C 762.941406 462.472656 763.054688 463.226562 763.203125 463.976562 C 763.351562 464.722656 763.535156 465.464844 763.757812 466.191406 C 763.980469 466.921875 764.238281 467.640625 764.527344 468.34375 C 764.820312 469.050781 765.144531 469.738281 765.503906 470.410156 C 765.863281 471.082031 766.257812 471.738281 766.679688 472.371094 C 767.105469 473.003906 767.558594 473.617188 768.042969 474.207031 C 768.527344 474.796875 769.039062 475.359375 769.578125 475.898438 C 770.117188 476.4375 770.679688 476.949219 771.269531 477.433594 C 771.859375 477.917969 772.472656 478.371094 773.105469 478.796875 C 773.738281 479.21875 774.394531 479.613281 775.066406 479.972656 C 775.738281 480.332031 776.425781 480.65625 777.132812 480.949219 C 777.835938 481.238281 778.554688 481.496094 779.285156 481.71875 C 780.011719 481.9375 780.753906 482.125 781.5 482.273438 C 782.25 482.421875 783.003906 482.535156 783.761719 482.609375 C 784.519531 482.683594 785.28125 482.722656 786.042969 482.722656 C 786.804688 482.722656 787.566406 482.683594 788.328125 482.609375 C 789.085938 482.535156 789.839844 482.421875 790.585938 482.273438 C 791.335938 482.125 792.074219 481.9375 792.804688 481.71875 C 793.535156 481.496094 794.25 481.238281 794.957031 480.949219 C 795.660156 480.65625 796.347656 480.332031 797.023438 479.972656 C 797.695312 479.613281 798.347656 479.21875 798.980469 478.796875 C 799.617188 478.371094 800.226562 477.917969 800.816406 477.433594 C 801.40625 476.949219 801.972656 476.4375 802.511719 475.898438 C 803.050781 475.359375 803.5625 474.796875 804.046875 474.207031 C 804.53125 473.617188 804.984375 473.003906 805.40625 472.371094 C 805.832031 471.738281 806.222656 471.082031 806.582031 470.410156 C 806.941406 469.738281 807.265625 469.050781 807.558594 468.34375 C 807.851562 467.640625 808.105469 466.921875 808.328125 466.191406 C 808.550781 465.464844 808.734375 464.722656 808.882812 463.976562 C 809.03125 463.226562 809.144531 462.472656 809.21875 461.714844 C 809.292969 460.957031 809.332031 460.195312 809.332031 459.433594 C 809.328125 457.058594 809.21875 454.6875 809.011719 452.324219 C 808.804688 449.957031 808.496094 447.605469 808.089844 445.265625 C 807.679688 442.925781 807.171875 440.609375 806.566406 438.3125 C 805.960938 436.015625 805.257812 433.75 804.457031 431.515625 C 803.65625 429.28125 802.761719 427.082031 801.773438 424.921875 C 800.789062 422.765625 799.710938 420.652344 798.542969 418.582031 C 797.371094 416.515625 796.117188 414.503906 794.777344 412.542969 C 793.4375 410.582031 792.015625 408.683594 790.515625 406.84375 C 789.011719 405.003906 787.433594 403.234375 785.78125 401.53125 C 784.125 399.824219 782.402344 398.195312 780.609375 396.636719 C 778.816406 395.082031 776.960938 393.605469 775.039062 392.207031 C 773.121094 390.808594 771.144531 389.496094 769.113281 388.265625 C 767.082031 387.035156 765.003906 385.894531 762.875 384.84375 C 760.746094 383.792969 758.574219 382.832031 756.363281 381.964844 C 754.152344 381.097656 751.910156 380.328125 749.632812 379.65625 C 747.355469 378.980469 745.054688 378.402344 742.726562 377.925781 C 744.359375 361.15625 739.234375 343.925781 719.441406 343.226562 C 699.414062 343.925781 694.523438 361.15625 696.152344 378.390625 C 692.96875 379.15625 689.851562 380.132812 686.800781 381.328125 C 683.75 382.523438 680.796875 383.917969 677.941406 385.519531 C 675.082031 387.121094 672.347656 388.910156 669.738281 390.886719 C 667.128906 392.867188 664.664062 395.011719 662.351562 397.332031 C 660.035156 399.648438 657.890625 402.113281 655.914062 404.722656 C 653.941406 407.335938 652.152344 410.074219 650.554688 412.929688 C 648.957031 415.789062 647.5625 418.746094 646.371094 421.796875 C 645.179688 424.847656 644.203125 427.964844 643.441406 431.148438 C 642.679688 434.335938 642.136719 437.558594 641.820312 440.816406 C 641.503906 444.078125 641.410156 447.34375 641.542969 450.617188 C 641.671875 453.886719 642.03125 457.136719 642.609375 460.359375 C 643.1875 463.582031 643.984375 466.75 645.003906 469.863281 C 646.019531 472.980469 647.242188 476.007812 648.675781 478.953125 C 650.109375 481.898438 651.738281 484.730469 653.5625 487.449219 C 655.386719 490.171875 657.386719 492.753906 659.566406 495.199219 C 661.746094 497.644531 664.082031 499.925781 666.578125 502.050781 L 742.261719 564.925781 C 743.289062 565.777344 744.238281 566.707031 745.109375 567.714844 C 745.980469 568.71875 746.765625 569.792969 747.464844 570.925781 C 748.160156 572.0625 748.757812 573.25 749.261719 574.484375 C 749.761719 575.71875 750.160156 576.984375 750.453125 578.285156 C 750.746094 579.582031 750.929688 580.898438 751.007812 582.230469 C 751.082031 583.558594 751.050781 584.886719 750.910156 586.210938 C 750.765625 587.535156 750.519531 588.839844 750.160156 590.125 C 749.804688 591.40625 749.347656 592.652344 748.785156 593.863281 C 748.222656 595.070312 747.566406 596.226562 746.816406 597.324219 C 746.066406 598.425781 745.230469 599.457031 744.308594 600.421875 C 743.386719 601.382812 742.394531 602.265625 741.328125 603.0625 C 740.261719 603.863281 739.140625 604.570312 737.957031 605.183594 C 736.773438 605.800781 735.550781 606.3125 734.285156 606.726562 C 733.015625 607.140625 731.726562 607.445312 730.40625 607.648438 C 729.089844 607.847656 727.765625 607.941406 726.433594 607.921875 C 725.101562 607.90625 723.777344 607.777344 722.46875 607.542969 C 721.488281 607.195312 720.480469 607.019531 719.441406 607.019531 C 718.402344 607.019531 717.390625 607.195312 716.414062 607.542969 C 715.261719 607.675781 714.109375 607.753906 712.953125 607.777344 C 711.796875 607.800781 710.640625 607.769531 709.488281 607.6875 C 708.335938 607.601562 707.1875 607.464844 706.046875 607.273438 C 704.90625 607.082031 703.777344 606.839844 702.65625 606.542969 C 701.539062 606.25 700.4375 605.902344 699.351562 605.5 C 698.265625 605.101562 697.199219 604.65625 696.15625 604.15625 C 695.113281 603.65625 694.09375 603.113281 693.101562 602.519531 C 692.105469 601.925781 691.144531 601.289062 690.210938 600.605469 C 689.277344 599.921875 688.375 599.199219 687.511719 598.429688 C 686.644531 597.664062 685.816406 596.859375 685.023438 596.015625 C 684.234375 595.167969 683.484375 594.289062 682.773438 593.375 C 682.066406 592.460938 681.398438 591.519531 680.777344 590.542969 C 680.15625 589.566406 679.582031 588.5625 679.054688 587.535156 C 678.527344 586.503906 678.050781 585.453125 677.621094 584.378906 C 677.191406 583.304688 676.8125 582.210938 676.484375 581.101562 C 676.15625 579.992188 675.882812 578.871094 675.660156 577.734375 C 675.53125 576.980469 675.367188 576.234375 675.164062 575.496094 C 674.964844 574.761719 674.726562 574.035156 674.453125 573.320312 C 674.179688 572.605469 673.871094 571.90625 673.527344 571.222656 C 673.183594 570.539062 672.808594 569.875 672.398438 569.230469 C 671.992188 568.582031 671.550781 567.957031 671.078125 567.355469 C 670.609375 566.753906 670.109375 566.175781 669.578125 565.621094 C 669.050781 565.070312 668.496094 564.542969 667.917969 564.046875 C 667.335938 563.546875 666.730469 563.082031 666.105469 562.644531 C 665.476562 562.203125 664.832031 561.800781 664.164062 561.425781 C 663.496094 561.050781 662.8125 560.710938 662.109375 560.40625 C 661.410156 560.101562 660.695312 559.832031 659.96875 559.597656 C 659.238281 559.359375 658.5 559.164062 657.753906 559 C 657.007812 558.839844 656.253906 558.714844 655.492188 558.628906 C 654.734375 558.542969 653.972656 558.492188 653.207031 558.484375 C 652.441406 558.472656 651.679688 558.5 650.914062 558.5625 C 650.152344 558.628906 649.398438 558.730469 648.644531 558.871094 C 647.890625 559.007812 647.144531 559.183594 646.40625 559.394531 C 645.667969 559.605469 644.941406 559.851562 644.230469 560.136719 C 643.515625 560.417969 642.820312 560.734375 642.136719 561.085938 C 641.453125 561.4375 640.789062 561.820312 640.144531 562.234375 C 639.5 562.652344 638.878906 563.097656 638.277344 563.574219 C 637.675781 564.050781 637.101562 564.558594 636.546875 565.089844 C 635.996094 565.625 635.472656 566.183594 634.976562 566.769531 C 634.480469 567.355469 634.015625 567.960938 633.578125 568.59375 C 633.140625 569.222656 632.734375 569.875 632.363281 570.546875 C 631.992188 571.214844 631.652344 571.902344 631.34375 572.605469 C 631.039062 573.3125 630.769531 574.027344 630.535156 574.757812 C 630.300781 575.488281 630.101562 576.230469 629.9375 576.976562 C 629.777344 577.726562 629.652344 578.484375 629.5625 579.246094 C 629.472656 580.007812 629.425781 580.773438 629.410156 581.539062 C 629.398438 582.308594 629.421875 583.074219 629.484375 583.839844 C 629.546875 584.601562 629.644531 585.363281 629.78125 586.117188 C 630.160156 588.167969 630.613281 590.199219 631.144531 592.210938 C 631.675781 594.226562 632.28125 596.21875 632.960938 598.1875 C 633.640625 600.15625 634.394531 602.097656 635.222656 604.007812 C 636.046875 605.921875 636.945312 607.796875 637.914062 609.644531 C 638.878906 611.488281 639.914062 613.292969 641.019531 615.0625 C 642.121094 616.828125 643.289062 618.550781 644.523438 620.230469 C 645.753906 621.910156 647.050781 623.539062 648.40625 625.121094 C 649.761719 626.703125 651.171875 628.230469 652.644531 629.707031 C 654.113281 631.183594 655.636719 632.601562 657.214844 633.960938 C 658.792969 635.324219 660.417969 636.621094 662.09375 637.859375 C 663.765625 639.097656 665.484375 640.273438 667.25 641.382812 C 669.011719 642.492188 670.8125 643.535156 672.65625 644.507812 C 674.496094 645.480469 676.371094 646.386719 678.28125 647.21875 C 680.191406 648.050781 682.128906 648.8125 684.09375 649.5 C 686.0625 650.1875 688.050781 650.800781 690.0625 651.335938 C 692.074219 651.875 694.105469 652.335938 696.152344 652.722656 C 694.289062 669.257812 700.34375 686.257812 719.441406 686.722656 C 739.003906 686.257812 744.589844 668.789062 742.726562 652.253906 C 745.898438 651.488281 749 650.507812 752.035156 649.316406 C 755.070312 648.121094 758.007812 646.726562 760.851562 645.125 C 763.691406 643.527344 766.414062 641.742188 769.007812 639.769531 C 771.605469 637.796875 774.054688 635.65625 776.355469 633.34375 C 778.660156 631.035156 780.792969 628.578125 782.753906 625.976562 C 784.71875 623.371094 786.496094 620.644531 788.082031 617.796875 C 789.671875 614.949219 791.058594 612.003906 792.238281 608.96875 C 793.421875 605.929688 794.394531 602.824219 795.148438 599.648438 C 795.902344 596.476562 796.4375 593.269531 796.753906 590.023438 C 797.066406 586.777344 797.15625 583.523438 797.023438 580.265625 C 796.886719 577.007812 796.53125 573.773438 795.953125 570.566406 C 795.375 567.355469 794.578125 564.203125 793.5625 561.101562 C 792.550781 558.003906 791.328125 554.988281 789.902344 552.054688 C 788.472656 549.125 786.851562 546.304688 785.035156 543.597656 C 783.214844 540.886719 781.222656 538.316406 779.050781 535.882812 C 776.882812 533.449219 774.554688 531.175781 772.070312 529.0625 L 696.386719 466.183594 C 695.398438 465.414062 694.480469 464.566406 693.628906 463.648438 C 692.773438 462.726562 692 461.746094 691.308594 460.703125 C 690.613281 459.660156 690.003906 458.570312 689.484375 457.429688 C 688.960938 456.289062 688.535156 455.117188 688.203125 453.90625 C 687.867188 452.699219 687.632812 451.472656 687.496094 450.226562 C 687.359375 448.980469 687.320312 447.734375 687.382812 446.480469 C 687.445312 445.230469 687.605469 443.992188 687.867188 442.765625 C 688.125 441.539062 688.480469 440.339844 688.933594 439.171875 C 689.332031 437.996094 689.820312 436.859375 690.394531 435.761719 C 690.972656 434.664062 691.628906 433.613281 692.367188 432.617188 C 693.101562 431.621094 693.914062 430.6875 694.796875 429.8125 C 695.679688 428.941406 696.621094 428.144531 697.628906 427.417969 C 698.632812 426.691406 699.6875 426.046875 700.792969 425.484375 C 701.898438 424.921875 703.042969 424.449219 704.222656 424.0625 C 705.398438 423.675781 706.601562 423.382812 707.824219 423.183594 C 709.050781 422.984375 710.28125 422.878906 711.523438 422.871094 Z M 711.523438 422.871094 " fill-opacity="1" fill-rule="nonzero"/></g><g clip-path="url(#45dc59a8f4)"><g clip-path="url(#06ad27ad87)"><path fill="#ffffff" d="M 612.496094 149.175781 L 627.742188 149.175781 L 627.742188 164.421875 L 612.496094 164.421875 Z M 612.496094 149.175781 " fill-opacity="1" fill-rule="nonzero"/></g></g></svg>